<?xml version="1.0" encoding="UTF-8" standalone="no"?>
<svg
   xmlns:dc="http://purl.org/dc/elements/1.1/"
   xmlns:cc="http://creativecommons.org/ns#"
   xmlns:rdf="http://www.w3.org/1999/02/22-rdf-syntax-ns#"
   xmlns:svg="http://www.w3.org/2000/svg"
   xmlns="http://www.w3.org/2000/svg"
   xmlns:sodipodi="http://sodipodi.sourceforge.net/DTD/sodipodi-0.dtd"
   xmlns:inkscape="http://www.inkscape.org/namespaces/inkscape"
   version="1.1"
   width="1011.146"
   height="239.22"
   id="svg199"
   viewBox="0 0 1011.146 239.22"
   sodipodi:docname="humanooid.svg"
   inkscape:version="0.92.5 (2060ec1f9f, 2020-04-08)">
  <metadata
     id="metadata205">
    <rdf:RDF>
      <cc:Work
         rdf:about="">
        <dc:format>image/svg+xml</dc:format>
        <dc:type
           rdf:resource="http://purl.org/dc/dcmitype/StillImage" />
        <dc:title />
      </cc:Work>
    </rdf:RDF>
  </metadata>
  <defs
     id="defs203" />
  <sodipodi:namedview
     pagecolor="#ffffff"
     bordercolor="#666666"
     borderopacity="1"
     objecttolerance="10"
     gridtolerance="10"
     guidetolerance="10"
     inkscape:pageopacity="0"
     inkscape:pageshadow="2"
     inkscape:window-width="1366"
     inkscape:window-height="742"
     id="namedview201"
     showgrid="false"
     inkscape:zoom="0.22996319"
     inkscape:cx="78.975071"
     inkscape:cy="15.219522"
     inkscape:window-x="1360"
     inkscape:window-y="0"
     inkscape:window-maximized="1"
     inkscape:current-layer="svg199"
     inkscape:pagecheckerboard="true"
     units="px" />
  <g
     id="g887"
     transform="translate(0.00434112,0.00705127)">
    <g
       transform="matrix(2.4985711,0,0,2.4985711,804.45038,-2962.8903)"
       id="g1029">
      <g
         id="g935">
        <path
           inkscape:connector-curvature="0"
           id="path111"
           style="fill:none;stroke:#ffffff;stroke-width:2.53084779;stroke-linecap:butt;stroke-linejoin:miter;stroke-dasharray:none"
           d="m 38.699958,1233.4043 a 4.2458462,4.2458462 0 0 1 4.245845,4.2462 4.2458462,4.2458462 0 1 1 -4.245845,-4.2462 z" />
        <text
           style="font-size:31.73436356px;stroke-width:2.64453053"
           id="text171-3"
           y="1243.1605"
           x="47.601154">
          <tspan
             style="font-size:44.95701218px;font-family:'Android 7';fill:#ffffff;stroke-width:2.64453053"
             id="tspan169-6"
             font-size="17.0000">ID</tspan>
        </text>
        <g
           transform="matrix(2.4282615,0,0,2.4282615,-70.792669,191.49958)"
           id="g128">
          <path
             d="m 27.01806,423.20398 a 4.4632,4.4632 0 0 1 4.4632,4.4632 4.4632,4.4632 0 1 1 -4.4632,-4.4632 z"
             style="fill:none;stroke:#ffcc00;stroke-width:1.91989994;stroke-linecap:butt;stroke-linejoin:miter;stroke-dasharray:none"
             id="path101"
             inkscape:connector-curvature="0" />
          <path
             d="m 35.942957,423.20398 a 4.4632,4.4632 0 0 1 4.463203,4.4632 4.4632,4.4632 0 1 1 -4.463203,-4.4632 z"
             style="fill:none;stroke:#ffcc00;stroke-width:1.91989994;stroke-linecap:butt;stroke-linejoin:miter;stroke-dasharray:none"
             id="path107"
             inkscape:connector-curvature="0" />
        </g>
        <text
           style="font-size:31.70787621px;stroke-width:2.64232326"
           id="text171"
           y="1243.1605"
           x="-177.14124">
          <tspan
             style="font-size:44.91949081px;font-family:'Android 7';fill:#ffffff;stroke-width:2.64232326"
             id="tspan169"
             font-size="17.0000">human</tspan>
        </text>
        <text
           transform="scale(0.77943118,1.2829869)"
           style="font-style:normal;font-variant:normal;font-weight:bold;font-stretch:normal;font-size:24.5883522px;font-family:Arial;-inkscape-font-specification:'Arial Bold';stroke-width:2.04902935"
           id="text183"
           y="945.13757"
           x="55.937004">
          <tspan
             style="font-style:normal;font-variant:normal;font-weight:bold;font-stretch:normal;font-size:13.3186903px;font-family:Arial;-inkscape-font-specification:'Arial Bold';fill:#ffffff;stroke-width:2.04902935"
             id="tspan181"
             font-size="6.5000">&lt;&gt;</tspan>
        </text>
      </g>
      <path
         d="m -196.30612,1213.5798 v 50.2988 h 3.77369 v -50.2988 z"
         style="fill:#ffffff;fill-rule:evenodd;stroke-width:2.65099049"
         id="path189"
         inkscape:connector-curvature="0" />
      <path
         d="m -264.37269,1211.4736 v 0.4766 0.4619 0.4468 0.4327 0.4184 0.4051 0.3905 0.3772 0.3642 0.3511 0.3382 0.3259 0.3135 0.3015 0.2895 0.2779 0.2675 0.2552 0.2444 0.2346 0.2236 0.2136 0.2035 0.1942 0.1838 0.1756 0.1662 0.1573 0.1493 0.1402 0.1326 0.1251 0.1169 0.1108 0.1022 0.096 0.09 0.083 0.077 0.071 0.065 0.06 0.055 0.049 0.045 0.041 0.036 0.032 0.028 0.024 0.021 0.019 0.016 0.013 0.011 0.01 0.01 0.01 0 0 0 0"
         style="fill:#ffcc00;fill-rule:evenodd;stroke-width:2.65634274"
         id="path193"
         inkscape:connector-curvature="0" />
      <path
         d="m -279.23194,1208.1208 c -5.38998,-10.8878 -13.22008,-16.1798 -24.67476,-20.2477 -3.25695,9.5727 -4.49268,19.144 -9.77056,28.7164 -27.68308,56.9129 37.87652,79.3258 49.33944,51.4212 v -13.1314 c -41.96889,39.9809 -80.52703,-41.0357 -14.89412,-46.7585 z"
         style="fill:#b3b3b3;fill-opacity:1;fill-rule:evenodd;stroke:#000000;stroke-width:3.18700004;stroke-linecap:butt;stroke-linejoin:miter;stroke-miterlimit:4;stroke-dasharray:none"
         id="path2-3"
         inkscape:connector-curvature="0" />
      <path
         d="m -249.47831,1208.1208 c 5.38998,-10.8878 13.22008,-16.1798 24.67476,-20.2477 3.25695,9.5727 4.49268,19.144 9.77056,28.7164 27.68308,56.9129 -37.87652,79.3258 -49.33944,51.4212 v -13.1314 c 41.96889,39.9809 80.52703,-41.0357 14.89412,-46.7585 z"
         style="fill:#ffcc00;fill-rule:evenodd;stroke:#000000;stroke-width:3.18700004;stroke-linecap:butt;stroke-linejoin:miter;stroke-miterlimit:4;stroke-dasharray:none"
         id="path2"
         inkscape:connector-curvature="0" />
      <g
         id="g84"
         transform="translate(0.00168723)">
        <g
           id="g76">
          <path
             d="m -285.95043,1227.8941 a 10.44899,10.447927 0 0 1 10.44899,10.4482 10.44899,10.447927 0 1 1 -10.44899,-10.4482 z"
             style="fill:none;stroke:#ffcc00;stroke-width:5.09991217;stroke-linecap:butt;stroke-linejoin:miter;stroke-dasharray:none"
             id="path34"
             inkscape:connector-curvature="0" />
          <path
             d="m -281.27633,1228.7704 a 4.1739113,4.1736457 0 0 1 4.17391,4.1737 4.1739113,4.1736457 0 1 1 -4.17391,-4.1737 z"
             style="fill:#ffffff;fill-rule:evenodd;stroke:#ffffff;stroke-width:1.50588071;stroke-linecap:butt;stroke-linejoin:miter;stroke-dasharray:none"
             id="path38"
             inkscape:connector-curvature="0" />
        </g>
        <g
           id="g72">
          <path
             d="m -242.76122,1227.8938 a 10.44899,10.447927 0 0 1 10.44899,10.4482 10.44899,10.447927 0 1 1 -10.44899,-10.4482 z"
             style="fill:none;stroke:#b3b3b3;stroke-width:5.09991217;stroke-linecap:butt;stroke-linejoin:miter;stroke-dasharray:none"
             id="path42"
             inkscape:connector-curvature="0" />
          <path
             d="m -239.23253,1228.1523 a 4.1739113,4.1736457 0 0 1 4.17417,4.1736 4.1739113,4.1736457 0 1 1 -4.17417,-4.1736 z"
             style="fill:#ffffff;fill-rule:evenodd;stroke:#ffffff;stroke-width:1.50588071;stroke-linecap:butt;stroke-linejoin:miter;stroke-dasharray:none"
             id="path46"
             inkscape:connector-curvature="0" />
        </g>
      </g>
      <path
         d="m -267.19555,1227.6237 c 1.8095,3.1586 2.84414,6.8175 2.84414,10.7186 0,11.928 -9.66961,21.5976 -21.59766,21.5976 -11.9283,0 -21.59792,-9.6696 -21.59792,-21.5976 0,-10.5197 7.5217,-19.2814 17.48006,-21.204 l 8.07449,3.7016 z m 28.52992,-10.4899 c 9.96978,1.9141 17.50237,10.6806 17.50237,21.2085 0,11.928 -9.66908,21.5976 -21.59792,21.5976 -11.92725,0 -21.5974,-9.6696 -21.5974,-21.5976 0,-3.9088 1.03863,-7.5751 2.85451,-10.7383 l 14.75519,-6.7641 z"
         style="fill:none;stroke:#ffffff;stroke-width:6.37548828;stroke-linecap:butt;stroke-linejoin:miter;stroke-dasharray:none"
         id="path99"
         inkscape:connector-curvature="0" />
      <path
         d="m -264.35499,1246.4301 2.97457,6.9819 2.97484,6.9819 -2.97484,6.9817 -2.97457,6.9819 -2.97484,-6.9819 -2.97484,-6.9817 2.97484,-6.9819 z"
         style="fill:#ffcc00;fill-rule:evenodd;stroke:#000000;stroke-width:3.18734574;stroke-linecap:butt;stroke-linejoin:miter;stroke-dasharray:none"
         id="path127"
         inkscape:connector-curvature="0" />
      <g
         id="g885"
         transform="translate(1.0000123,-0.36033626)">
        <path
           inkscape:connector-curvature="0"
           id="path195"
           style="fill:#ffcc00;fill-rule:evenodd;stroke:#000000;stroke-width:2.18700004;stroke-linecap:butt;stroke-linejoin:miter;stroke-miterlimit:4;stroke-dasharray:none"
           d="m -287.81039,1213.0102 c 5.37139,-1.4812 17.2572,-1.0711 17.70027,0.3015 l 2.95279,9.1673 z" />
        <path
           inkscape:connector-curvature="0"
           id="path197"
           style="fill:#b3b3b3;fill-rule:evenodd;stroke:#000000;stroke-width:2.18700004;stroke-linecap:butt;stroke-linejoin:miter;stroke-miterlimit:4;stroke-dasharray:none"
           d="m -242.89983,1213.0102 c -5.37112,-1.4812 -17.25693,-1.0711 -17.70001,0.3015 l -2.95305,9.1673 z" />
      </g>
      <g
         id="g990"
         transform="translate(-1.3158746)">
        <text
           style="font-size:30.55485344px;stroke-width:2.54623771"
           id="text143"
           y="1261.6121"
           x="-163.89153">
          <tspan
             style="font-size:12.73118877px;font-family:'Android 7';fill:#ffffff;stroke-width:2.54623771"
             id="tspan137"
             font-size="5.0000">let</tspan>
          <tspan
             style="font-size:12.73118877px;font-family:'Android 7';fill:#ffffff;stroke-width:2.54623771"
             id="tspan139"
             font-size="5.0000">’</tspan>
          <tspan
             style="font-size:12.73118877px;font-family:'Android 7';fill:#ffffff;stroke-width:2.54623771"
             id="tspan141"
             font-size="5.0000">s talk about code !</tspan>
        </text>
        <g
           id="g979">
          <text
             x="-253.70668"
             y="878.02032"
             id="text155"
             transform="scale(0.6946815,1.4395086)"
             style="font-size:21.595438px;stroke-width:1.79961991">
            <tspan
               font-size="8.0000"
               id="tspan153"
               style="font-style:normal;font-variant:normal;font-weight:bold;font-stretch:normal;font-size:14.3969593px;font-family:Arial;-inkscape-font-specification:'Arial Bold';fill:#ffcc00;stroke-width:1.79961991">&lt;</tspan>
          </text>
          <text
             x="-38.79483"
             y="878.02032"
             id="text155-3"
             transform="scale(-0.6946815,1.4395086)"
             style="font-size:21.595438px;stroke-width:1.79961991">
            <tspan
               font-size="8.0000"
               id="tspan153-6"
               style="font-style:normal;font-variant:normal;font-weight:bold;font-stretch:normal;font-size:14.3969593px;font-family:Arial;-inkscape-font-specification:'Arial Bold';fill:#ffcc00;stroke-width:1.79961991">&lt;</tspan>
          </text>
        </g>
      </g>
    </g>
  </g>
</svg>
