<?xml version="1.0" encoding="UTF-8" standalone="no"?>
<svg
   xmlns:dc="http://purl.org/dc/elements/1.1/"
   xmlns:cc="http://creativecommons.org/ns#"
   xmlns:rdf="http://www.w3.org/1999/02/22-rdf-syntax-ns#"
   xmlns:svg="http://www.w3.org/2000/svg"
   xmlns="http://www.w3.org/2000/svg"
   xmlns:sodipodi="http://sodipodi.sourceforge.net/DTD/sodipodi-0.dtd"
   xmlns:inkscape="http://www.inkscape.org/namespaces/inkscape"
   version="1.1"
   width="300"
   height="300"
   id="svg199"
   viewBox="0 0 300 300"
   sodipodi:docname="humanooid-fav-head.svg"
   inkscape:version="0.92.5 (2060ec1f9f, 2020-04-08)">
  <metadata
     id="metadata205">
    <rdf:RDF>
      <cc:Work
         rdf:about="">
        <dc:format>image/svg+xml</dc:format>
        <dc:type
           rdf:resource="http://purl.org/dc/dcmitype/StillImage" />
        <dc:title />
      </cc:Work>
    </rdf:RDF>
  </metadata>
  <defs
     id="defs203">
    <circle
       r="75"
       cy="75"
       cx="75"
       id="path-1" />
    <circle
       r="75"
       cy="75"
       cx="75"
       id="path-1-3" />
  </defs>
  <sodipodi:namedview
     pagecolor="#ffffff"
     bordercolor="#666666"
     borderopacity="1"
     objecttolerance="10"
     gridtolerance="10"
     guidetolerance="10"
     inkscape:pageopacity="0"
     inkscape:pageshadow="2"
     inkscape:window-width="1366"
     inkscape:window-height="742"
     id="namedview201"
     showgrid="false"
     inkscape:zoom="1.3008682"
     inkscape:cx="132.23046"
     inkscape:cy="85.129312"
     inkscape:window-x="1360"
     inkscape:window-y="0"
     inkscape:window-maximized="1"
     inkscape:current-layer="svg199"
     inkscape:pagecheckerboard="true"
     units="px" />
  <circle
     style="opacity:1;fill:#454360;fill-opacity:1;stroke-width:0;stroke-miterlimit:4;stroke-dasharray:none"
     id="path1080"
     cx="150"
     cy="150"
     r="150" />
  <path
     d="m 149.95611,94.45967 v 1.19082 1.15409 1.11636 1.08113 1.04541 1.01217 0.97569 0.94246 0.90998 0.87725 0.84502 0.81428 0.7833 0.75332 0.72334 0.69435 0.66837 0.63763 0.61065 0.58617 0.55868 0.53369 0.50846 0.48523 0.45923 0.43875 0.41526 0.39303 0.37304 0.3503 0.33131 0.31257 0.29208 0.27684 0.25536 0.23986 0.22487 0.20738 0.19239 0.1774 0.16241 0.14991 0.13742 0.12243 0.11244 0.10244 0.0899 0.0799 0.07 0.06 0.0525 0.0475 0.04 0.0325 0.0275 0.025 0.025 0.025 0 0 0 0"
     style="fill:#ffcc00;fill-rule:evenodd;stroke-width:6.63706112"
     id="path193-3"
     inkscape:connector-curvature="0" />
  <path
     inkscape:connector-curvature="0"
     style="fill:#b3b3b3;fill-opacity:1;fill-rule:evenodd;stroke:#000000;stroke-width:0;stroke-linecap:butt;stroke-linejoin:miter;stroke-miterlimit:4;stroke-dasharray:none"
     d="M 51.17688,35.492748 C 43.03916,59.410822 39.95193,83.32543 26.76477,107.24275 -38.31615,241.04086 102.85309,298.51958 143.62219,246.76813 l -4.71875,-11.07226 -7.64258,-17.9375 C 34.52955,279.11641 -41.29124,99.52098 112.82922,86.08259 99.36198,58.878652 79.79721,45.656688 51.17688,35.492748 Z m 98.86719,167.419912 c -2.52711,2.40741 -5.05077,4.63416 -7.56446,6.69727 l -3.01758,7.08008 6.76954,15.88476 2.54101,5.96485 c 0.44721,-0.91691 0.87509,-1.85339 1.27149,-2.81836 z"
     id="path2-3-6" />
  <path
     inkscape:connector-curvature="0"
     style="fill:#ffd15c;fill-opacity:1;fill-rule:evenodd;stroke:#000000;stroke-width:0;stroke-linecap:butt;stroke-linejoin:miter;stroke-miterlimit:4;stroke-dasharray:none"
     d="m 248.82336,35.492748 c -28.62034,10.16394 -48.18509,23.385904 -61.65234,50.589842 154.11974,13.43833 78.29901,193.03124 -18.43164,131.67578 l -7.64453,17.9375 -4.7168,11.07031 C 197.14591,298.51973 338.3169,241.0419 273.23547,107.24275 260.04831,83.32543 256.96108,59.410822 248.82336,35.492748 Z M 149.95617,202.91266 v 32.8086 c 0.3964,0.96497 0.82428,1.90145 1.27149,2.81836 l 2.54101,-5.96485 6.76758,-15.88476 -3.01562,-7.07813 c -2.51436,-2.06357 -5.03666,-4.29116 -7.56446,-6.69922 z"
     id="path2-7" />
  <path
     inkscape:connector-curvature="0"
     style="color:#000000;font-style:normal;font-variant:normal;font-weight:normal;font-stretch:normal;font-size:medium;line-height:normal;font-family:sans-serif;font-variant-ligatures:normal;font-variant-position:normal;font-variant-caps:normal;font-variant-numeric:normal;font-variant-alternates:normal;font-feature-settings:normal;text-indent:0;text-align:start;text-decoration:none;text-decoration-line:none;text-decoration-style:solid;text-decoration-color:#000000;letter-spacing:normal;word-spacing:normal;text-transform:none;writing-mode:lr-tb;direction:ltr;text-orientation:mixed;dominant-baseline:auto;baseline-shift:baseline;text-anchor:start;white-space:normal;shape-padding:0;clip-rule:nonzero;display:inline;overflow:visible;visibility:visible;opacity:1;isolation:auto;mix-blend-mode:normal;color-interpolation:sRGB;color-interpolation-filters:linearRGB;solid-color:#000000;solid-opacity:1;vector-effect:none;fill:#ffd15c;fill-opacity:1;fill-rule:nonzero;stroke:none;stroke-width:12.74249268;stroke-linecap:butt;stroke-linejoin:miter;stroke-miterlimit:4;stroke-dasharray:none;stroke-dashoffset:0;stroke-opacity:1;color-rendering:auto;image-rendering:auto;shape-rendering:auto;text-rendering:auto;enable-background:accumulate"
     d="m 96.04602,129.11579 c -14.19764,-1e-5 -25.35474,8.81993 -30.00586,20.04883 -4.65111,11.22889 -2.99744,25.35292 7.04102,35.39062 9.27559,9.2749 23.27511,12.06006 35.39453,7.04102 12.11943,-5.01905 20.05043,-16.88665 20.05078,-30.00391 4.6e-4,-17.86128 -14.61842,-32.47656 -32.48047,-32.47656 z m 11.67969,6.67969 c 6.77638,0 12.31063,5.53439 12.31054,12.31054 -5e-5,4.06035 -1.88382,7.44166 -4.6289,9.6211 0.24389,1.24896 0.37503,2.54021 0.375,3.86523 -2.1e-4,7.99948 -4.79191,15.16934 -12.1836,18.23047 -7.39165,3.06113 -15.85036,1.37968 -21.50781,-4.27734 -6.40719,-6.40671 -7.15251,-14.56453 -4.27734,-21.50586 2.87516,-6.94133 9.16927,-12.18164 18.23242,-12.18164 0.35493,0 0.70657,0.009 1.05664,0.0273 2.05553,-3.51503 5.87625,-6.08984 10.62305,-6.08984 z m 0,3.76367 c -2.8113,0 -5.02552,1.20128 -6.51172,2.99414 5.86179,1.56452 10.61517,5.71303 12.96484,11.19336 1.27903,-1.43284 2.09372,-3.33347 2.09375,-5.64063 6e-5,-4.74257 -3.80381,-8.54687 -8.54687,-8.54687 z"
     id="path34-5" />
  <path
     d="m 107.72538,137.67695 a 10.428814,10.428151 0 0 1 10.42881,10.42829 10.428814,10.428151 0 1 1 -10.42881,-10.42829 z"
     style="fill:#ffffff;fill-opacity:1;fill-rule:evenodd;stroke:#ffffff;stroke-width:0;stroke-linecap:butt;stroke-linejoin:miter;stroke-miterlimit:4;stroke-dasharray:none"
     id="path38-3"
     inkscape:connector-curvature="0" />
  <path
     inkscape:connector-curvature="0"
     style="color:#000000;font-style:normal;font-variant:normal;font-weight:normal;font-stretch:normal;font-size:medium;line-height:normal;font-family:sans-serif;font-variant-ligatures:normal;font-variant-position:normal;font-variant-caps:normal;font-variant-numeric:normal;font-variant-alternates:normal;font-feature-settings:normal;text-indent:0;text-align:start;text-decoration:none;text-decoration-line:none;text-decoration-style:solid;text-decoration-color:#000000;letter-spacing:normal;word-spacing:normal;text-transform:none;writing-mode:lr-tb;direction:ltr;text-orientation:mixed;dominant-baseline:auto;baseline-shift:baseline;text-anchor:start;white-space:normal;shape-padding:0;clip-rule:nonzero;display:inline;overflow:visible;visibility:visible;opacity:1;isolation:auto;mix-blend-mode:normal;color-interpolation:sRGB;color-interpolation-filters:linearRGB;solid-color:#000000;solid-opacity:1;vector-effect:none;fill:#b3b3b3;fill-opacity:1;fill-rule:nonzero;stroke:none;stroke-width:12.74249268;stroke-linecap:butt;stroke-linejoin:miter;stroke-miterlimit:4;stroke-dasharray:none;stroke-dashoffset:0;stroke-opacity:1;color-rendering:auto;image-rendering:auto;shape-rendering:auto;text-rendering:auto;enable-background:accumulate"
     d="m 203.95813,129.11579 c -14.19764,0 -25.35475,8.81799 -30.00586,20.04687 -4.65111,11.22891 -2.99745,25.35488 7.04101,35.39258 9.2756,9.2749 23.27317,12.06006 35.39258,7.04102 12.11943,-5.01905 20.05044,-16.88665 20.05078,-30.00391 4.7e-4,-17.86128 -14.61646,-32.47657 -32.47851,-32.47656 z m 8.8164,5.13477 c 6.77657,-4.2e-4 12.31048,5.53421 12.31055,12.31054 3e-5,3.05437 -1.06539,5.7236 -2.76172,7.78711 0.8746,2.24064 1.37116,4.67761 1.3711,7.24414 -2.1e-4,7.99948 -4.79192,15.16934 -12.1836,18.23047 -7.39166,3.06113 -15.85036,1.37773 -21.50781,-4.2793 -6.40719,-6.4067 -7.15446,-14.56257 -4.2793,-21.5039 2.58832,-6.2488 7.95726,-11.10602 15.61328,-12.01563 0.0228,-0.0574 0.0408,-0.11675 0.0645,-0.17383 1.76514,-4.2623 5.96917,-7.59927 11.37304,-7.5996 z m 0,3.76367 c -3.2698,2e-4 -5.73448,1.62094 -7.17773,3.91601 6.18573,0.49871 11.52721,3.79103 14.77148,8.63477 0.60034,-1.15096 0.9551,-2.48873 0.95508,-4.00391 -5e-5,-4.7427 -3.80563,-8.54717 -8.54883,-8.54687 z"
     id="path42-5" />
  <path
     d="m 212.7748,136.13258 a 10.428814,10.428151 0 0 1 10.42946,10.42804 10.428814,10.428151 0 1 1 -10.42946,-10.42804 z"
     style="fill:#ffffff;fill-opacity:0.94117647;fill-rule:evenodd;stroke:#ffffff;stroke-width:0;stroke-linecap:butt;stroke-linejoin:miter;stroke-miterlimit:4;stroke-dasharray:none"
     id="path46-6"
     inkscape:connector-curvature="0" />
  <path
     inkscape:connector-curvature="0"
     style="color:#000000;font-style:normal;font-variant:normal;font-weight:normal;font-stretch:normal;font-size:medium;line-height:normal;font-family:sans-serif;font-variant-ligatures:normal;font-variant-position:normal;font-variant-caps:normal;font-variant-numeric:normal;font-variant-alternates:normal;font-feature-settings:normal;text-indent:0;text-align:start;text-decoration:none;text-decoration-line:none;text-decoration-style:solid;text-decoration-color:#000000;letter-spacing:normal;word-spacing:normal;text-transform:none;writing-mode:lr-tb;direction:ltr;text-orientation:mixed;dominant-baseline:auto;baseline-shift:baseline;text-anchor:start;white-space:normal;shape-padding:0;clip-rule:nonzero;display:inline;overflow:visible;visibility:visible;opacity:1;isolation:auto;mix-blend-mode:normal;color-interpolation:sRGB;color-interpolation-filters:linearRGB;solid-color:#000000;solid-opacity:1;vector-effect:none;fill:#ffffff;fill-opacity:0.94117647;fill-rule:nonzero;stroke:none;stroke-width:15.92961121;stroke-linecap:butt;stroke-linejoin:miter;stroke-miterlimit:4;stroke-dasharray:none;stroke-dashoffset:0;stroke-opacity:1;color-rendering:auto;image-rendering:auto;shape-rendering:auto;text-rendering:auto;enable-background:accumulate"
     d="m 213.18469,100.29939 -2.31641,1.0625 -20.19726,9.25977 -39.18555,17.96288 -1.26953,2.21289 c -0.0806,0.14035 -0.13534,0.29645 -0.21484,0.4375 -0.0695,-0.12332 -0.11716,-0.26003 -0.1875,-0.38281 l -1.26953,-2.2168 -2.32227,-1.06446 -36.9707,-16.9492 -22.4961,-10.3125 -2.50781,0.48437 c -28.57098,5.51603 -50.13086,30.71799 -50.13086,60.79882 0,34.10749 27.82157,61.92774 61.92969,61.92774 13.93783,0 26.81019,-4.65839 37.16992,-12.48633 l 5.6875,-13.34961 7.43359,-17.44336 3.66407,-8.59766 11.09375,26.04102 5.6875,13.34766 c 10.35986,7.82921 23.23353,12.48828 37.17187,12.48828 34.10928,0 61.92774,-27.82049 61.92774,-61.92774 0,-30.10385 -21.59042,-55.32101 -50.19336,-60.81249 z m 1.69336,16.74805 c 20.09294,4.91311 35.07422,22.84134 35.07422,44.54491 0,25.49867 -20.49721,45.99805 -45.99805,45.99805 -25.45612,0 -45.92188,-20.43859 -45.98633,-45.88086 8e-5,-0.0395 0.006,-0.0776 0.006,-0.11719 0,-0.045 -0.01,-0.0878 -0.01,-0.13281 0.0213,-7.46542 1.87462,-14.42159 5.02929,-20.62695 l 34.31651,-15.73048 z m -129.80859,0.0137 17.54296,8.041 34.41602,15.77735 c 3.14116,6.19356 4.98657,13.13237 5.00781,20.58008 -9e-5,0.045 -0.01,0.0878 -0.01,0.13281 0,0.0395 0.006,0.0777 0.006,0.11719 -0.0644,25.44251 -20.52792,45.88086 -45.98633,45.88086 -25.49929,0 -46,-20.49962 -46,-45.99805 0,-21.68373 14.95807,-39.60022 35.02344,-44.53124 z"
     id="path99-2" />
  <path
     d="m 150.00033,181.80097 7.43218,17.44477 7.43285,17.44477 -7.43285,17.44428 -7.43218,17.44477 -7.43285,-17.44477 -7.43285,-17.44428 7.43285,-17.44477 z"
     style="fill:#ffd15c;fill-opacity:1;fill-rule:evenodd;stroke:#000000;stroke-width:0;stroke-linecap:butt;stroke-linejoin:miter;stroke-miterlimit:4;stroke-dasharray:none"
     id="path127-9"
     inkscape:connector-curvature="0" />
  <path
     d="m 93.89395,97.39868 c 13.4208,-3.70089 43.11834,-2.67622 44.22538,0.75332 l 7.37776,22.90515 z"
     style="fill:#ffd15c;fill-opacity:1;fill-rule:evenodd;stroke:#000000;stroke-width:0;stroke-linecap:butt;stroke-linejoin:miter;stroke-miterlimit:4;stroke-dasharray:none"
     id="path195-1"
     inkscape:connector-curvature="0" />
  <path
     d="M 206.10617,97.39868 C 192.68605,93.69779 162.98851,94.72246 161.88144,98.152 l -7.3784,22.90515 z"
     style="fill:#b3b3b3;fill-opacity:1;fill-rule:evenodd;stroke:#000000;stroke-width:0;stroke-linecap:butt;stroke-linejoin:miter;stroke-miterlimit:4;stroke-dasharray:none"
     id="path197-2"
     inkscape:connector-curvature="0" />
</svg>
