<?xml version="1.0" encoding="UTF-8" standalone="no"?>
<svg
   xmlns:dc="http://purl.org/dc/elements/1.1/"
   xmlns:cc="http://creativecommons.org/ns#"
   xmlns:rdf="http://www.w3.org/1999/02/22-rdf-syntax-ns#"
   xmlns:svg="http://www.w3.org/2000/svg"
   xmlns="http://www.w3.org/2000/svg"
   xmlns:sodipodi="http://sodipodi.sourceforge.net/DTD/sodipodi-0.dtd"
   xmlns:inkscape="http://www.inkscape.org/namespaces/inkscape"
   version="1.1"
   width="1011.146"
   height="239.22"
   id="svg199"
   viewBox="0 0 1011.146 239.22"
   sodipodi:docname="humanooid-light-text.svg"
   inkscape:version="0.92.5 (2060ec1f9f, 2020-04-08)">
  <metadata
     id="metadata205">
    <rdf:RDF>
      <cc:Work
         rdf:about="">
        <dc:format>image/svg+xml</dc:format>
        <dc:type
           rdf:resource="http://purl.org/dc/dcmitype/StillImage" />
        <dc:title />
      </cc:Work>
    </rdf:RDF>
  </metadata>
  <defs
     id="defs203" />
  <sodipodi:namedview
     pagecolor="#ffffff"
     bordercolor="#666666"
     borderopacity="1"
     objecttolerance="10"
     gridtolerance="10"
     guidetolerance="10"
     inkscape:pageopacity="0"
     inkscape:pageshadow="2"
     inkscape:window-width="1366"
     inkscape:window-height="742"
     id="namedview201"
     showgrid="false"
     inkscape:zoom="0.45992636"
     inkscape:cx="358.67385"
     inkscape:cy="6.6077077"
     inkscape:window-x="1360"
     inkscape:window-y="0"
     inkscape:window-maximized="1"
     inkscape:current-layer="svg199"
     inkscape:pagecheckerboard="true"
     units="px" />
  <path
     d="m 814.81078,122.86922 a 15.283396,15.283396 0 0 1 15.28339,15.28467 15.283396,15.283396 0 1 1 -15.28339,-15.28467 z"
     style="fill:none;stroke:#ffffff;stroke-width:9.11006737;stroke-linecap:butt;stroke-linejoin:miter;stroke-dasharray:none"
     id="path111"
     inkscape:connector-curvature="0" />
  <g
     aria-label="ID"
     style="font-size:114.23136902px;stroke-width:9.51928234"
     id="text171-3">
    <path
       d="m 862.65512,63.166871 v 94.820949 h -15.8035 V 63.166871 Z"
       style="font-size:161.82775879px;font-family:'Android 7';fill:#ffffff;stroke-width:9.51928234"
       id="path862" />
    <path
       d="M 925.86908,78.970363 H 878.45861 V 63.166871 h 47.41047 q 47.41048,0 47.41048,47.410479 0,47.41047 -47.41048,47.41047 h -47.41047 v -15.80349 h 47.41047 q 31.60699,0 31.60699,-31.60698 0,-31.606987 -31.60699,-31.606987 z"
       style="font-size:161.82775879px;font-family:'Android 7';fill:#ffffff;stroke-width:9.51928234"
       id="path864" />
  </g>
  <path
     inkscape:connector-curvature="0"
     style="color:#000000;font-style:normal;font-variant:normal;font-weight:normal;font-stretch:normal;font-size:medium;line-height:normal;font-family:sans-serif;font-variant-ligatures:normal;font-variant-position:normal;font-variant-caps:normal;font-variant-numeric:normal;font-variant-alternates:normal;font-feature-settings:normal;text-indent:0;text-align:start;text-decoration:none;text-decoration-line:none;text-decoration-style:solid;text-decoration-color:#000000;letter-spacing:normal;word-spacing:normal;text-transform:none;writing-mode:lr-tb;direction:ltr;text-orientation:mixed;dominant-baseline:auto;baseline-shift:baseline;text-anchor:start;white-space:normal;shape-padding:0;clip-rule:nonzero;display:inline;overflow:visible;visibility:visible;opacity:1;isolation:auto;mix-blend-mode:normal;color-interpolation:sRGB;color-interpolation-filters:linearRGB;solid-color:#000000;solid-opacity:1;vector-effect:none;fill:#ffd15c;fill-opacity:1;fill-rule:nonzero;stroke:none;stroke-width:16.78145599;stroke-linecap:butt;stroke-linejoin:miter;stroke-miterlimit:4;stroke-dasharray:none;stroke-dashoffset:0;stroke-opacity:1;color-rendering:auto;image-rendering:auto;shape-rendering:auto;text-rendering:auto;enable-background:accumulate"
     d="m 656.84034,63.167843 c -20.7605,3e-6 -37.0017,12.860427 -43.79406,29.260753 -6.79234,16.400324 -4.40248,36.980154 10.27603,51.658644 13.53968,13.53968 33.96785,17.60349 51.65863,10.27601 8.60927,-3.56594 15.75137,-9.51116 20.83341,-16.86875 1.59907,2.29658 3.4309,4.50576 5.51786,6.59274 13.5397,13.53967 33.96787,17.60349 51.65865,10.27601 17.69078,-7.32748 29.26074,-24.64557 29.26074,-43.79406 0,-26.080387 -21.32095,-47.40137 -47.40134,-47.401347 -16.88696,1.4e-5 -30.78239,8.510758 -39.03591,20.512634 -8.57429,-12.369116 -22.8624,-20.512637 -38.97401,-20.512634 z m 0,16.781529 c 17.011,-10e-7 30.61982,13.608817 30.61982,30.619818 0,12.40918 -7.43897,23.54157 -18.90314,28.28999 -11.46413,4.74842 -24.59405,2.1371 -33.36891,-6.63776 -9.89638,-9.89638 -11.09165,-22.61771 -6.63776,-33.371718 4.45388,-10.754029 14.29216,-18.900327 28.28999,-18.90033 z m 78.00992,0 c 17.01102,-1.4e-5 30.61981,13.608807 30.61981,30.619818 1e-5,12.40918 -7.43615,23.54157 -18.90032,28.28999 -11.46412,4.74842 -24.59686,2.13709 -33.37172,-6.63776 -5.84143,-5.84143 -8.63192,-12.66687 -9.03795,-19.49123 0.0328,-0.71916 0.0815,-1.43613 0.0815,-2.161 0,-0.63389 -0.0229,-1.26283 -0.0478,-1.89088 0.25932,-3.36398 1.06299,-6.68148 2.36641,-9.828608 4.45387,-10.75403 14.29216,-18.900317 28.28999,-18.90033 z"
     id="path101" />
  <g
     aria-label="human"
     style="font-size:114.13602448px;stroke-width:9.51133633"
     id="text171">
    <path
       d="m 132.60825,63.167054 v 94.820766 h -15.7903 v -15.7903 q 0,-31.58061 -31.580609,-31.58061 -30.791091,0 -31.580606,30.08053 v 17.29038 H 37.866432 V 63.167054 h 15.790303 v 40.186316 q 11.526921,-8.526759 31.580606,-8.526759 19.974729,0 31.580609,8.526759 V 63.167054 Z"
       style="font-size:161.69270325px;font-family:'Android 7';fill:#ffffff;stroke-width:9.51133633"
       id="path867" />
    <path
       d="M 227.35007,110.61691 V 63.246005 h 15.7903 v 47.370905 q 0,47.37091 -47.37091,47.37091 -47.37091,0 -47.37091,-47.37091 V 63.246005 h 15.7903 v 47.370905 q 0,31.58061 31.58061,31.58061 31.58061,0 31.58061,-31.58061 z"
       style="font-size:161.69270325px;font-family:'Android 7';fill:#ffffff;stroke-width:9.51133633"
       id="path869" />
    <path
       d="m 274.72097,110.61691 v 47.37091 h -15.7903 v -47.37091 q 0,-47.370905 31.58061,-47.370905 15.7903,0 23.68545,11.842727 7.89515,-11.842727 23.68546,-11.842727 31.5806,0 31.5806,47.370905 v 47.37091 h -15.7903 v -47.37091 q 0,-31.580602 -15.7903,-31.580602 -15.79031,0 -15.79031,31.580602 v 47.37091 h -15.7903 v -47.37091 -1.50007 q -0.39476,-30.080532 -15.7903,-30.080532 -15.79031,0 -15.79031,31.580602 z"
       style="font-size:161.69270325px;font-family:'Android 7';fill:#ffffff;stroke-width:9.51133633"
       id="path871" />
    <path
       d="m 479.99491,63.246005 v 94.741815 h -15.7903 V 79.036308 H 432.624 q -31.58061,0 -31.58061,31.580602 0,31.58061 31.58061,31.58061 h 15.7903 v 15.7903 H 432.624 q -47.37091,0 -47.37091,-47.37091 0,-47.370905 47.37091,-47.370905 z"
       style="font-size:161.69270325px;font-family:'Android 7';fill:#ffffff;stroke-width:9.51133633"
       id="path873" />
    <path
       d="m 511.57553,110.61691 v 47.37091 h -15.79031 v -47.37091 q 0,-47.370905 47.37091,-47.370905 47.37091,0 47.37091,47.370905 v 47.37091 h -15.7903 v -47.37091 q 0,-31.580602 -31.58061,-31.580602 -31.5806,0 -31.5806,31.580602 z"
       style="font-size:161.69270325px;font-family:'Android 7';fill:#ffffff;stroke-width:9.51133633"
       id="path875" />
  </g>
  <g
     aria-label="&lt;&gt;"
     transform="scale(0.77943119,1.2829869)"
     style="font-style:normal;font-variant:normal;font-weight:bold;font-stretch:normal;font-size:88.50850677px;font-family:Arial;-inkscape-font-specification:'Arial Bold';stroke-width:7.37570906"
     id="text183">
    <path
       d="m 1070.0299,25.316925 v -7.537773 l 24.0413,-9.1530088 v 5.3373048 l -19.4999,7.608 19.4999,7.58459 v 5.313896 z"
       style="font-style:normal;font-variant:normal;font-weight:bold;font-stretch:normal;font-size:47.94210434px;font-family:Arial;-inkscape-font-specification:'Arial Bold';fill:#ffffff;stroke-width:7.37570906"
       id="path878" />
    <path
       d="m 1098.0274,34.469934 v -5.313896 l 19.4764,-7.58459 -19.4764,-7.608 V 8.6261432 l 24.0412,9.1530088 v 7.537773 z"
       style="font-style:normal;font-variant:normal;font-weight:bold;font-stretch:normal;font-size:47.94210434px;font-family:Arial;-inkscape-font-specification:'Arial Bold';fill:#ffffff;stroke-width:7.37570906"
       id="path880" />
  </g>
  <g
     aria-label="let’s talk about code !"
     style="font-size:109.9855957px;stroke-width:9.16546631"
     id="text143">
    <path
       d="m 184.32982,210.9802 v -13.42598 h 4.47532 v 13.42598 q 0,8.95065 8.95065,8.95065 8.95065,0 8.95065,-8.95065 h 4.47533 q 0,13.42597 -13.42598,13.42597 -13.42597,0 -13.42597,-13.42597 z"
       style="font-size:45.82732773px;font-family:'Android 7';fill:#ffffff;stroke-width:9.16546631"
       id="path883" />
    <path
       d="m 215.65709,206.50487 q 0,-8.95065 13.42598,-8.95065 h 13.42597 v 4.47533 h -13.42597 q -8.95065,0 -8.95065,4.47532 v 1.61112 q 3.26699,-1.61112 8.95065,-1.61112 h 8.95065 v 4.47533 h -8.95065 q -8.72689,0 -8.95065,4.25156 v 0.22376 q 0,4.47533 8.95065,4.47533 h 13.42597 v 4.47532 h -13.42597 q -13.42598,0 -13.42598,-8.95065 z"
       style="font-size:45.82732773px;font-family:'Android 7';fill:#ffffff;stroke-width:9.16546631"
       id="path885" />
    <path
       d="m 246.98437,197.55422 h 27.97078 v 4.47533 H 262.648 v 22.37662 h -4.47532 v -22.37662 h -11.18831 z"
       style="font-size:45.82732773px;font-family:'Android 7';fill:#ffffff;stroke-width:9.16546631"
       id="path887" />
    <path
       d="m 286.57954,191.68546 0.32079,0.5041 q -0.59576,2.38302 -1.74144,5.3618 -1.09986,2.93295 -2.19971,5.3618 h -2.97878 q 0.45827,-1.74144 0.87072,-3.71202 0.45827,-2.0164 0.82489,-3.94115 0.36662,-1.97057 0.59576,-3.57453 z"
       style="font-size:45.82732773px;font-family:'Android 7';fill:#ffffff;stroke-width:9.16546631"
       id="path889" />
    <path
       d="m 287.45022,206.50487 q 0,-8.95065 13.42597,-8.95065 h 13.42598 v 4.47533 h -13.42598 q -8.95065,0 -8.95065,4.47532 h 8.95065 q 13.42598,0 13.42598,8.95065 0,8.95065 -13.42598,8.95065 h -13.42597 v -4.47532 h 13.42597 q 8.95065,0 8.95065,-4.47533 0,-4.47532 -8.95065,-4.47532 h -13.42597 z"
       style="font-size:45.82732773px;font-family:'Android 7';fill:#ffffff;stroke-width:9.16546631"
       id="path891" />
    <path
       d="m 342.29533,197.55422 h 27.97078 v 4.47533 h -12.30714 v 22.37662 h -4.47532 v -22.37662 h -11.18832 z"
       style="font-size:45.82732773px;font-family:'Android 7';fill:#ffffff;stroke-width:9.16546631"
       id="path893" />
    <path
       d="m 401.59339,197.55422 v 26.85195 h -4.47533 v -22.37662 h -8.95065 q -8.95065,0 -8.95065,8.95065 0,8.95065 8.95065,8.95065 h 4.47533 v 4.47532 h -4.47533 q -13.42597,0 -13.42597,-13.42597 0,-13.42598 13.42597,-13.42598 z"
       style="font-size:45.82732773px;font-family:'Android 7';fill:#ffffff;stroke-width:9.16546631"
       id="path895" />
    <path
       d="m 406.06871,210.9802 v -13.42598 h 4.47533 v 13.42598 q 0,8.95065 8.95065,8.95065 8.95065,0 8.95065,-8.95065 h 4.47532 q 0,13.42597 -13.42597,13.42597 -13.42598,0 -13.42598,-13.42597 z"
       style="font-size:45.82732773px;font-family:'Android 7';fill:#ffffff;stroke-width:9.16546631"
       id="path897" />
    <path
       d="m 441.87131,197.55422 v 11.18832 h 8.68213 0.26852 q 8.95065,0 8.95065,-8.95065 v -2.23767 h 4.47532 v 2.23767 q 0,7.9437 -4.69909,11.18831 4.69909,3.24461 4.69909,11.18831 v 2.23766 h -4.47532 v -2.23766 q 0,-8.95065 -8.95065,-8.95065 h -0.55942 -8.39123 v 11.18831 h -4.47533 v -26.85195 z"
       style="font-size:45.82732773px;font-family:'Android 7';fill:#ffffff;stroke-width:9.16546631"
       id="path899" />
    <path
       d="m 519.09302,197.55422 v 26.85195 h -4.47532 v -22.37662 h -8.95065 q -8.95065,0 -8.95065,8.95065 0,8.95065 8.95065,8.95065 h 4.47532 v 4.47532 h -4.47532 q -13.42598,0 -13.42598,-13.42597 0,-13.42598 13.42598,-13.42598 z"
       style="font-size:45.82732773px;font-family:'Android 7';fill:#ffffff;stroke-width:9.16546631"
       id="path901" />
    <path
       d="m 523.56837,206.50487 q 0,-8.95065 13.42598,-8.95065 h 8.95065 v 4.47533 h -8.95065 q -8.95065,0 -8.95065,4.47532 v 13.42598 h 8.95065 q 8.95065,0 8.95065,-4.47533 0,-4.47532 -8.95065,-4.47532 h -4.47533 v -4.47533 h 4.47533 q 13.42597,0 13.42597,8.95065 0,8.95065 -13.42597,8.95065 h -13.42598 z"
       style="font-size:45.82732773px;font-family:'Android 7';fill:#ffffff;stroke-width:9.16546631"
       id="path903" />
    <path
       d="m 554.89565,210.9802 q 0,-13.42598 13.42597,-13.42598 13.42597,0 13.42597,13.42598 0,13.42597 -13.42597,13.42597 -13.42597,0 -13.42597,-13.42597 z m 4.47532,0 q 0,8.95065 8.95065,8.95065 8.95065,0 8.95065,-8.95065 0,-8.95065 -8.95065,-8.95065 -8.95065,0 -8.95065,8.95065 z"
       style="font-size:45.82732773px;font-family:'Android 7';fill:#ffffff;stroke-width:9.16546631"
       id="path905" />
    <path
       d="m 608.59954,210.9802 v -13.42598 h 4.47533 v 13.42598 q 0,13.42597 -13.42598,13.42597 -13.42597,0 -13.42597,-13.42597 v -13.42598 h 4.47532 v 13.42598 q 0,8.95065 8.95065,8.95065 8.95065,0 8.95065,-8.95065 z"
       style="font-size:45.82732773px;font-family:'Android 7';fill:#ffffff;stroke-width:9.16546631"
       id="path907" />
    <path
       d="m 617.55019,197.55422 h 27.97078 v 4.47533 h -12.30715 v 22.37662 h -4.47532 v -22.37662 h -11.18831 z"
       style="font-size:45.82732773px;font-family:'Android 7';fill:#ffffff;stroke-width:9.16546631"
       id="path909" />
    <path
       d="m 677.98944,210.9802 q 0,8.95065 8.95065,8.95065 h 13.42597 v 4.47532 h -13.42597 q -13.42598,0 -13.42598,-13.42597 0,-13.42598 13.42598,-13.42598 h 13.42597 v 4.47533 h -13.42597 q -8.95065,0 -8.95065,8.95065 z"
       style="font-size:45.82732773px;font-family:'Android 7';fill:#ffffff;stroke-width:9.16546631"
       id="path911" />
    <path
       d="m 704.84142,210.9802 q 0,-13.42598 13.42597,-13.42598 13.42598,0 13.42598,13.42598 0,13.42597 -13.42598,13.42597 -13.42597,0 -13.42597,-13.42597 z m 4.47532,0 q 0,8.95065 8.95065,8.95065 8.95065,0 8.95065,-8.95065 0,-8.95065 -8.95065,-8.95065 -8.95065,0 -8.95065,8.95065 z"
       style="font-size:45.82732773px;font-family:'Android 7';fill:#ffffff;stroke-width:9.16546631"
       id="path913" />
    <path
       d="m 749.59466,202.02955 h -13.42597 v -4.47533 h 13.42597 q 13.42598,0 13.42598,13.42598 0,13.42597 -13.42598,13.42597 h -13.42597 v -4.47532 h 13.42597 q 8.95065,0 8.95065,-8.95065 0,-8.95065 -8.95065,-8.95065 z"
       style="font-size:45.82732773px;font-family:'Android 7';fill:#ffffff;stroke-width:9.16546631"
       id="path915" />
    <path
       d="m 767.49596,206.50487 q 0,-8.95065 13.42597,-8.95065 h 13.42598 v 4.47533 h -13.42598 q -8.95065,0 -8.95065,4.47532 v 1.61112 q 3.26699,-1.61112 8.95065,-1.61112 h 8.95065 v 4.47533 h -8.95065 q -8.72688,0 -8.95065,4.25156 v 0.22376 q 0,4.47533 8.95065,4.47533 h 13.42598 v 4.47532 h -13.42598 q -13.42597,0 -13.42597,-8.95065 z"
       style="font-size:45.82732773px;font-family:'Android 7';fill:#ffffff;stroke-width:9.16546631"
       id="path917" />
    <path
       d="m 826.81637,219.93085 v 4.47532 h -4.47532 v -4.47532 z m -4.47532,-4.47533 v -17.9013 h 4.47532 v 17.9013 z"
       style="font-size:45.82732773px;font-family:'Android 7';fill:#ffffff;stroke-width:9.16546631"
       id="path919" />
  </g>
  <g
     aria-label="&lt;"
     transform="scale(0.6946815,1.4395086)"
     style="font-size:77.73517609px;fill:#ffd15c;fill-opacity:1;stroke-width:6.4779315"
     id="text155">
    <path
       d="m 203.50708,148.59947 v -8.14802 l 25.98764,-9.89403 v 5.76941 l -21.07858,8.22394 21.07858,8.19863 v 5.7441 z"
       style="font-style:normal;font-variant:normal;font-weight:bold;font-stretch:normal;font-size:51.823452px;font-family:Arial;-inkscape-font-specification:'Arial Bold';fill:#ffd15c;fill-opacity:1;stroke-width:6.4779315"
       id="path922" />
  </g>
  <g
     aria-label="&lt;"
     transform="scale(-0.6946815,1.4395086)"
     style="font-size:77.73517609px;fill:#ffd15c;fill-opacity:1;stroke-width:6.4779315"
     id="text155-3">
    <path
       d="m -1252.0462,148.59947 v -8.14802 l 25.9876,-9.89403 v 5.76941 l -21.0786,8.22394 21.0786,8.19863 v 5.7441 z"
       style="font-style:normal;font-variant:normal;font-weight:bold;font-stretch:normal;font-size:51.823452px;font-family:Arial;-inkscape-font-specification:'Arial Bold';fill:#ffd15c;fill-opacity:1;stroke-width:6.4779315"
       id="path925" />
  </g>
</svg>
