<?xml version="1.0" encoding="UTF-8" standalone="no"?>
<svg
   xmlns:dc="http://purl.org/dc/elements/1.1/"
   xmlns:cc="http://creativecommons.org/ns#"
   xmlns:rdf="http://www.w3.org/1999/02/22-rdf-syntax-ns#"
   xmlns:svg="http://www.w3.org/2000/svg"
   xmlns="http://www.w3.org/2000/svg"
   xmlns:sodipodi="http://sodipodi.sourceforge.net/DTD/sodipodi-0.dtd"
   xmlns:inkscape="http://www.inkscape.org/namespaces/inkscape"
   version="1.1"
   width="300"
   height="300"
   id="svg199"
   viewBox="0 0 300 300"
   sodipodi:docname="humanooid-dark-head.svg"
   inkscape:version="0.92.5 (2060ec1f9f, 2020-04-08)">
  <metadata
     id="metadata205">
    <rdf:RDF>
      <cc:Work
         rdf:about="">
        <dc:format>image/svg+xml</dc:format>
        <dc:type
           rdf:resource="http://purl.org/dc/dcmitype/StillImage" />
        <dc:title />
      </cc:Work>
    </rdf:RDF>
  </metadata>
  <defs
     id="defs203" />
  <sodipodi:namedview
     pagecolor="#ffffff"
     bordercolor="#666666"
     borderopacity="1"
     objecttolerance="10"
     gridtolerance="10"
     guidetolerance="10"
     inkscape:pageopacity="0"
     inkscape:pageshadow="2"
     inkscape:window-width="1366"
     inkscape:window-height="742"
     id="namedview201"
     showgrid="false"
     inkscape:zoom="1.3008682"
     inkscape:cx="201.23817"
     inkscape:cy="131.1141"
     inkscape:window-x="1360"
     inkscape:window-y="0"
     inkscape:window-maximized="1"
     inkscape:current-layer="svg199"
     inkscape:pagecheckerboard="true"
     units="mm" />
  <path
     d="m 149.95595,93.90323 v 1.19082 1.15409 1.11636 1.08113 1.04541 1.01217 0.97569 0.94246 0.90998 0.87725 0.84502 0.81428 0.7833 0.75332 0.72334 0.69435 0.66837 0.63763 0.61065 0.58617 0.55868 0.53369 0.50846 0.48523 0.45923 0.43875 0.41526 0.39303 0.37304 0.3503 0.33131 0.31257 0.29208 0.27684 0.25536 0.23986 0.22487 0.20738 0.19239 0.1774 0.16241 0.14991 0.13742 0.12243 0.11244 0.10244 0.0899 0.0799 0.07 0.06 0.0525 0.0475 0.04 0.0325 0.0275 0.025 0.025 0.025 0 0 0 0"
     style="fill:#ffcc00;fill-rule:evenodd;stroke-width:6.63706112"
     id="path193"
     inkscape:connector-curvature="0" />
  <path
     inkscape:connector-curvature="0"
     style="fill:#282642;fill-opacity:1;fill-rule:evenodd;stroke:#000000;stroke-width:0;stroke-linecap:butt;stroke-linejoin:miter;stroke-miterlimit:4;stroke-dasharray:none"
     d="M 51.176718,34.936309 C 43.038997,58.854382 39.951767,82.76899 26.764608,106.68631 -38.316315,240.48443 102.85293,297.96315 143.62203,246.2117 l -4.71875,-11.07226 -7.64258,-17.9375 C 34.529388,278.55998 -41.291403,98.96454 112.82906,85.52615 99.361817,58.322212 79.797051,45.100248 51.176718,34.936309 Z M 150.04391,202.35623 c -2.52711,2.40741 -5.05077,4.63416 -7.56446,6.69727 l -3.01758,7.08008 6.76954,15.88476 2.54101,5.96485 c 0.44721,-0.91691 0.87509,-1.85339 1.27149,-2.81836 z"
     id="path2-3" />
  <path
     inkscape:connector-curvature="0"
     style="fill:#ff4c60;fill-opacity:1;fill-rule:evenodd;stroke:#000000;stroke-width:0;stroke-linecap:butt;stroke-linejoin:miter;stroke-miterlimit:4;stroke-dasharray:none"
     d="M 248.8232,34.936309 C 220.20286,45.100248 200.63811,58.322212 187.17086,85.52615 341.2906,98.96448 265.46987,278.5574 168.73922,217.20194 l -7.64453,17.9375 -4.7168,11.07031 C 197.14575,297.9633 338.31674,240.48547 273.23531,106.68631 260.04815,82.76899 256.96092,58.854382 248.8232,34.936309 Z M 149.95601,202.35623 v 32.8086 c 0.3964,0.96497 0.82428,1.90145 1.27149,2.81836 l 2.54101,-5.96485 6.76758,-15.88476 -3.01562,-7.07813 c -2.51436,-2.06357 -5.03666,-4.29116 -7.56446,-6.69922 z"
     id="path2" />
  <path
     inkscape:connector-curvature="0"
     style="color:#000000;font-style:normal;font-variant:normal;font-weight:normal;font-stretch:normal;font-size:medium;line-height:normal;font-family:sans-serif;font-variant-ligatures:normal;font-variant-position:normal;font-variant-caps:normal;font-variant-numeric:normal;font-variant-alternates:normal;font-feature-settings:normal;text-indent:0;text-align:start;text-decoration:none;text-decoration-line:none;text-decoration-style:solid;text-decoration-color:#000000;letter-spacing:normal;word-spacing:normal;text-transform:none;writing-mode:lr-tb;direction:ltr;text-orientation:mixed;dominant-baseline:auto;baseline-shift:baseline;text-anchor:start;white-space:normal;shape-padding:0;clip-rule:nonzero;display:inline;overflow:visible;visibility:visible;opacity:1;isolation:auto;mix-blend-mode:normal;color-interpolation:sRGB;color-interpolation-filters:linearRGB;solid-color:#000000;solid-opacity:1;vector-effect:none;fill:#ff4c60;fill-opacity:1;fill-rule:nonzero;stroke:none;stroke-width:12.74249268;stroke-linecap:butt;stroke-linejoin:miter;stroke-miterlimit:4;stroke-dasharray:none;stroke-dashoffset:0;stroke-opacity:1;color-rendering:auto;image-rendering:auto;shape-rendering:auto;text-rendering:auto;enable-background:accumulate"
     d="m 96.045858,128.55936 c -14.197638,-1e-5 -25.354744,8.81993 -30.005859,20.04883 -4.651116,11.22889 -2.997445,25.35292 7.041015,35.39062 9.275596,9.2749 23.275111,12.06006 35.394536,7.04102 12.11943,-5.01905 20.05043,-16.88665 20.05078,-30.00391 4.6e-4,-17.86128 -14.61842,-32.47656 -32.480472,-32.47656 z m 11.679692,6.67969 c 6.77638,0 12.31063,5.53439 12.31054,12.31054 -5e-5,4.06035 -1.88382,7.44166 -4.6289,9.6211 0.24389,1.24896 0.37503,2.54021 0.375,3.86523 -2.1e-4,7.99948 -4.79191,15.16934 -12.1836,18.23047 -7.391656,3.06113 -15.850359,1.37968 -21.50781,-4.27734 -6.407193,-6.40671 -7.152509,-14.56453 -4.277344,-21.50586 2.875165,-6.94133 9.169268,-12.18164 18.232422,-12.18164 0.354927,0 0.706569,0.009 1.056641,0.0273 2.055532,-3.51503 5.876251,-6.08984 10.623051,-6.08984 z m 0,3.76367 c -2.8113,0 -5.02552,1.20128 -6.51172,2.99414 5.86179,1.56452 10.61517,5.71303 12.96484,11.19336 1.27903,-1.43284 2.09372,-3.33347 2.09375,-5.64063 6e-5,-4.74257 -3.80381,-8.54687 -8.54687,-8.54687 z"
     id="path34" />
  <path
     d="m 107.72522,137.12052 a 10.428814,10.428151 0 0 1 10.42881,10.42829 10.428814,10.428151 0 1 1 -10.42881,-10.42829 z"
     style="fill:#ff4c60;fill-opacity:1;fill-rule:evenodd;stroke:#ffffff;stroke-width:0;stroke-linecap:butt;stroke-linejoin:miter;stroke-miterlimit:4;stroke-dasharray:none"
     id="path38"
     inkscape:connector-curvature="0" />
  <path
     inkscape:connector-curvature="0"
     style="color:#000000;font-style:normal;font-variant:normal;font-weight:normal;font-stretch:normal;font-size:medium;line-height:normal;font-family:sans-serif;font-variant-ligatures:normal;font-variant-position:normal;font-variant-caps:normal;font-variant-numeric:normal;font-variant-alternates:normal;font-feature-settings:normal;text-indent:0;text-align:start;text-decoration:none;text-decoration-line:none;text-decoration-style:solid;text-decoration-color:#000000;letter-spacing:normal;word-spacing:normal;text-transform:none;writing-mode:lr-tb;direction:ltr;text-orientation:mixed;dominant-baseline:auto;baseline-shift:baseline;text-anchor:start;white-space:normal;shape-padding:0;clip-rule:nonzero;display:inline;overflow:visible;visibility:visible;opacity:1;isolation:auto;mix-blend-mode:normal;color-interpolation:sRGB;color-interpolation-filters:linearRGB;solid-color:#000000;solid-opacity:1;vector-effect:none;fill:#282642;fill-opacity:1;fill-rule:nonzero;stroke:none;stroke-width:12.74249268;stroke-linecap:butt;stroke-linejoin:miter;stroke-miterlimit:4;stroke-dasharray:none;stroke-dashoffset:0;stroke-opacity:1;color-rendering:auto;image-rendering:auto;shape-rendering:auto;text-rendering:auto;enable-background:accumulate"
     d="m 203.95797,128.55936 c -14.19764,0 -25.35475,8.81799 -30.00586,20.04687 -4.65111,11.22891 -2.99745,25.35488 7.04101,35.39258 9.2756,9.2749 23.27317,12.06006 35.39258,7.04102 12.11943,-5.01905 20.05044,-16.88665 20.05078,-30.00391 4.7e-4,-17.86128 -14.61646,-32.47657 -32.47851,-32.47656 z m 8.8164,5.13477 c 6.77657,-4.2e-4 12.31048,5.53421 12.31055,12.31054 3e-5,3.05437 -1.06539,5.7236 -2.76172,7.78711 0.8746,2.24064 1.37116,4.67761 1.3711,7.24414 -2.1e-4,7.99948 -4.79192,15.16934 -12.1836,18.23047 -7.39166,3.06113 -15.85036,1.37773 -21.50781,-4.2793 -6.40719,-6.4067 -7.15446,-14.56257 -4.2793,-21.5039 2.58832,-6.2488 7.95726,-11.10602 15.61328,-12.01563 0.0228,-0.0574 0.0408,-0.11675 0.0645,-0.17383 1.76514,-4.2623 5.96917,-7.59927 11.37304,-7.5996 z m 0,3.76367 c -3.2698,2e-4 -5.73448,1.62094 -7.17773,3.91601 6.18573,0.49871 11.52721,3.79103 14.77148,8.63477 0.60034,-1.15096 0.9551,-2.48873 0.95508,-4.00391 -5e-5,-4.7427 -3.80563,-8.54717 -8.54883,-8.54687 z"
     id="path42" />
  <path
     d="m 212.77464,135.57615 a 10.428814,10.428151 0 0 1 10.42946,10.42804 10.428814,10.428151 0 1 1 -10.42946,-10.42804 z"
     style="fill:#282642;fill-opacity:1;fill-rule:evenodd;stroke:#ffffff;stroke-width:0;stroke-linecap:butt;stroke-linejoin:miter;stroke-miterlimit:4;stroke-dasharray:none"
     id="path46"
     inkscape:connector-curvature="0" />
  <path
     inkscape:connector-curvature="0"
     style="color:#000000;font-style:normal;font-variant:normal;font-weight:normal;font-stretch:normal;font-size:medium;line-height:normal;font-family:sans-serif;font-variant-ligatures:normal;font-variant-position:normal;font-variant-caps:normal;font-variant-numeric:normal;font-variant-alternates:normal;font-feature-settings:normal;text-indent:0;text-align:start;text-decoration:none;text-decoration-line:none;text-decoration-style:solid;text-decoration-color:#000000;letter-spacing:normal;word-spacing:normal;text-transform:none;writing-mode:lr-tb;direction:ltr;text-orientation:mixed;dominant-baseline:auto;baseline-shift:baseline;text-anchor:start;white-space:normal;shape-padding:0;clip-rule:nonzero;display:inline;overflow:visible;visibility:visible;opacity:1;isolation:auto;mix-blend-mode:normal;color-interpolation:sRGB;color-interpolation-filters:linearRGB;solid-color:#000000;solid-opacity:1;vector-effect:none;fill:#282642;fill-opacity:1;fill-rule:nonzero;stroke:none;stroke-width:15.92961121;stroke-linecap:butt;stroke-linejoin:miter;stroke-miterlimit:4;stroke-dasharray:none;stroke-dashoffset:0;stroke-opacity:1;color-rendering:auto;image-rendering:auto;shape-rendering:auto;text-rendering:auto;enable-background:accumulate"
     d="m 213.18453,99.74295 -2.31641,1.0625 -20.19726,9.25977 -39.18555,17.96289 -1.26953,2.21289 c -0.0806,0.14035 -0.13534,0.29645 -0.21484,0.4375 -0.0695,-0.12332 -0.11716,-0.26003 -0.1875,-0.38281 l -1.26953,-2.2168 -2.32227,-1.06446 -36.9707,-16.94921 -22.496098,-10.3125 -2.507812,0.48437 c -28.570984,5.51603 -50.130859,30.718 -50.130859,60.79883 0,34.10749 27.821569,61.92774 61.929687,61.92774 13.937832,0 26.810192,-4.65839 37.169922,-12.48633 l 5.6875,-13.34961 7.43359,-17.44336 3.66407,-8.59766 11.09375,26.04102 5.6875,13.34766 c 10.35986,7.82921 23.23353,12.48828 37.17187,12.48828 34.10928,0 61.92774,-27.82049 61.92774,-61.92774 0,-30.10385 -21.59042,-55.32102 -50.19336,-60.8125 z m 1.69336,16.74805 c 20.09294,4.91311 35.07422,22.84135 35.07422,44.54492 0,25.49867 -20.49721,45.99805 -45.99805,45.99805 -25.45612,0 -45.92188,-20.43859 -45.98633,-45.88086 8e-5,-0.0395 0.006,-0.0776 0.006,-0.11719 0,-0.045 -0.01,-0.0878 -0.01,-0.13281 0.0213,-7.46542 1.87462,-14.42159 5.02929,-20.62695 l 34.31651,-15.73048 z m -129.808594,0.0137 17.542964,8.04101 34.41602,15.77735 c 3.14116,6.19356 4.98657,13.13237 5.00781,20.58008 -9e-5,0.045 -0.01,0.0878 -0.01,0.13281 0,0.0395 0.006,0.0777 0.006,0.11719 -0.0644,25.44251 -20.52792,45.88086 -45.986332,45.88086 -25.499294,0 -46,-20.49962 -46,-45.99805 0,-21.68373 14.958069,-39.60023 35.023438,-44.53125 z"
     id="path99" />
  <path
     d="m 150.00017,181.24454 7.43218,17.44477 7.43285,17.44477 -7.43285,17.44428 -7.43218,17.44477 -7.43285,-17.44477 -7.43285,-17.44428 7.43285,-17.44477 z"
     style="fill:#ff4c60;fill-opacity:1;fill-rule:evenodd;stroke:#000000;stroke-width:0;stroke-linecap:butt;stroke-linejoin:miter;stroke-miterlimit:4;stroke-dasharray:none"
     id="path127"
     inkscape:connector-curvature="0" />
  <path
     d="m 93.893787,96.84224 c 13.420803,-3.70089 43.118343,-2.67622 44.225383,0.75332 l 7.37776,22.90515 z"
     style="fill:#ff4c60;fill-opacity:1;fill-rule:evenodd;stroke:#000000;stroke-width:0;stroke-linecap:butt;stroke-linejoin:miter;stroke-miterlimit:4;stroke-dasharray:none"
     id="path195"
     inkscape:connector-curvature="0" />
  <path
     d="m 206.10601,96.84224 c -13.42012,-3.70089 -43.11766,-2.67622 -44.22473,0.75332 l -7.3784,22.90515 z"
     style="fill:#282642;fill-opacity:1;fill-rule:evenodd;stroke:#000000;stroke-width:0;stroke-linecap:butt;stroke-linejoin:miter;stroke-miterlimit:4;stroke-dasharray:none"
     id="path197"
     inkscape:connector-curvature="0" />
</svg>
