<?xml version="1.0" encoding="UTF-8" standalone="no"?>
<!-- Created with Inkscape (http://www.inkscape.org/) -->

<svg
   width="146.90456mm"
   height="120.63255mm"
   viewBox="0 0 146.90456 120.63255"
   version="1.1"
   id="svg5"
   sodipodi:docname="humanooid-fav-head.svg"
   xml:space="preserve"
   inkscape:version="1.2.2 (b0a8486541, 2022-12-01)"
   xmlns:inkscape="http://www.inkscape.org/namespaces/inkscape"
   xmlns:sodipodi="http://sodipodi.sourceforge.net/DTD/sodipodi-0.dtd"
   xmlns="http://www.w3.org/2000/svg"
   xmlns:svg="http://www.w3.org/2000/svg"><sodipodi:namedview
     id="namedview7"
     pagecolor="#ffffff"
     bordercolor="#000000"
     borderopacity="0.25"
     inkscape:showpageshadow="2"
     inkscape:pageopacity="0.0"
     inkscape:pagecheckerboard="0"
     inkscape:deskcolor="#d1d1d1"
     inkscape:document-units="mm"
     showgrid="false"
     inkscape:zoom="1.1253621"
     inkscape:cx="145.73087"
     inkscape:cy="216.8191"
     inkscape:window-width="1366"
     inkscape:window-height="697"
     inkscape:window-x="-8"
     inkscape:window-y="-8"
     inkscape:window-maximized="1"
     inkscape:current-layer="layer1" /><defs
     id="defs2"><circle
       r="75"
       cy="75"
       cx="75"
       id="path-1" /><circle
       r="75"
       cy="75"
       cx="75"
       id="path-1-3" /></defs><g
     inkscape:label="Layer 1"
     inkscape:groupmode="layer"
     id="layer1"
     transform="translate(-35.510045,-102.83266)"><ellipse
       style="fill:#353339;fill-opacity:1;stroke:none;stroke-width:0.339973;stroke-opacity:1"
       id="path4658"
       cx="109.25771"
       cy="167.79071"
       inkscape:label="path4658"
       ry="36.238819"
       rx="54.228504" /><path
       d="m 108.94372,139.47217 v 0.50261 0.48711 0.47118 0.45631 0.44124 0.42721 0.4118 0.39779 0.38407 0.37027 0.35665 0.34369 0.33061 0.31794 0.3053 0.29307 0.28209 0.26914 0.25773 0.2474 0.23581 0.22525 0.2146 0.20481 0.19383 0.18519 0.17526 0.16588 0.15746 0.14784 0.13984 0.13192 0.12329 0.11684 0.10778 0.10127 0.0949 0.0874 0.0812 0.0749 0.0684 0.0632 0.0579 0.0516 0.0475 0.0431 0.0379 0.0337 0.0295 0.0254 0.0222 0.02 0.0169 0.0138 0.0115 0.01 0.01 0.01 0 0 0 0"
       style="fill:#ffcc00;fill-rule:evenodd;stroke-width:2.80131"
       id="path193-3"
       inkscape:connector-curvature="0" /><path
       inkscape:connector-curvature="0"
       style="opacity:1;fill:#b3b3b3;fill-opacity:1;fill-rule:evenodd;stroke:none;stroke-width:4.01174;stroke-linecap:butt;stroke-linejoin:miter;stroke-miterlimit:4;stroke-dasharray:none;stroke-opacity:1"
       d="m 67.251982,114.58401 c -3.434689,10.0951 -4.737717,20.18873 -10.30362,30.28352 -27.468703,56.47215 32.114596,80.7322 49.322018,58.88948 l -1.99165,-4.67328 -3.2257,-7.57088 C 60.225642,217.41025 28.223963,141.6084 93.273584,135.93647 87.589466,124.4545 79.331763,118.87391 67.251982,114.58401 Z m 41.728878,70.66292 c -1.06662,1.01609 -2.13178,1.95593 -3.19274,2.8267 l -1.27363,2.98831 2.85722,6.70447 1.07249,2.51758 c 0.18874,-0.38699 0.36935,-0.78226 0.53666,-1.18955 z"
       id="path2-3-6" /><path
       inkscape:connector-curvature="0"
       style="opacity:1;fill:#ffc032;fill-opacity:1;fill-rule:evenodd;stroke:none;stroke-width:4.01174;stroke-linecap:butt;stroke-linejoin:miter;stroke-miterlimit:4;stroke-dasharray:none;stroke-opacity:1"
       d="m 150.67263,114.58401 c -12.07979,4.2899 -20.33747,9.87049 -26.0216,21.35246 65.04932,5.6719 33.04767,81.47269 -7.77944,55.57638 l -3.22653,7.57088 -1.99082,4.67245 c 17.20688,21.84361 76.79092,-2.41605 49.32201,-58.88865 -5.5659,-10.09479 -6.86894,-20.18842 -10.30362,-30.28352 z m -41.72888,70.66292 v 13.84751 c 0.16732,0.40729 0.34791,0.80256 0.53666,1.18955 l 1.07248,-2.51758 2.85639,-6.70447 -1.27278,-2.98748 c -1.06126,-0.87096 -2.12585,-1.81116 -3.19275,-2.82753 z"
       id="path2-7" /><path
       inkscape:connector-curvature="0"
       style="color:#000000;font-style:normal;font-variant:normal;font-weight:normal;font-stretch:normal;font-size:medium;line-height:normal;font-family:sans-serif;font-variant-ligatures:normal;font-variant-position:normal;font-variant-caps:normal;font-variant-numeric:normal;font-variant-alternates:normal;font-feature-settings:normal;text-indent:0;text-align:start;text-decoration:none;text-decoration-line:none;text-decoration-style:solid;text-decoration-color:#000000;letter-spacing:normal;word-spacing:normal;text-transform:none;writing-mode:lr-tb;direction:ltr;text-orientation:mixed;dominant-baseline:auto;baseline-shift:baseline;text-anchor:start;white-space:normal;shape-padding:0;clip-rule:nonzero;display:inline;overflow:visible;visibility:visible;isolation:auto;mix-blend-mode:normal;color-interpolation:sRGB;color-interpolation-filters:linearRGB;solid-color:#000000;solid-opacity:1;vector-effect:none;fill:#ffc032;fill-opacity:1;fill-rule:nonzero;stroke:none;stroke-width:5.37823;stroke-linecap:butt;stroke-linejoin:miter;stroke-miterlimit:4;stroke-dasharray:none;stroke-dashoffset:0;stroke-opacity:1;color-rendering:auto;image-rendering:auto;shape-rendering:auto;text-rendering:auto;enable-background:accumulate"
       d="m 86.189898,154.09949 c -5.992396,-1e-5 -10.701474,3.72263 -12.664573,8.46199 -1.963094,4.73939 -1.265129,10.70072 2.971804,14.93732 3.914949,3.91466 9.823725,5.0902 14.938969,2.97181 5.115248,-2.11838 8.462677,-7.12734 8.462829,-12.66374 1.95e-4,-7.53873 -6.169993,-13.70738 -13.709029,-13.70738 z m 4.929648,2.81928 c 2.860107,0 5.195946,2.33591 5.19591,5.19592 -2.1e-5,1.71375 -0.795105,3.1409 -1.953721,4.06077 0.102939,0.52715 0.158289,1.07215 0.158277,1.63141 -8.8e-5,3.37634 -2.022521,6.40251 -5.142333,7.69453 -3.119794,1.29201 -6.68996,0.58232 -9.0778,-1.80534 -2.704283,-2.70409 -3.018861,-6.14726 -1.805337,-9.07699 1.213518,-2.92972 3.870073,-5.14149 7.695356,-5.14149 0.149805,0 0.298223,0.003 0.445977,0.0115 0.867578,-1.48358 2.480189,-2.57034 4.483671,-2.57034 z m 0,1.58854 c -1.186566,0 -2.121122,0.50702 -2.748402,1.26372 2.474085,0.66035 4.480344,2.41133 5.472069,4.7244 0.539841,-0.60476 0.883697,-1.40697 0.883709,-2.38074 2.7e-5,-2.00169 -1.605473,-3.60738 -3.607376,-3.60738 z"
       id="path34-5" /><path
       d="m 91.13156,156.85773 a 5.4112336,5.4108896 0 0 1 5.41123,5.41097 5.4112336,5.4108896 0 1 1 -5.41123,-5.41097 z"
       style="fill:#ffffff;fill-opacity:1;fill-rule:evenodd;stroke:#ffffff;stroke-width:0;stroke-linecap:butt;stroke-linejoin:miter;stroke-miterlimit:4;stroke-dasharray:none"
       id="path38-3"
       inkscape:connector-curvature="0" /><path
       inkscape:connector-curvature="0"
       style="color:#000000;font-style:normal;font-variant:normal;font-weight:normal;font-stretch:normal;font-size:medium;line-height:normal;font-family:sans-serif;font-variant-ligatures:normal;font-variant-position:normal;font-variant-caps:normal;font-variant-numeric:normal;font-variant-alternates:normal;font-feature-settings:normal;text-indent:0;text-align:start;text-decoration:none;text-decoration-line:none;text-decoration-style:solid;text-decoration-color:#000000;letter-spacing:normal;word-spacing:normal;text-transform:none;writing-mode:lr-tb;direction:ltr;text-orientation:mixed;dominant-baseline:auto;baseline-shift:baseline;text-anchor:start;white-space:normal;shape-padding:0;clip-rule:nonzero;display:inline;overflow:visible;visibility:visible;isolation:auto;mix-blend-mode:normal;color-interpolation:sRGB;color-interpolation-filters:linearRGB;solid-color:#000000;solid-opacity:1;vector-effect:none;fill:#b3b3b3;fill-opacity:1;fill-rule:nonzero;stroke:none;stroke-width:5.37823;stroke-linecap:butt;stroke-linejoin:miter;stroke-miterlimit:4;stroke-dasharray:none;stroke-dashoffset:0;stroke-opacity:1;color-rendering:auto;image-rendering:auto;shape-rendering:auto;text-rendering:auto;enable-background:accumulate"
       d="m 131.73636,154.09949 c -5.99239,0 -10.70148,3.7218 -12.66458,8.46118 -1.96309,4.73937 -1.26513,10.70153 2.97182,14.93813 3.91494,3.91466 9.82289,5.0902 14.93814,2.97181 5.11525,-2.11838 8.46268,-7.12734 8.46282,-12.66374 2.1e-4,-7.53873 -6.16916,-13.70739 -13.7082,-13.70738 z m 3.72114,2.16722 c 2.86019,-1.7e-4 5.19589,2.33583 5.19591,5.1959 1e-5,1.28917 -0.44967,2.41577 -1.16564,3.28671 0.36915,0.94572 0.57874,1.97429 0.57871,3.05755 -9e-5,3.37634 -2.02253,6.40251 -5.14233,7.69453 -3.11981,1.29201 -6.68996,0.58149 -9.0778,-1.80618 -2.70429,-2.70407 -3.01969,-6.14642 -1.80618,-9.07615 1.09247,-2.63743 3.35853,-4.6875 6.58992,-5.07144 0.009,-0.0242 0.0172,-0.0492 0.0272,-0.0734 0.74501,-1.79899 2.5194,-3.20742 4.80021,-3.20756 z m 0,1.58853 c -1.38009,9e-5 -2.42035,0.68415 -3.0295,1.65283 2.61081,0.21048 4.86527,1.60009 6.23459,3.64448 0.25339,-0.48578 0.40314,-1.05041 0.40312,-1.68994 -3e-5,-2.00174 -1.60624,-3.6075 -3.60821,-3.60737 z"
       id="path42-5" /><path
       d="m 135.63729,156.0564 a 5.4112336,5.4108896 0 0 1 5.41157,5.41082 5.4112336,5.4108896 0 1 1 -5.41157,-5.41082 z"
       style="fill:#ffffff;fill-opacity:0.941176;fill-rule:evenodd;stroke:#ffffff;stroke-width:0;stroke-linecap:butt;stroke-linejoin:miter;stroke-miterlimit:4;stroke-dasharray:none"
       id="path46-6"
       inkscape:connector-curvature="0" /><path
       inkscape:connector-curvature="0"
       style="color:#000000;font-style:normal;font-variant:normal;font-weight:normal;font-stretch:normal;font-size:medium;line-height:normal;font-family:sans-serif;font-variant-ligatures:normal;font-variant-position:normal;font-variant-caps:normal;font-variant-numeric:normal;font-variant-alternates:normal;font-feature-settings:normal;text-indent:0;text-align:start;text-decoration:none;text-decoration-line:none;text-decoration-style:solid;text-decoration-color:#000000;letter-spacing:normal;word-spacing:normal;text-transform:none;writing-mode:lr-tb;direction:ltr;text-orientation:mixed;dominant-baseline:auto;baseline-shift:baseline;text-anchor:start;white-space:normal;shape-padding:0;clip-rule:nonzero;display:inline;overflow:visible;visibility:visible;isolation:auto;mix-blend-mode:normal;color-interpolation:sRGB;color-interpolation-filters:linearRGB;solid-color:#000000;solid-opacity:1;vector-effect:none;fill:#ffffff;fill-opacity:1;fill-rule:nonzero;stroke:none;stroke-width:6.72341;stroke-linecap:butt;stroke-linejoin:miter;stroke-miterlimit:4;stroke-dasharray:none;stroke-dashoffset:0;stroke-opacity:1;color-rendering:auto;image-rendering:auto;shape-rendering:auto;text-rendering:auto;enable-background:accumulate"
       d="m 135.63061,141.93695 -0.97769,0.44844 -8.52466,3.90826 -16.53904,7.58161 -0.53582,0.93398 c -0.0339,0.0593 -0.0571,0.12513 -0.0907,0.18467 -0.0293,-0.0522 -0.0496,-0.10971 -0.0792,-0.16158 l -0.53582,-0.93563 -0.98016,-0.44929 -15.604223,-7.15376 -9.49493,-4.35259 -1.058471,0.20444 c -12.058955,2.32815 -21.158733,12.96515 -21.158733,25.66137 0,14.39573 11.74265,26.13784 26.138664,26.13784 5.882741,0 11.315777,-1.96617 15.688313,-5.27011 l 2.40051,-5.63447 3.1375,-7.36232 1.54649,-3.62881 4.68236,10.99113 2.40052,5.63365 c 4.37258,3.30447 9.80616,5.27093 15.68913,5.27093 14.39649,0 26.13783,-11.7422 26.13783,-26.13784 0,-12.70595 -9.11267,-23.34934 -21.1851,-25.66714 z m 0.71472,7.06884 c 8.48064,2.07368 14.80378,9.64064 14.80378,18.80108 0,10.76221 -8.65126,19.41439 -19.4144,19.41439 -10.74427,0 -19.38224,-8.62652 -19.40944,-19.36494 3e-5,-0.0167 0.002,-0.0328 0.002,-0.0494 0,-0.019 -0.003,-0.0371 -0.003,-0.0561 0.009,-3.15094 0.79121,-6.08693 2.12271,-8.70602 l 14.48396,-6.63936 z m -54.788309,0.005 7.404359,3.39387 14.52597,6.65915 c 1.32579,2.61411 2.10467,5.54277 2.11365,8.68624 -3e-5,0.019 -0.003,0.0371 -0.003,0.0561 0,0.0167 0.002,0.0327 0.002,0.0494 -0.0272,10.73852 -8.664224,19.36495 -19.409454,19.36495 -10.762485,0 -19.41522,-8.65227 -19.41522,-19.41441 0,-9.15204 6.313353,-16.71406 14.782342,-18.79528 z"
       id="path99-2" /><path
       d="m 108.96235,177.61655 2.33327,6.65484 2.33347,6.65485 -2.33347,6.65466 -2.33327,6.65486 -2.33346,-6.65486 -2.33347,-6.65466 2.33347,-6.65485 z"
       style="fill:#ffc032;fill-opacity:1;fill-rule:evenodd;stroke:#353339;stroke-width:1.15571;stroke-linecap:butt;stroke-linejoin:miter;stroke-miterlimit:4;stroke-dasharray:none;stroke-opacity:1"
       id="path127-9"
       inkscape:connector-curvature="0" /><path
       d="m 85.281575,140.71264 c 5.664517,-1.56203 18.198955,-1.12955 18.666195,0.31796 l 3.11395,9.66757 z"
       style="fill:#ffc032;fill-opacity:1;fill-rule:evenodd;stroke:#000000;stroke-width:0;stroke-linecap:butt;stroke-linejoin:miter;stroke-miterlimit:4;stroke-dasharray:none"
       id="path195-1"
       inkscape:connector-curvature="0" /><path
       d="m 132.64299,140.71264 c -5.66424,-1.56203 -18.19868,-1.12955 -18.66594,0.31796 l -3.11421,9.66757 z"
       style="fill:#b3b3b3;fill-opacity:1;fill-rule:evenodd;stroke:#000000;stroke-width:0;stroke-linecap:butt;stroke-linejoin:miter;stroke-miterlimit:4;stroke-dasharray:none"
       id="path197-2"
       inkscape:connector-curvature="0" /></g></svg>
