<?xml version="1.0" encoding="UTF-8" standalone="no"?>
<!-- Creator: CorelDRAW 2020 (64-Bit) -->

<svg
   xml:space="preserve"
   width="210"
   height="50"
   version="1.1"
   style="clip-rule:evenodd;fill-rule:evenodd;image-rendering:optimizeQuality;shape-rendering:geometricPrecision;text-rendering:geometricPrecision"
   viewBox="0 0 2187.1751 520.7553"
   id="svg155"
   sodipodi:docname="logo_bar.svg"
   inkscape:version="1.2.2 (732a01da63, 2022-12-09)"
   inkscape:export-filename="partner-logo-2.svg"
   inkscape:export-xdpi="96"
   inkscape:export-ydpi="96"
   xmlns:inkscape="http://www.inkscape.org/namespaces/inkscape"
   xmlns:sodipodi="http://sodipodi.sourceforge.net/DTD/sodipodi-0.dtd"
   xmlns:xlink="http://www.w3.org/1999/xlink"
   xmlns="http://www.w3.org/2000/svg"
   xmlns:svg="http://www.w3.org/2000/svg"><sodipodi:namedview
   id="namedview157"
   pagecolor="#ffffff"
   bordercolor="#000000"
   borderopacity="0.25"
   inkscape:showpageshadow="2"
   inkscape:pageopacity="0.0"
   inkscape:pagecheckerboard="0"
   inkscape:deskcolor="#d1d1d1"
   inkscape:document-units="in"
   showgrid="false"
   inkscape:zoom="2.5005284"
   inkscape:cx="114.37583"
   inkscape:cy="49.189603"
   inkscape:window-width="1366"
   inkscape:window-height="697"
   inkscape:window-x="-8"
   inkscape:window-y="-8"
   inkscape:window-maximized="1"
   inkscape:current-layer="g531" />
 <defs
   id="defs48">
  <style
   type="text/css"
   id="style2">
   <![CDATA[
    .str0 {stroke:black;stroke-width:6.94;stroke-miterlimit:2.61313}
    .fil3 {fill:none}
    .fil0 {fill:black}
    .fil4 {fill:#3A3A3B}
    .fil1 {fill:#BF1E2E}
    .fil7 {fill:white}
    .fil9 {fill:url(#id11)}
    .fil8 {fill:url(#id12)}
    .fil6 {fill:url(#id13)}
    .fil2 {fill:url(#id14)}
    .fil5 {fill:url(#id15)}
   ]]>
  </style>
    <clipPath
   id="id0">
     <path
   d="m 9842.37,6549.47 c -101.48,98.24 -229.28,219.07 -266.15,274.13 l 1278.77,1287.43 c 46.78,43.29 83.21,28.7 167.11,28.29 134.55,-0.71 269.3,-0.06 403.88,-0.06 L 10181.95,6889.05 9842.38,6549.47 Z"
   id="path4" />
    </clipPath>
    <clipPath
   id="id1">
     <path
   d="m 7635.27,7266.48 v -416.85 h -390.78 v 651.32 c 0,38.63 -259.68,279.22 -302.87,322.42 -76.1,76.1 -259.53,241.45 -309.38,315.89 152.19,0 304.44,-0.78 456.59,0.67 111.92,1.07 93.52,-8.84 152.44,-69.01 L 8283.34,7028.76 c 394.27,-394.26 257.1,-335.43 589.46,-335.43 L 7436.67,8136.06 c 160.34,3.2 345.83,12.46 499.21,4.2 72.93,-3.93 63.67,-20.02 145.55,-101.94 L 9646.94,6477.47 c 22.67,-18.09 10.99,-2.29 34.91,-30.23 l 22.06,-36.23 -4.26,-4.26 -410.33,-0.3 H 8393.2 c -53.02,2.54 -50.81,13.91 -90.55,55.44 l -547.3,546.92 c -60.75,89.84 60.29,136.89 -120.09,257.68 z"
   id="path7" />
    </clipPath>
    <clipPath
   id="id2">
     <path
   d="m 9159.36,7566.09 h 260.54 v -208.42 c 0,-30.02 -9.07,-39.09 -39.09,-39.09 h -221.45 z"
   id="path10" />
    </clipPath>
    <clipPath
   id="id3">
     <path
   d="m 9159.36,7865.7 h 221.45 c 30.02,0 39.09,-9.07 39.09,-39.07 v -208.42 h -260.54 z"
   id="path13" />
    </clipPath>
    <clipPath
   id="id4">
     <path
   d="m 9458.97,7566.09 h 247.5 v -247.51 h -247.5 z"
   id="path16" />
    </clipPath>
    <clipPath
   id="id5">
     <path
   d="m 9458.97,7865.7 h 247.5 v -247.49 h -247.5 z"
   id="path19" />
    </clipPath>
     <clipPath
   id="id6">
      <path
   d="M 9116.76,6084.58 7451.37,4416.84 c -28.82,-1.56 -530.05,-12.44 -548.9,-12.44 l 1685.9,1681.02 c 284.28,-2.88 394.06,-2.12 528.39,-0.84 z"
   id="path22" />
     </clipPath>
     <clipPath
   id="id7">
      <path
   d="m 6794.76,4296.81 714.82,2.18 1730.07,1722.26 1727.89,-1719.23 745.85,-13.86 219.83,-221.89 h -1204.1 L 9303.33,5407.87 9190.8,5513.22 7743.85,4066.27 6574.9,4077.3 l 219.85,219.5 z"
   id="path25" />
     </clipPath>
      <clipPath
   id="id8">
       <path
   d="m 6794.76,4296.81 714.82,2.18 1730.07,1722.26 1727.89,-1719.23 745.85,-13.86 219.83,-221.89 h -1204.1 L 9303.33,5407.87 9190.8,5513.22 7743.85,4066.27 6574.9,4077.3 l 219.85,219.5 z"
   id="path28" />
      </clipPath>
      <clipPath
   id="id9">
       <path
   d="m 6794.76,4296.81 714.82,2.18 1730.07,1722.26 1727.89,-1719.23 745.85,-13.86 219.83,-221.89 h -1204.1 L 9303.33,5407.87 9190.8,5513.22 7743.85,4066.27 6574.9,4077.3 l 219.85,219.5 z"
   id="path31" />
      </clipPath>
     <clipPath
   id="id10">
      <path
   d="m 9366.23,6084.58 1665.39,-1667.74 c 28.82,-1.56 530.05,-12.44 548.91,-12.44 l -1685.9,1681.02 c -284.28,-2.88 -394.06,-2.12 -528.39,-0.84 z"
   id="path34" />
     </clipPath>
  <linearGradient
   id="id11"
   gradientUnits="userSpaceOnUse"
   x1="12471.34"
   y1="3720.6001"
   x2="6324.3599"
   y2="-3653.55">
   <stop
   offset="0"
   style="stop-opacity:1; stop-color:#F3DC84"
   id="stop37" />
   <stop
   offset="0.290196"
   style="stop-opacity:1; stop-color:#B89E62"
   id="stop39" />
   <stop
   offset="1"
   style="stop-opacity:1; stop-color:#7D5F3F"
   id="stop41" />
  </linearGradient>
  <linearGradient
   id="id12"
   gradientUnits="userSpaceOnUse"
   xlink:href="#id11"
   x1="35360.051"
   y1="-9228.7598"
   x2="-52165.969"
   y2="-79555.867">
  </linearGradient>
  <linearGradient
   id="id13"
   gradientUnits="userSpaceOnUse"
   xlink:href="#id11"
   x1="11739.87"
   y1="3720.6299"
   x2="5592.8599"
   y2="-3653.55">
  </linearGradient>
  <linearGradient
   id="id14"
   gradientUnits="userSpaceOnUse"
   xlink:href="#id11"
   x1="32633.199"
   y1="-23960.289"
   x2="-7805.0098"
   y2="24550.68">
  </linearGradient>
  <linearGradient
   id="id15"
   gradientUnits="userSpaceOnUse"
   xlink:href="#id11"
   x1="9624.1992"
   y1="4352.4766"
   x2="3650.4695"
   y2="9857.7578"
   gradientTransform="scale(1.0290078,0.97180996)">
  </linearGradient>
 
   
   
   
   
   
   
   
   
   
   
   
   
   
   
   
   
   
   
   
  
    
    
    
    
    
    
    
    
    
   </defs>
 <g
   id="Layer_x0020_1"
   inkscape:label="Original"
   inkscape:groupmode="layer"
   style="display:none"
   sodipodi:insensitive="true">
  <metadata
   id="CorelCorpID_0Corel-Layer" />
  
  
 <text
   xml:space="preserve"
   style="font-size:2105.95px;text-align:center;text-anchor:middle;fill:#a88c56;fill-opacity:1;stroke:none;stroke-width:16.8476;stroke-linecap:round;stroke-linejoin:round;stroke-dasharray:none;stroke-opacity:1"
   x="12573.083"
   y="7378.4961"
   id="text8258"><tspan
     sodipodi:role="line"
     id="tspan8256"
     style="font-style:normal;font-variant:normal;font-weight:bold;font-stretch:normal;font-family:Ebrima;-inkscape-font-specification:'Ebrima Bold';stroke:none;stroke-width:16.8476"
     x="12573.083"
     y="7378.4961" /></text><g
   id="g407"><g
     clip-path="url(#id0)"
     id="g58"
     transform="matrix(0.11522316,0,0,0.13659464,-696.06216,-530.30507)"
     style="fill:#a88c56;fill-opacity:1;stroke:#000000;stroke-width:0.714792;stroke-dasharray:none;stroke-opacity:1">
    <g
   id="g56"
   style="fill:#a88c56;fill-opacity:1;stroke:#000000;stroke-width:0.714792;stroke-dasharray:none;stroke-opacity:1">
     <path
   id="1"
   class="fil2"
   d="m -19875.37,-10644.94 v 63591.11 c 1923.56,-10619.79 5715.12,-20593.3 10729.77,-26794.19 v 0 C 2806.19,11373.74 17054.79,25195.1 33637.72,11478.17 v 0 C 42032.45,4534.65 45829.67,-3674.28 47458.57,-10644.95 v 0 h -67333.94 z"
   style="fill:#a88c56;fill-opacity:1;stroke:#000000;stroke-width:0.714792;stroke-dasharray:none;stroke-opacity:1" />
    <path
   id="path8146"
   class="fil2"
   d="m -19875.37,-10644.94 v 63591.11 c 1923.56,-10619.79 5715.12,-20593.3 10729.77,-26794.19 v 0 C 2806.19,11373.74 17054.79,25195.1 33637.72,11478.17 v 0 C 42032.45,4534.65 45829.67,-3674.28 47458.57,-10644.95 v 0 h -67333.94 z"
   style="fill:#a88c56;fill-opacity:1;stroke:#000000;stroke-width:0.714792;stroke-dasharray:none;stroke-opacity:1" /></g>
   </g><path
     class="fil3"
     d="m 438.00716,364.31777 c -11.69281,13.4191 -26.41837,29.92395 -30.66665,37.44485 l 147.34394,175.85636 c 5.39013,5.91319 9.58774,3.92034 19.25498,3.86419 15.50324,-0.0962 31.02964,0 46.53631,0 L 477.13463,410.71101 438.00837,364.32599 Z"
     id="path60"
     style="stroke-width:0.0896752;stroke-dasharray:none" /><g
     clip-path="url(#id1)"
     id="g68"
     transform="matrix(0.10596369,0,0,0.13659464,-607.81365,-530.30507)"
     style="fill:#a88c56;fill-opacity:1;stroke:#000000;stroke-width:0.714792;stroke-dasharray:none;stroke-opacity:1">
    <g
   id="g66"
   style="fill:#a88c56;fill-opacity:1;stroke:#000000;stroke-width:0.714792;stroke-dasharray:none;stroke-opacity:1">
     <path
   id="path64"
   class="fil5"
   d="m 1921.55,4229.78 v 9666.48 c 292.4,-1614.31 868.75,-3130.39 1631.03,-4072.99 v 0 C 5369.37,7576.83 7535.3,9677.82 10056.07,7592.71 v 0 c 1276.08,-1055.49 1853.29,-2303.33 2100.9,-3362.93 v 0 z"
   style="fill:#a88c56;fill-opacity:1;stroke:#000000;stroke-width:0.714792;stroke-dasharray:none;stroke-opacity:1" />
    </g>
   </g><path
     class="fil3"
     d="m 208.0952,462.25783 v -56.93976 h -40.11492 v 88.96702 c 0,5.27664 -26.65706,38.14014 -31.09068,44.0409 -7.81191,10.39492 -26.64167,32.98099 -31.75891,43.14916 15.62281,0 31.25183,-0.10629 46.87052,0.0921 11.48902,0.14638 9.60017,-1.20752 15.64854,-9.42629 l 106.97209,-142.3538 c 40.47318,-53.85384 26.39221,-45.81791 60.51012,-45.81791 L 187.70821,581.03867 c 16.45947,0.43725 35.50069,1.70194 51.24569,0.5738 7.48648,-0.53691 6.53591,-2.73468 14.94117,-13.9245 L 414.60014,354.48303 c 2.3272,-2.47102 1.12817,-0.31273 3.58368,-4.12926 l 2.26449,-4.94883 -0.43732,-0.5818 -42.12179,-0.0421 h -91.98985 c -5.44266,0.34706 -5.21581,1.90004 -9.29524,7.57286 l -56.18229,74.70649 c -6.23619,12.27165 6.18899,18.69852 -12.32766,35.19769 z"
     id="path70"
     style="stroke-width:0.0846425;stroke-dasharray:none" /><path
     class="fil4"
     d="m 364.54836,496.79671 h 26.74534 v -23.09909 c 0,-3.3271 -0.93107,-4.33227 -4.01271,-4.33227 h -22.73263 z"
     id="path72"
     style="fill:#a88c56;fill-opacity:1;stroke:#000000;stroke-width:0.076243;stroke-dasharray:none;stroke-opacity:1" /><g
     clip-path="url(#id2)"
     id="g78"
     transform="matrix(0.1026535,0,0,0.11082937,-575.69194,-341.74857)"
     style="fill:#a88c56;fill-opacity:1;stroke:#000000;stroke-width:0.714792;stroke-dasharray:none;stroke-opacity:1">
    <g
   id="g76"
   style="fill:#a88c56;fill-opacity:1;stroke:#000000;stroke-width:0.714792;stroke-dasharray:none;stroke-opacity:1">
     <path
   id="path74"
   class="fil5"
   d="m 1921.55,4229.78 v 9666.48 c 292.4,-1614.31 868.75,-3130.39 1631.03,-4072.99 v 0 C 5369.37,7576.83 7535.3,9677.82 10056.07,7592.71 v 0 c 1276.08,-1055.49 1853.29,-2303.33 2100.9,-3362.93 v 0 z"
   style="fill:#a88c56;fill-opacity:1;stroke:#000000;stroke-width:0.714792;stroke-dasharray:none;stroke-opacity:1" />
    </g>
   </g><path
     class="fil3"
     d="m 364.54836,496.79671 h 26.74534 v -23.09909 c 0,-3.3271 -0.93107,-4.33227 -4.01271,-4.33227 h -22.73263 z"
     id="path80"
     style="fill:#a88c56;fill-opacity:1;stroke:#000000;stroke-width:0.076243;stroke-dasharray:none;stroke-opacity:1" /><path
     class="fil4"
     d="m 364.54836,530.00227 h 22.73263 c 3.08164,0 4.01271,-1.0051 4.01271,-4.33009 v -23.09897 h -26.74534 z"
     id="path82"
     style="fill:#a88c56;fill-opacity:1;stroke:#000000;stroke-width:0.076243;stroke-dasharray:none;stroke-opacity:1" /><g
     clip-path="url(#id3)"
     id="g88"
     transform="matrix(0.1026535,0,0,0.11082937,-575.69194,-341.74857)"
     style="fill:#a88c56;fill-opacity:1;stroke:#000000;stroke-width:0.714792;stroke-dasharray:none;stroke-opacity:1">
    <g
   id="g86"
   style="fill:#a88c56;fill-opacity:1;stroke:#000000;stroke-width:0.714792;stroke-dasharray:none;stroke-opacity:1">
     <path
   id="path84"
   class="fil5"
   d="m 1921.55,4229.78 v 9666.48 c 292.4,-1614.31 868.75,-3130.39 1631.03,-4072.99 v 0 C 5369.37,7576.83 7535.3,9677.82 10056.07,7592.71 v 0 c 1276.08,-1055.49 1853.29,-2303.33 2100.9,-3362.93 v 0 z"
   style="fill:#a88c56;fill-opacity:1;stroke:#000000;stroke-width:0.714792;stroke-dasharray:none;stroke-opacity:1" />
    </g>
   </g><path
     class="fil3"
     d="m 364.54836,530.00227 h 22.73263 c 3.08164,0 4.01271,-1.0051 4.01271,-4.33009 v -23.09897 h -26.74534 z"
     id="path90"
     style="fill:#a88c56;fill-opacity:1;stroke:#000000;stroke-width:0.076243;stroke-dasharray:none;stroke-opacity:1" /><polygon
     class="fil4"
     points="9458.97,7566.09 9706.47,7566.09 9706.47,7318.59 9458.97,7318.59 "
     id="polygon92"
     transform="matrix(0.1026535,0,0,0.11082937,-575.69194,-341.74857)"
     style="fill:#a88c56;fill-opacity:1;stroke:#000000;stroke-width:0.714792;stroke-dasharray:none;stroke-opacity:1" /><g
     clip-path="url(#id4)"
     id="g98"
     transform="matrix(0.1026535,0,0,0.11082937,-575.69194,-341.74857)"
     style="fill:#a88c56;fill-opacity:1;stroke:#000000;stroke-width:0.714792;stroke-dasharray:none;stroke-opacity:1">
    <g
   id="g96"
   style="fill:#a88c56;fill-opacity:1;stroke:#000000;stroke-width:0.714792;stroke-dasharray:none;stroke-opacity:1">
     <path
   id="path94"
   class="fil5"
   d="m 1921.55,4229.78 v 9666.48 c 292.4,-1614.31 868.75,-3130.39 1631.03,-4072.99 v 0 C 5369.37,7576.83 7535.3,9677.82 10056.07,7592.71 v 0 c 1276.08,-1055.49 1853.29,-2303.33 2100.9,-3362.93 v 0 z"
   style="fill:#a88c56;fill-opacity:1;stroke:#000000;stroke-width:0.714792;stroke-dasharray:none;stroke-opacity:1" />
    </g>
   </g><polygon
     class="fil3"
     points="9458.97,7566.09 9706.47,7566.09 9706.47,7318.59 9458.97,7318.59 "
     id="polygon100"
     transform="matrix(0.1026535,0,0,0.11082937,-575.69194,-341.74857)"
     style="fill:#a88c56;fill-opacity:1;stroke:#000000;stroke-width:0.714792;stroke-dasharray:none;stroke-opacity:1" /><polygon
     class="fil4"
     points="9458.97,7865.7 9706.47,7865.7 9706.47,7618.21 9458.97,7618.21 "
     id="polygon102"
     transform="matrix(0.1026535,0,0,0.11082937,-575.69194,-341.74857)"
     style="fill:#a88c56;fill-opacity:1;stroke:#000000;stroke-width:0.714792;stroke-dasharray:none;stroke-opacity:1" /><g
     clip-path="url(#id5)"
     id="g108"
     transform="matrix(0.1026535,0,0,0.11082937,-575.69194,-341.74857)"
     style="fill:#a88c56;fill-opacity:1;stroke:#000000;stroke-width:0.714792;stroke-dasharray:none;stroke-opacity:1">
    <g
   id="g106"
   style="fill:#a88c56;fill-opacity:1;stroke:#000000;stroke-width:0.714792;stroke-dasharray:none;stroke-opacity:1">
     <path
   id="path104"
   class="fil5"
   d="m 1921.55,4229.78 v 9666.48 c 292.4,-1614.31 868.75,-3130.39 1631.03,-4072.99 v 0 C 5369.37,7576.83 7535.3,9677.82 10056.07,7592.71 v 0 c 1276.08,-1055.49 1853.29,-2303.33 2100.9,-3362.93 v 0 z"
   style="fill:#a88c56;fill-opacity:1;stroke:#000000;stroke-width:0.714792;stroke-dasharray:none;stroke-opacity:1" />
    </g>
   </g><polygon
     class="fil3"
     points="9458.97,7865.7 9706.47,7865.7 9706.47,7618.21 9458.97,7618.21 "
     id="polygon110"
     transform="matrix(0.1026535,0,0,0.11082937,-575.69194,-341.74857)"
     style="fill:#a88c56;fill-opacity:1;stroke:#000000;stroke-width:0.714792;stroke-dasharray:none;stroke-opacity:1" /><path
     class="fil1"
     d="M 347.87673,317.81249 179.87012,117.12605 c -2.90738,-0.18772 -53.47213,-1.49695 -55.37367,-1.49695 L 294.5721,317.91341 c 28.67853,-0.34647 39.75325,-0.25503 53.30463,-0.10076 z"
     id="path112"
     style="stroke-width:0.11018" /><g
     clip-path="url(#id6)"
     id="g118"
     transform="matrix(0.10088122,0,0,0.1203341,-571.83317,-414.37054)"
     style="fill:#a88c56;fill-opacity:1;stroke:#000000;stroke-opacity:1">
     <g
   id="g116"
   style="fill:#a88c56;fill-opacity:1;stroke:#000000;stroke-opacity:1">
      <path
   id="path114"
   class="fil6"
   d="m 13993.47,8036.99 v -9666.48 c -292.4,1614.32 -868.75,3130.39 -1631.03,4072.99 v 0 C 10545.65,4689.94 8379.72,2588.95 5858.95,4674.06 v 0 C 4582.87,5729.55 4005.65,6977.39 3758.05,8036.99 v 0 z"
   style="fill:#a88c56;fill-opacity:1;stroke:#000000;stroke-opacity:1" />
     </g>
    </g><path
     class="fil3"
     d="M 347.87673,317.81249 179.87012,117.12605 c -2.90738,-0.18772 -53.47213,-1.49695 -55.37367,-1.49695 L 294.5721,317.91341 c 28.67853,-0.34647 39.75325,-0.25503 53.30463,-0.10076 z"
     id="path120"
     style="stroke-width:0.11018" /><polygon
     class="fil7"
     points="10967.55,4302.02 11713.4,4288.17 11933.23,4066.27 10729.13,4066.27 9303.34,5407.87 9190.81,5513.23 7743.86,4066.27 6574.92,4077.31 6794.76,4296.81 7509.58,4298.99 9239.66,6021.25 "
     id="polygon122"
     transform="matrix(0.10088122,0,0,0.1203341,-571.83317,-414.37054)" /><g
     clip-path="url(#id7)"
     id="g137"
     transform="matrix(0.10088122,0,0,0.1203341,-570.53056,-414.37054)"
     style="fill:#cf0000;fill-opacity:1">
     <g
   id="g126"
   style="fill:#cf0000;fill-opacity:1">
      <path
   id="path124"
   class="fil1"
   d="m -2254.68,14049.62 c -1444.95,-936.88 -3264.64,-2089.25 -3789.68,-2614.38 L 12163.75,-842.97 c 666.09,-412.82 1184.86,-273.75 2379.53,-269.76 1915.89,6.74 3834.5,0.56 5750.69,0.56 L 2580.45,10811.11 -2254.67,14049.62 Z"
   style="fill:#cf0000;fill-opacity:1" />
     </g>
     <g
   clip-path="url(#id8)"
   id="g131"
   style="fill:#cf0000;fill-opacity:1">
      <g
   id="g129"
   style="fill:#cf0000;fill-opacity:1">
       <path
   id="2"
   class="fil8"
   d="m -78291.55,31936.62 v -92189.01 c 4163.44,15395.68 12370.03,29854.43 23223.93,38843.95 v 0 C -29198.69,15.8 1641.54,-20021.23 37534.28,-135.6 v 0 C 55704.16,9930.53 63923.02,21831.15 67448.67,31936.62 v 0 z"
   style="fill:#cf0000;fill-opacity:1" />
      <path
   id="path8148"
   class="fil8"
   d="m -78291.55,31936.62 v -92189.01 c 4163.44,15395.68 12370.03,29854.43 23223.93,38843.95 v 0 C -29198.69,15.8 1641.54,-20021.23 37534.28,-135.6 v 0 C 55704.16,9930.53 63923.02,21831.15 67448.67,31936.62 v 0 z"
   style="fill:#cf0000;fill-opacity:1" /></g>
     </g>
     <g
   clip-path="url(#id9)"
   id="g135"
   style="fill:#cf0000;fill-opacity:1">
      <path
   class="fil3"
   d="m -2254.68,14049.62 c -1444.95,-936.88 -3264.64,-2089.25 -3789.68,-2614.38 L 12163.75,-842.97 c 666.09,-412.82 1184.86,-273.75 2379.53,-269.76 1915.89,6.74 3834.5,0.56 5750.69,0.56 L 2580.45,10811.11 -2254.67,14049.62 Z"
   id="path133"
   style="fill:#cf0000;fill-opacity:1" />
     </g>
    </g><polygon
     class="fil3"
     points="10967.55,4302.02 11713.4,4288.17 11933.23,4066.27 10729.13,4066.27 9303.34,5407.87 9190.81,5513.23 7743.86,4066.27 6574.92,4077.31 6794.76,4296.81 7509.58,4298.99 9239.66,6021.25 "
     id="polygon139"
     transform="matrix(0.10088122,0,0,0.1203341,-571.83317,-414.37054)" /><path
     class="fil1"
     d="M 373.04357,317.81249 541.05016,117.12605 c 2.9074,-0.18772 53.47206,-1.49695 55.37471,-1.49695 L 426.34922,317.91341 c -28.67853,-0.34647 -39.75328,-0.25503 -53.30463,-0.10076 z"
     id="path141"
     style="stroke-width:0.11018" /><g
     clip-path="url(#id10)"
     id="g147"
     transform="matrix(0.10088122,0,0,0.1203341,-571.83317,-414.37054)"
     style="fill:#a88c56;fill-opacity:1;stroke:#000000;stroke-opacity:1">
     <g
   id="g145"
   style="fill:#a88c56;fill-opacity:1;stroke:#000000;stroke-opacity:1">
      <path
   id="path143"
   class="fil9"
   d="m 4489.52,8036.99 v -9666.48 c 292.4,1614.32 868.75,3130.39 1631.03,4072.99 v 0 c 1816.79,2246.44 3982.72,145.45 6503.49,2230.56 v 0 c 1276.08,1055.49 1853.3,2303.33 2100.91,3362.93 v 0 z"
   style="fill:#a88c56;fill-opacity:1;stroke:#000000;stroke-opacity:1" />
     </g>
    </g><path
     class="fil3"
     d="M 373.04357,317.81249 541.05016,117.12605 c 2.9074,-0.18772 53.47206,-1.49695 55.37471,-1.49695 L 426.34922,317.91341 c -28.67853,-0.34647 -39.75328,-0.25503 -53.30463,-0.10076 z"
     id="path149"
     style="stroke-width:0.11018" /><text
     xml:space="preserve"
     style="font-size:299.566px;fill:#cf0000;fill-opacity:1;stroke-width:24.9638"
     x="784.10718"
     y="292.65247"
     id="text454"><tspan
       sodipodi:role="line"
       id="tspan452"
       style="font-style:normal;font-variant:normal;font-weight:bold;font-stretch:normal;font-family:Cabin;-inkscape-font-specification:'Cabin Bold';fill:#cf0000;fill-opacity:1;stroke-width:24.9638"
       x="784.10718"
       y="292.65247">X-CORP</tspan></text><text
     xml:space="preserve"
     style="font-size:293.656px;fill:#a88c56;fill-opacity:1;stroke-width:24.4714"
     x="757.95898"
     y="585.12097"
     id="text975"><tspan
       sodipodi:role="line"
       id="tspan973"
       style="font-style:normal;font-variant:normal;font-weight:bold;font-stretch:normal;font-family:Cabin;-inkscape-font-specification:'Cabin Bold';fill:#a88c56;fill-opacity:1;stroke-width:24.4714"
       x="757.95898"
       y="585.12097">PROPERTI</tspan></text><text
     xml:space="preserve"
     style="font-size:134.352px;fill:#a88c56;fill-opacity:1;stroke-width:11.196"
     x="1819.7313"
     y="251.4053"
     id="text1186"
     transform="rotate(1.37119)"><tspan
       sodipodi:role="line"
       id="tspan1184"
       style="font-style:normal;font-variant:normal;font-weight:bold;font-stretch:normal;font-family:Cabin;-inkscape-font-specification:'Cabin Bold';fill:#a88c56;fill-opacity:1;stroke-width:11.196"
       x="1819.7313"
       y="251.4053">.com</tspan></text><rect
     style="fill:#a88c56;stroke-width:10.4151"
     id="rect402"
     width="33.321342"
     height="204.09322"
     x="662.26166"
     y="224.91864" /></g></g><g
   id="g531"
   inkscape:label="Original copy"
   inkscape:groupmode="layer">
  <metadata
   id="metadata409" />
  
  
 <text
   xml:space="preserve"
   style="font-size:2105.95px;text-align:center;text-anchor:middle;fill:#a88c56;fill-opacity:1;stroke:none;stroke-width:16.8476;stroke-linecap:round;stroke-linejoin:round;stroke-dasharray:none;stroke-opacity:1"
   x="12573.083"
   y="7378.4961"
   id="text413"><tspan
     sodipodi:role="line"
     id="tspan411"
     style="font-style:normal;font-variant:normal;font-weight:bold;font-stretch:normal;font-family:Ebrima;-inkscape-font-specification:'Ebrima Bold';stroke:none;stroke-width:16.8476"
     x="12573.083"
     y="7378.4961" /></text><g
   id="g529"
   inkscape:label="g529"
   transform="matrix(0.66960896,0,0,0.66960896,221.81729,73.88277)"><g
     clip-path="url(#id0)"
     id="g421"
     transform="matrix(0.13711537,0,0,0.1625474,-845.68872,-743.01532)"
     style="fill:#a88c56;fill-opacity:1;stroke:#000000;stroke-width:0.714792;stroke-dasharray:none;stroke-opacity:1">
    <g
   id="g419"
   style="fill:#a88c56;fill-opacity:1;stroke:#000000;stroke-width:0.714792;stroke-dasharray:none;stroke-opacity:1">
     <path
   id="path415"
   class="fil2"
   d="m -19875.37,-10644.94 v 63591.11 c 1923.56,-10619.79 5715.12,-20593.3 10729.77,-26794.19 v 0 C 2806.19,11373.74 17054.79,25195.1 33637.72,11478.17 v 0 C 42032.45,4534.65 45829.67,-3674.28 47458.57,-10644.95 v 0 h -67333.94 z"
   style="fill:#a88c56;fill-opacity:1;stroke:#000000;stroke-width:0.714792;stroke-dasharray:none;stroke-opacity:1" />
    <path
   id="path417"
   class="fil2"
   d="m -19875.37,-10644.94 v 63591.11 c 1923.56,-10619.79 5715.12,-20593.3 10729.77,-26794.19 v 0 C 2806.19,11373.74 17054.79,25195.1 33637.72,11478.17 v 0 C 42032.45,4534.65 45829.67,-3674.28 47458.57,-10644.95 v 0 h -67333.94 z"
   style="fill:#a88c56;fill-opacity:1;stroke:#000000;stroke-width:0.714792;stroke-dasharray:none;stroke-opacity:1" /></g>
   </g><path
     class="fil3"
     d="m 503.85193,321.5844 c -13.91443,15.96871 -31.43782,35.60945 -36.49326,44.55931 L 642.69771,575.4125 c 6.41425,7.03668 11.4094,4.66519 22.9134,4.59838 18.44883,-0.11448 36.92522,0 55.37813,0 l -170.57569,-203.2186 -46.56018,-55.1981 z"
     id="path423"
     style="stroke-width:0.106713;stroke-dasharray:none" /><g
     clip-path="url(#id1)"
     id="g429"
     transform="matrix(0.12609662,0,0,0.1625474,-740.67314,-743.01532)"
     style="fill:#a88c56;fill-opacity:1;stroke:#000000;stroke-width:0.714792;stroke-dasharray:none;stroke-opacity:1">
    <g
   id="g427"
   style="fill:#a88c56;fill-opacity:1;stroke:#000000;stroke-width:0.714792;stroke-dasharray:none;stroke-opacity:1">
     <path
   id="path425"
   class="fil5"
   d="m 1921.55,4229.78 v 9666.48 c 292.4,-1614.31 868.75,-3130.39 1631.03,-4072.99 v 0 C 5369.37,7576.83 7535.3,9677.82 10056.07,7592.71 v 0 c 1276.08,-1055.49 1853.29,-2303.33 2100.9,-3362.93 v 0 z"
   style="fill:#a88c56;fill-opacity:1;stroke:#000000;stroke-width:0.714792;stroke-dasharray:none;stroke-opacity:1" />
    </g>
   </g><path
     class="fil3"
     d="M 230.25707,438.13291 V 370.37469 H 182.52038 V 476.2453 c 0,6.27919 -31.72186,45.38671 -36.99786,52.4086 -9.29616,12.36994 -31.70354,39.24733 -37.79305,51.34743 18.59112,0 37.18963,-0.12648 55.77584,0.1096 13.67192,0.17419 11.42419,-1.43695 18.62174,-11.21727 L 309.42366,399.49287 c 48.16302,-64.08598 31.40669,-54.52324 72.00695,-54.52324 L 205.99659,579.48192 c 19.58674,0.52033 42.24576,2.02531 60.98228,0.68282 8.9089,-0.63892 7.77773,-3.25426 17.77997,-16.57013 L 475.99761,309.88108 c 2.76937,-2.94051 1.34252,-0.37215 4.26458,-4.91382 l 2.69474,-5.88909 -0.52041,-0.69235 -50.12487,-0.0501 H 322.84388 c -6.47675,0.413 -6.2068,2.26104 -11.06132,9.01169 l -66.85683,88.9006 c -7.42106,14.60324 7.36489,22.25121 -14.6699,41.88519 z"
     id="path431"
     style="stroke-width:0.100724;stroke-dasharray:none" /><path
     class="fil4"
     d="m 416.43608,479.23413 h 31.82691 v -27.48788 c 0,-3.95925 -1.10797,-5.1554 -4.77512,-5.1554 h -27.05179 z"
     id="path433"
     style="fill:#a88c56;fill-opacity:1;stroke:#000000;stroke-width:0.090729;stroke-dasharray:none;stroke-opacity:1" /><g
     clip-path="url(#id2)"
     id="g439"
     transform="matrix(0.1221575,0,0,0.13188677,-702.44835,-518.6334)"
     style="fill:#a88c56;fill-opacity:1;stroke:#000000;stroke-width:0.714792;stroke-dasharray:none;stroke-opacity:1">
    <g
   id="g437"
   style="fill:#a88c56;fill-opacity:1;stroke:#000000;stroke-width:0.714792;stroke-dasharray:none;stroke-opacity:1">
     <path
   id="path435"
   class="fil5"
   d="m 1921.55,4229.78 v 9666.48 c 292.4,-1614.31 868.75,-3130.39 1631.03,-4072.99 v 0 C 5369.37,7576.83 7535.3,9677.82 10056.07,7592.71 v 0 c 1276.08,-1055.49 1853.29,-2303.33 2100.9,-3362.93 v 0 z"
   style="fill:#a88c56;fill-opacity:1;stroke:#000000;stroke-width:0.714792;stroke-dasharray:none;stroke-opacity:1" />
    </g>
   </g><path
     class="fil3"
     d="m 416.43608,479.23413 h 31.82691 v -27.48788 c 0,-3.95925 -1.10797,-5.1554 -4.77512,-5.1554 h -27.05179 z"
     id="path441"
     style="fill:#a88c56;fill-opacity:1;stroke:#000000;stroke-width:0.090729;stroke-dasharray:none;stroke-opacity:1" /><path
     class="fil4"
     d="m 416.43608,518.74869 h 27.05179 c 3.66715,0 4.77512,-1.19607 4.77512,-5.1528 v -27.48774 h -31.82691 z"
     id="path443"
     style="fill:#a88c56;fill-opacity:1;stroke:#000000;stroke-width:0.090729;stroke-dasharray:none;stroke-opacity:1" /><g
     clip-path="url(#id3)"
     id="g449"
     transform="matrix(0.1221575,0,0,0.13188677,-702.44835,-518.6334)"
     style="fill:#a88c56;fill-opacity:1;stroke:#000000;stroke-width:0.714792;stroke-dasharray:none;stroke-opacity:1">
    <g
   id="g447"
   style="fill:#a88c56;fill-opacity:1;stroke:#000000;stroke-width:0.714792;stroke-dasharray:none;stroke-opacity:1">
     <path
   id="path445"
   class="fil5"
   d="m 1921.55,4229.78 v 9666.48 c 292.4,-1614.31 868.75,-3130.39 1631.03,-4072.99 v 0 C 5369.37,7576.83 7535.3,9677.82 10056.07,7592.71 v 0 c 1276.08,-1055.49 1853.29,-2303.33 2100.9,-3362.93 v 0 z"
   style="fill:#a88c56;fill-opacity:1;stroke:#000000;stroke-width:0.714792;stroke-dasharray:none;stroke-opacity:1" />
    </g>
   </g><path
     class="fil3"
     d="m 416.43608,518.74869 h 27.05179 c 3.66715,0 4.77512,-1.19607 4.77512,-5.1528 v -27.48774 h -31.82691 z"
     id="path451"
     style="fill:#a88c56;fill-opacity:1;stroke:#000000;stroke-width:0.090729;stroke-dasharray:none;stroke-opacity:1" /><polygon
     class="fil4"
     points="9458.97,7566.09 9706.47,7566.09 9706.47,7318.59 9458.97,7318.59 "
     id="polygon453"
     transform="matrix(0.1221575,0,0,0.13188677,-702.44835,-518.6334)"
     style="fill:#a88c56;fill-opacity:1;stroke:#000000;stroke-width:0.714792;stroke-dasharray:none;stroke-opacity:1" /><g
     clip-path="url(#id4)"
     id="g459"
     transform="matrix(0.1221575,0,0,0.13188677,-702.44835,-518.6334)"
     style="fill:#a88c56;fill-opacity:1;stroke:#000000;stroke-width:0.714792;stroke-dasharray:none;stroke-opacity:1">
    <g
   id="g457"
   style="fill:#a88c56;fill-opacity:1;stroke:#000000;stroke-width:0.714792;stroke-dasharray:none;stroke-opacity:1">
     <path
   id="path455"
   class="fil5"
   d="m 1921.55,4229.78 v 9666.48 c 292.4,-1614.31 868.75,-3130.39 1631.03,-4072.99 v 0 C 5369.37,7576.83 7535.3,9677.82 10056.07,7592.71 v 0 c 1276.08,-1055.49 1853.29,-2303.33 2100.9,-3362.93 v 0 z"
   style="fill:#a88c56;fill-opacity:1;stroke:#000000;stroke-width:0.714792;stroke-dasharray:none;stroke-opacity:1" />
    </g>
   </g><polygon
     class="fil3"
     points="9458.97,7566.09 9706.47,7566.09 9706.47,7318.59 9458.97,7318.59 "
     id="polygon461"
     transform="matrix(0.1221575,0,0,0.13188677,-702.44835,-518.6334)"
     style="fill:#a88c56;fill-opacity:1;stroke:#000000;stroke-width:0.714792;stroke-dasharray:none;stroke-opacity:1" /><polygon
     class="fil4"
     points="9458.97,7865.7 9706.47,7865.7 9706.47,7618.21 9458.97,7618.21 "
     id="polygon463"
     transform="matrix(0.1221575,0,0,0.13188677,-702.44835,-518.6334)"
     style="fill:#a88c56;fill-opacity:1;stroke:#000000;stroke-width:0.714792;stroke-dasharray:none;stroke-opacity:1" /><g
     clip-path="url(#id5)"
     id="g469"
     transform="matrix(0.1221575,0,0,0.13188677,-702.44835,-518.6334)"
     style="fill:#a88c56;fill-opacity:1;stroke:#000000;stroke-width:0.714792;stroke-dasharray:none;stroke-opacity:1">
    <g
   id="g467"
   style="fill:#a88c56;fill-opacity:1;stroke:#000000;stroke-width:0.714792;stroke-dasharray:none;stroke-opacity:1">
     <path
   id="path465"
   class="fil5"
   d="m 1921.55,4229.78 v 9666.48 c 292.4,-1614.31 868.75,-3130.39 1631.03,-4072.99 v 0 C 5369.37,7576.83 7535.3,9677.82 10056.07,7592.71 v 0 c 1276.08,-1055.49 1853.29,-2303.33 2100.9,-3362.93 v 0 z"
   style="fill:#a88c56;fill-opacity:1;stroke:#000000;stroke-width:0.714792;stroke-dasharray:none;stroke-opacity:1" />
    </g>
   </g><polygon
     class="fil3"
     points="9458.97,7865.7 9706.47,7865.7 9706.47,7618.21 9458.97,7618.21 "
     id="polygon471"
     transform="matrix(0.1221575,0,0,0.13188677,-702.44835,-518.6334)"
     style="fill:#a88c56;fill-opacity:1;stroke:#000000;stroke-width:0.714792;stroke-dasharray:none;stroke-opacity:1" /><path
     class="fil1"
     d="M 396.59686,266.24319 196.66927,27.426657 C 193.20949,27.20327 133.03752,25.645289 130.77469,25.645289 L 333.16444,266.36329 c 34.1274,-0.4123 47.3063,-0.30349 63.43242,-0.11991 z"
     id="path473"
     style="stroke-width:0.131114" /><g
     clip-path="url(#id6)"
     id="g479"
     transform="matrix(0.12004849,0,0,0.14319738,-697.85642,-605.05342)"
     style="fill:#a88c56;fill-opacity:1;stroke:#000000;stroke-opacity:1">
     <g
   id="g477"
   style="fill:#a88c56;fill-opacity:1;stroke:#000000;stroke-opacity:1">
      <path
   id="path475"
   class="fil6"
   d="m 13993.47,8036.99 v -9666.48 c -292.4,1614.32 -868.75,3130.39 -1631.03,4072.99 v 0 C 10545.65,4689.94 8379.72,2588.95 5858.95,4674.06 v 0 C 4582.87,5729.55 4005.65,6977.39 3758.05,8036.99 v 0 z"
   style="fill:#a88c56;fill-opacity:1;stroke:#000000;stroke-opacity:1" />
     </g>
    </g><path
     class="fil3"
     d="M 396.59686,266.24319 196.66927,27.426657 C 193.20949,27.20327 133.03752,25.645289 130.77469,25.645289 L 333.16444,266.36329 c 34.1274,-0.4123 47.3063,-0.30349 63.43242,-0.11991 z"
     id="path481"
     style="stroke-width:0.131114" /><polygon
     class="fil7"
     points="6794.76,4296.81 7509.58,4298.99 9239.66,6021.25 10967.55,4302.02 11713.4,4288.17 11933.23,4066.27 10729.13,4066.27 9303.34,5407.87 9190.81,5513.23 7743.86,4066.27 6574.92,4077.31 "
     id="polygon483"
     transform="matrix(0.12004849,0,0,0.14319738,-697.85642,-605.05342)" /><g
     clip-path="url(#id7)"
     id="g501"
     transform="matrix(0.12004849,0,0,0.14319738,-696.30632,-605.05342)"
     style="fill:#cf0000;fill-opacity:1">
     <g
   id="g487"
   style="fill:#cf0000;fill-opacity:1">
      <path
   id="path485"
   class="fil1"
   d="m -2254.68,14049.62 c -1444.95,-936.88 -3264.64,-2089.25 -3789.68,-2614.38 L 12163.75,-842.97 c 666.09,-412.82 1184.86,-273.75 2379.53,-269.76 1915.89,6.74 3834.5,0.56 5750.69,0.56 L 2580.45,10811.11 -2254.67,14049.62 Z"
   style="fill:#cf0000;fill-opacity:1" />
     </g>
     <g
   clip-path="url(#id8)"
   id="g495"
   style="fill:#cf0000;fill-opacity:1">
      <g
   id="g493"
   style="fill:#cf0000;fill-opacity:1">
       <path
   id="path489"
   class="fil8"
   d="m -78291.55,31936.62 v -92189.01 c 4163.44,15395.68 12370.03,29854.43 23223.93,38843.95 v 0 C -29198.69,15.8 1641.54,-20021.23 37534.28,-135.6 v 0 C 55704.16,9930.53 63923.02,21831.15 67448.67,31936.62 v 0 z"
   style="fill:#cf0000;fill-opacity:1" />
      <path
   id="path491"
   class="fil8"
   d="m -78291.55,31936.62 v -92189.01 c 4163.44,15395.68 12370.03,29854.43 23223.93,38843.95 v 0 C -29198.69,15.8 1641.54,-20021.23 37534.28,-135.6 v 0 C 55704.16,9930.53 63923.02,21831.15 67448.67,31936.62 v 0 z"
   style="fill:#cf0000;fill-opacity:1" /></g>
     </g>
     <g
   clip-path="url(#id9)"
   id="g499"
   style="fill:#cf0000;fill-opacity:1">
      <path
   class="fil3"
   d="m -2254.68,14049.62 c -1444.95,-936.88 -3264.64,-2089.25 -3789.68,-2614.38 L 12163.75,-842.97 c 666.09,-412.82 1184.86,-273.75 2379.53,-269.76 1915.89,6.74 3834.5,0.56 5750.69,0.56 L 2580.45,10811.11 -2254.67,14049.62 Z"
   id="path497"
   style="fill:#cf0000;fill-opacity:1" />
     </g>
    </g><polygon
     class="fil3"
     points="6794.76,4296.81 7509.58,4298.99 9239.66,6021.25 10967.55,4302.02 11713.4,4288.17 11933.23,4066.27 10729.13,4066.27 9303.34,5407.87 9190.81,5513.23 7743.86,4066.27 6574.92,4077.31 "
     id="polygon503"
     transform="matrix(0.12004849,0,0,0.14319738,-697.85642,-605.05342)" /><path
     class="fil1"
     d="M 426.54536,266.24319 626.47293,27.426657 c 3.4598,-0.223387 63.63167,-1.781368 65.89582,-1.781368 L 489.979,266.36329 c -34.1274,-0.4123 -47.30634,-0.30349 -63.43242,-0.11991 z"
     id="path505"
     style="stroke-width:0.131114" /><g
     clip-path="url(#id10)"
     id="g511"
     transform="matrix(0.12004849,0,0,0.14319738,-697.85642,-605.05342)"
     style="fill:#a88c56;fill-opacity:1;stroke:#000000;stroke-opacity:1">
     <g
   id="g509"
   style="fill:#a88c56;fill-opacity:1;stroke:#000000;stroke-opacity:1">
      <path
   id="path507"
   class="fil9"
   d="m 4489.52,8036.99 v -9666.48 c 292.4,1614.32 868.75,3130.39 1631.03,4072.99 v 0 c 1816.79,2246.44 3982.72,145.45 6503.49,2230.56 v 0 c 1276.08,1055.49 1853.3,2303.33 2100.91,3362.93 v 0 z"
   style="fill:#a88c56;fill-opacity:1;stroke:#000000;stroke-opacity:1" />
     </g>
    </g><path
     class="fil3"
     d="M 426.54536,266.24319 626.47293,27.426657 c 3.4598,-0.223387 63.63167,-1.781368 65.89582,-1.781368 L 489.979,266.36329 c -34.1274,-0.4123 -47.30634,-0.30349 -63.43242,-0.11991 z"
     id="path513"
     style="stroke-width:0.131114" /><text
     xml:space="preserve"
     style="font-size:356.483px;fill:#cf0000;fill-opacity:1;stroke-width:29.7069"
     x="915.71039"
     y="236.30281"
     id="text517"><tspan
       sodipodi:role="line"
       id="tspan515"
       style="font-style:normal;font-variant:normal;font-weight:bold;font-stretch:normal;font-family:Cabin;-inkscape-font-specification:'Cabin Bold';fill:#cf0000;fill-opacity:1;stroke-width:29.7069"
       x="915.71039"
       y="236.30281">X-CORP</tspan></text><text
     xml:space="preserve"
     style="font-size:349.45px;fill:#a88c56;fill-opacity:1;stroke-width:29.1209"
     x="884.59406"
     y="584.33984"
     id="text521"><tspan
       sodipodi:role="line"
       id="tspan519"
       style="font-style:normal;font-variant:normal;font-weight:bold;font-stretch:normal;font-family:Cabin;-inkscape-font-specification:'Cabin Bold';fill:#a88c56;fill-opacity:1;stroke-width:29.1209"
       x="884.59406"
       y="584.33984">PROPERTI</tspan></text><text
     xml:space="preserve"
     style="font-size:159.879px;fill:#a88c56;fill-opacity:1;stroke-width:13.3232"
     x="2145.4275"
     y="187.66661"
     id="text525"
     transform="rotate(1.37119)"><tspan
       sodipodi:role="line"
       id="tspan523"
       style="font-style:normal;font-variant:normal;font-weight:bold;font-stretch:normal;font-family:Cabin;-inkscape-font-specification:'Cabin Bold';fill:#a88c56;fill-opacity:1;stroke-width:13.3232"
       x="2145.4275"
       y="187.66661">.com</tspan></text><rect
     style="fill:#a88c56;stroke-width:12.394"
     id="rect527"
     width="39.652344"
     height="242.87059"
     x="770.71442"
     y="155.69966" /></g></g>
</svg>
