<?xml version="1.0" encoding="UTF-8" standalone="no"?>
<!-- Creator: CorelDRAW 2020 (64-Bit) -->

<svg
   xml:space="preserve"
   width="210"
   height="50"
   version="1.1"
   style="clip-rule:evenodd;fill-rule:evenodd;image-rendering:optimizeQuality;shape-rendering:geometricPrecision;text-rendering:geometricPrecision"
   viewBox="0 0 2187.1751 520.7553"
   id="svg155"
   sodipodi:docname="logo_bar.svg"
   inkscape:version="1.2.2 (732a01da63, 2022-12-09)"
   inkscape:export-filename="partner-logo-2.svg"
   inkscape:export-xdpi="96"
   inkscape:export-ydpi="96"
   xmlns:inkscape="http://www.inkscape.org/namespaces/inkscape"
   xmlns:sodipodi="http://sodipodi.sourceforge.net/DTD/sodipodi-0.dtd"
   xmlns:xlink="http://www.w3.org/1999/xlink"
   xmlns="http://www.w3.org/2000/svg"
   xmlns:svg="http://www.w3.org/2000/svg"><sodipodi:namedview
   id="namedview157"
   pagecolor="#ffffff"
   bordercolor="#000000"
   borderopacity="0.25"
   inkscape:showpageshadow="2"
   inkscape:pageopacity="0.0"
   inkscape:pagecheckerboard="0"
   inkscape:deskcolor="#d1d1d1"
   inkscape:document-units="in"
   showgrid="false"
   inkscape:zoom="7.0725623"
   inkscape:cx="58.818852"
   inkscape:cy="23.895159"
   inkscape:window-width="1366"
   inkscape:window-height="697"
   inkscape:window-x="-8"
   inkscape:window-y="-8"
   inkscape:window-maximized="1"
   inkscape:current-layer="g365" />
 <defs
   id="defs48">
  <style
   type="text/css"
   id="style2">
   <![CDATA[
    .str0 {stroke:black;stroke-width:6.94;stroke-miterlimit:2.61313}
    .fil3 {fill:none}
    .fil0 {fill:black}
    .fil4 {fill:#3A3A3B}
    .fil1 {fill:#BF1E2E}
    .fil7 {fill:white}
    .fil9 {fill:url(#id11)}
    .fil8 {fill:url(#id12)}
    .fil6 {fill:url(#id13)}
    .fil2 {fill:url(#id14)}
    .fil5 {fill:url(#id15)}
   ]]>
  </style>
    <clipPath
   id="id0">
     <path
   d="m 9842.37,6549.47 c -101.48,98.24 -229.28,219.07 -266.15,274.13 l 1278.77,1287.43 c 46.78,43.29 83.21,28.7 167.11,28.29 134.55,-0.71 269.3,-0.06 403.88,-0.06 L 10181.95,6889.05 9842.38,6549.47 Z"
   id="path4" />
    </clipPath>
    <clipPath
   id="id1">
     <path
   d="m 7635.27,7266.48 v -416.85 h -390.78 v 651.32 c 0,38.63 -259.68,279.22 -302.87,322.42 -76.1,76.1 -259.53,241.45 -309.38,315.89 152.19,0 304.44,-0.78 456.59,0.67 111.92,1.07 93.52,-8.84 152.44,-69.01 L 8283.34,7028.76 c 394.27,-394.26 257.1,-335.43 589.46,-335.43 L 7436.67,8136.06 c 160.34,3.2 345.83,12.46 499.21,4.2 72.93,-3.93 63.67,-20.02 145.55,-101.94 L 9646.94,6477.47 c 22.67,-18.09 10.99,-2.29 34.91,-30.23 l 22.06,-36.23 -4.26,-4.26 -410.33,-0.3 H 8393.2 c -53.02,2.54 -50.81,13.91 -90.55,55.44 l -547.3,546.92 c -60.75,89.84 60.29,136.89 -120.09,257.68 z"
   id="path7" />
    </clipPath>
    <clipPath
   id="id2">
     <path
   d="m 9159.36,7566.09 h 260.54 v -208.42 c 0,-30.02 -9.07,-39.09 -39.09,-39.09 h -221.45 z"
   id="path10" />
    </clipPath>
    <clipPath
   id="id3">
     <path
   d="m 9159.36,7865.7 h 221.45 c 30.02,0 39.09,-9.07 39.09,-39.07 v -208.42 h -260.54 z"
   id="path13" />
    </clipPath>
    <clipPath
   id="id4">
     <path
   d="m 9458.97,7566.09 h 247.5 v -247.51 h -247.5 z"
   id="path16" />
    </clipPath>
    <clipPath
   id="id5">
     <path
   d="m 9458.97,7865.7 h 247.5 v -247.49 h -247.5 z"
   id="path19" />
    </clipPath>
     <clipPath
   id="id6">
      <path
   d="M 9116.76,6084.58 7451.37,4416.84 c -28.82,-1.56 -530.05,-12.44 -548.9,-12.44 l 1685.9,1681.02 c 284.28,-2.88 394.06,-2.12 528.39,-0.84 z"
   id="path22" />
     </clipPath>
     <clipPath
   id="id7">
      <path
   d="m 6794.76,4296.81 714.82,2.18 1730.07,1722.26 1727.89,-1719.23 745.85,-13.86 219.83,-221.89 h -1204.1 L 9303.33,5407.87 9190.8,5513.22 7743.85,4066.27 6574.9,4077.3 l 219.85,219.5 z"
   id="path25" />
     </clipPath>
      <clipPath
   id="id8">
       <path
   d="m 6794.76,4296.81 714.82,2.18 1730.07,1722.26 1727.89,-1719.23 745.85,-13.86 219.83,-221.89 h -1204.1 L 9303.33,5407.87 9190.8,5513.22 7743.85,4066.27 6574.9,4077.3 l 219.85,219.5 z"
   id="path28" />
      </clipPath>
      <clipPath
   id="id9">
       <path
   d="m 6794.76,4296.81 714.82,2.18 1730.07,1722.26 1727.89,-1719.23 745.85,-13.86 219.83,-221.89 h -1204.1 L 9303.33,5407.87 9190.8,5513.22 7743.85,4066.27 6574.9,4077.3 l 219.85,219.5 z"
   id="path31" />
      </clipPath>
     <clipPath
   id="id10">
      <path
   d="m 9366.23,6084.58 1665.39,-1667.74 c 28.82,-1.56 530.05,-12.44 548.91,-12.44 l -1685.9,1681.02 c -284.28,-2.88 -394.06,-2.12 -528.39,-0.84 z"
   id="path34" />
     </clipPath>
  <linearGradient
   id="id11"
   gradientUnits="userSpaceOnUse"
   x1="12471.34"
   y1="3720.6001"
   x2="6324.3599"
   y2="-3653.55">
   <stop
   offset="0"
   style="stop-opacity:1; stop-color:#F3DC84"
   id="stop37" />
   <stop
   offset="0.290196"
   style="stop-opacity:1; stop-color:#B89E62"
   id="stop39" />
   <stop
   offset="1"
   style="stop-opacity:1; stop-color:#7D5F3F"
   id="stop41" />
  </linearGradient>
  <linearGradient
   id="id12"
   gradientUnits="userSpaceOnUse"
   xlink:href="#id11"
   x1="35360.051"
   y1="-9228.7598"
   x2="-52165.969"
   y2="-79555.867">
  </linearGradient>
  <linearGradient
   id="id13"
   gradientUnits="userSpaceOnUse"
   xlink:href="#id11"
   x1="11739.87"
   y1="3720.6299"
   x2="5592.8599"
   y2="-3653.55">
  </linearGradient>
  <linearGradient
   id="id14"
   gradientUnits="userSpaceOnUse"
   xlink:href="#id11"
   x1="32633.199"
   y1="-23960.289"
   x2="-7805.0098"
   y2="24550.68">
  </linearGradient>
  <linearGradient
   id="id15"
   gradientUnits="userSpaceOnUse"
   xlink:href="#id11"
   x1="9624.1992"
   y1="4352.4766"
   x2="3650.4695"
   y2="9857.7578"
   gradientTransform="scale(1.0290078,0.97180996)">
  </linearGradient>
 
   
   
   
   
   
   
   
   
   
   
   
   
   
   
   
   
   
   
   
  
    
    
    
    
    
    
    
    
    
   </defs>
 <g
   id="Layer_x0020_1"
   inkscape:label="Layer 1"
   inkscape:groupmode="layer">
  <metadata
   id="CorelCorpID_0Corel-Layer" />
  
  
 <text
   xml:space="preserve"
   style="font-size:2105.95px;text-align:center;text-anchor:middle;fill:#a88c56;fill-opacity:1;stroke:none;stroke-width:16.8476;stroke-linecap:round;stroke-linejoin:round;stroke-dasharray:none;stroke-opacity:1"
   x="12573.083"
   y="7378.4961"
   id="text8258"><tspan
     sodipodi:role="line"
     id="tspan8256"
     style="font-style:normal;font-variant:normal;font-weight:bold;font-stretch:normal;font-family:Ebrima;-inkscape-font-specification:'Ebrima Bold';stroke:none;stroke-width:16.8476"
     x="12573.083"
     y="7378.4961" /></text><g
   id="g365"
   transform="translate(229.08421,-8.3303349)"><g
     clip-path="url(#id0)"
     id="g58"
     transform="matrix(0.09002746,0,0,0.10672566,-523.85727,-397.95682)"
     style="fill:#a88c56;fill-opacity:1;stroke:#000000;stroke-width:0.714792;stroke-dasharray:none;stroke-opacity:1">
    <g
   id="g56"
   style="fill:#a88c56;fill-opacity:1;stroke:#000000;stroke-width:0.714792;stroke-dasharray:none;stroke-opacity:1">
     <path
   id="1"
   class="fil2"
   d="m -19875.37,-10644.94 v 63591.11 c 1923.56,-10619.79 5715.12,-20593.3 10729.77,-26794.19 v 0 C 2806.19,11373.74 17054.79,25195.1 33637.72,11478.17 v 0 C 42032.45,4534.65 45829.67,-3674.28 47458.57,-10644.95 v 0 h -67333.94 z"
   style="fill:#a88c56;fill-opacity:1;stroke:#000000;stroke-width:0.714792;stroke-dasharray:none;stroke-opacity:1" />
    <path
   id="path8146"
   class="fil2"
   d="m -19875.37,-10644.94 v 63591.11 c 1923.56,-10619.79 5715.12,-20593.3 10729.77,-26794.19 v 0 C 2806.19,11373.74 17054.79,25195.1 33637.72,11478.17 v 0 C 42032.45,4534.65 45829.67,-3674.28 47458.57,-10644.95 v 0 h -67333.94 z"
   style="fill:#a88c56;fill-opacity:1;stroke:#000000;stroke-width:0.714792;stroke-dasharray:none;stroke-opacity:1" /></g>
   </g><path
     class="fil3"
     d="m 362.22656,301.03999 c -9.13596,10.48476 -20.6415,23.38052 -23.96082,29.25683 L 453.39017,467.6989 c 4.21148,4.62016 7.4912,3.06308 15.04452,3.01921 12.11317,-0.0752 24.24443,0 36.36028,0 L 392.79807,337.28848 362.2275,301.04641 Z"
     id="path60"
     style="stroke-width:0.070066;stroke-dasharray:none" /><g
     clip-path="url(#id1)"
     id="g68"
     transform="matrix(0.08279275,0,0,0.10672566,-454.90595,-397.95682)"
     style="fill:#a88c56;fill-opacity:1;stroke:#000000;stroke-width:0.714792;stroke-dasharray:none;stroke-opacity:1">
    <g
   id="g66"
   style="fill:#a88c56;fill-opacity:1;stroke:#000000;stroke-width:0.714792;stroke-dasharray:none;stroke-opacity:1">
     <path
   id="path64"
   class="fil5"
   d="m 1921.55,4229.78 v 9666.48 c 292.4,-1614.31 868.75,-3130.39 1631.03,-4072.99 v 0 C 5369.37,7576.83 7535.3,9677.82 10056.07,7592.71 v 0 c 1276.08,-1055.49 1853.29,-2303.33 2100.9,-3362.93 v 0 z"
   style="fill:#a88c56;fill-opacity:1;stroke:#000000;stroke-width:0.714792;stroke-dasharray:none;stroke-opacity:1" />
    </g>
   </g><path
     class="fil3"
     d="m 182.58915,377.56362 v -44.48881 h -31.34304 v 69.51271 c 0,4.12281 -20.828,29.80009 -24.29212,34.41053 -6.10369,8.12188 -20.81597,25.76908 -24.81423,33.71379 12.20659,0 24.41803,-0.083 36.6214,0.072 8.97673,0.11438 7.50092,-0.94347 12.2267,-7.36505 L 234.5685,352.19327 c 31.62296,-42.07769 20.62105,-35.79896 47.27845,-35.79896 l -115.18679,153.9765 c 12.8603,0.34163 27.7378,1.32978 40.03986,0.44833 5.84942,-0.41951 5.10671,-2.1367 11.674,-10.87965 L 343.93792,293.3558 c 1.81831,-1.93069 0.88147,-0.24435 2.80004,-3.22632 l 1.76932,-3.86668 -0.34169,-0.45457 -32.91108,-0.0329 h -71.87454 c -4.25252,0.27117 -4.07528,1.48456 -7.26266,5.91691 l -43.89699,58.37052 c -4.87253,9.58823 4.83566,14.60974 -9.63198,27.50106 z"
     id="path70"
     style="stroke-width:0.0661338;stroke-dasharray:none" /><path
     class="fil4"
     d="m 304.8309,404.54993 h 20.89697 v -18.04804 c 0,-2.59957 -0.72748,-3.38494 -3.13526,-3.38494 H 304.8309 Z"
     id="path72"
     style="fill:#a88c56;fill-opacity:1;stroke:#000000;stroke-width:0.059571;stroke-dasharray:none;stroke-opacity:1" /><g
     clip-path="url(#id2)"
     id="g78"
     transform="matrix(0.08020639,0,0,0.08659445,-429.80826,-250.63172)"
     style="fill:#a88c56;fill-opacity:1;stroke:#000000;stroke-width:0.714792;stroke-dasharray:none;stroke-opacity:1">
    <g
   id="g76"
   style="fill:#a88c56;fill-opacity:1;stroke:#000000;stroke-width:0.714792;stroke-dasharray:none;stroke-opacity:1">
     <path
   id="path74"
   class="fil5"
   d="m 1921.55,4229.78 v 9666.48 c 292.4,-1614.31 868.75,-3130.39 1631.03,-4072.99 v 0 C 5369.37,7576.83 7535.3,9677.82 10056.07,7592.71 v 0 c 1276.08,-1055.49 1853.29,-2303.33 2100.9,-3362.93 v 0 z"
   style="fill:#a88c56;fill-opacity:1;stroke:#000000;stroke-width:0.714792;stroke-dasharray:none;stroke-opacity:1" />
    </g>
   </g><path
     class="fil3"
     d="m 304.8309,404.54993 h 20.89697 v -18.04804 c 0,-2.59957 -0.72748,-3.38494 -3.13526,-3.38494 H 304.8309 Z"
     id="path80"
     style="fill:#a88c56;fill-opacity:1;stroke:#000000;stroke-width:0.059571;stroke-dasharray:none;stroke-opacity:1" /><path
     class="fil4"
     d="m 304.8309,430.49447 h 17.76171 c 2.40778,0 3.13526,-0.78531 3.13526,-3.38323 V 409.06329 H 304.8309 Z"
     id="path82"
     style="fill:#a88c56;fill-opacity:1;stroke:#000000;stroke-width:0.059571;stroke-dasharray:none;stroke-opacity:1" /><g
     clip-path="url(#id3)"
     id="g88"
     transform="matrix(0.08020639,0,0,0.08659445,-429.80826,-250.63172)"
     style="fill:#a88c56;fill-opacity:1;stroke:#000000;stroke-width:0.714792;stroke-dasharray:none;stroke-opacity:1">
    <g
   id="g86"
   style="fill:#a88c56;fill-opacity:1;stroke:#000000;stroke-width:0.714792;stroke-dasharray:none;stroke-opacity:1">
     <path
   id="path84"
   class="fil5"
   d="m 1921.55,4229.78 v 9666.48 c 292.4,-1614.31 868.75,-3130.39 1631.03,-4072.99 v 0 C 5369.37,7576.83 7535.3,9677.82 10056.07,7592.71 v 0 c 1276.08,-1055.49 1853.29,-2303.33 2100.9,-3362.93 v 0 z"
   style="fill:#a88c56;fill-opacity:1;stroke:#000000;stroke-width:0.714792;stroke-dasharray:none;stroke-opacity:1" />
    </g>
   </g><path
     class="fil3"
     d="m 304.8309,430.49447 h 17.76171 c 2.40778,0 3.13526,-0.78531 3.13526,-3.38323 V 409.06329 H 304.8309 Z"
     id="path90"
     style="fill:#a88c56;fill-opacity:1;stroke:#000000;stroke-width:0.059571;stroke-dasharray:none;stroke-opacity:1" /><polygon
     class="fil4"
     points="9458.97,7566.09 9706.47,7566.09 9706.47,7318.59 9458.97,7318.59 "
     id="polygon92"
     transform="matrix(0.08020639,0,0,0.08659445,-429.80826,-250.63172)"
     style="fill:#a88c56;fill-opacity:1;stroke:#000000;stroke-width:0.714792;stroke-dasharray:none;stroke-opacity:1" /><g
     clip-path="url(#id4)"
     id="g98"
     transform="matrix(0.08020639,0,0,0.08659445,-429.80826,-250.63172)"
     style="fill:#a88c56;fill-opacity:1;stroke:#000000;stroke-width:0.714792;stroke-dasharray:none;stroke-opacity:1">
    <g
   id="g96"
   style="fill:#a88c56;fill-opacity:1;stroke:#000000;stroke-width:0.714792;stroke-dasharray:none;stroke-opacity:1">
     <path
   id="path94"
   class="fil5"
   d="m 1921.55,4229.78 v 9666.48 c 292.4,-1614.31 868.75,-3130.39 1631.03,-4072.99 v 0 C 5369.37,7576.83 7535.3,9677.82 10056.07,7592.71 v 0 c 1276.08,-1055.49 1853.29,-2303.33 2100.9,-3362.93 v 0 z"
   style="fill:#a88c56;fill-opacity:1;stroke:#000000;stroke-width:0.714792;stroke-dasharray:none;stroke-opacity:1" />
    </g>
   </g><polygon
     class="fil3"
     points="9458.97,7566.09 9706.47,7566.09 9706.47,7318.59 9458.97,7318.59 "
     id="polygon100"
     transform="matrix(0.08020639,0,0,0.08659445,-429.80826,-250.63172)"
     style="fill:#a88c56;fill-opacity:1;stroke:#000000;stroke-width:0.714792;stroke-dasharray:none;stroke-opacity:1" /><polygon
     class="fil4"
     points="9458.97,7865.7 9706.47,7865.7 9706.47,7618.21 9458.97,7618.21 "
     id="polygon102"
     transform="matrix(0.08020639,0,0,0.08659445,-429.80826,-250.63172)"
     style="fill:#a88c56;fill-opacity:1;stroke:#000000;stroke-width:0.714792;stroke-dasharray:none;stroke-opacity:1" /><g
     clip-path="url(#id5)"
     id="g108"
     transform="matrix(0.08020639,0,0,0.08659445,-429.80826,-250.63172)"
     style="fill:#a88c56;fill-opacity:1;stroke:#000000;stroke-width:0.714792;stroke-dasharray:none;stroke-opacity:1">
    <g
   id="g106"
   style="fill:#a88c56;fill-opacity:1;stroke:#000000;stroke-width:0.714792;stroke-dasharray:none;stroke-opacity:1">
     <path
   id="path104"
   class="fil5"
   d="m 1921.55,4229.78 v 9666.48 c 292.4,-1614.31 868.75,-3130.39 1631.03,-4072.99 v 0 C 5369.37,7576.83 7535.3,9677.82 10056.07,7592.71 v 0 c 1276.08,-1055.49 1853.29,-2303.33 2100.9,-3362.93 v 0 z"
   style="fill:#a88c56;fill-opacity:1;stroke:#000000;stroke-width:0.714792;stroke-dasharray:none;stroke-opacity:1" />
    </g>
   </g><polygon
     class="fil3"
     points="9458.97,7865.7 9706.47,7865.7 9706.47,7618.21 9458.97,7618.21 "
     id="polygon110"
     transform="matrix(0.08020639,0,0,0.08659445,-429.80826,-250.63172)"
     style="fill:#a88c56;fill-opacity:1;stroke:#000000;stroke-width:0.714792;stroke-dasharray:none;stroke-opacity:1" /><path
     class="fil1"
     d="M 291.80483,264.70396 160.53601,107.90137 c -2.27162,-0.14667 -41.77944,-1.16962 -43.26518,-1.16962 l 132.88543,158.05106 c 22.40743,-0.27071 31.06046,-0.19926 41.64857,-0.0787 z"
     id="path112"
     style="stroke-width:0.0860871" /><g
     clip-path="url(#id6)"
     id="g118"
     transform="matrix(0.07882165,0,0,0.0940208,-426.79328,-307.37354)"
     style="fill:#a88c56;fill-opacity:1;stroke:#000000;stroke-opacity:1">
     <g
   id="g116"
   style="fill:#a88c56;fill-opacity:1;stroke:#000000;stroke-opacity:1">
      <path
   id="path114"
   class="fil6"
   d="m 13993.47,8036.99 v -9666.48 c -292.4,1614.32 -868.75,3130.39 -1631.03,4072.99 v 0 C 10545.65,4689.94 8379.72,2588.95 5858.95,4674.06 v 0 C 4582.87,5729.55 4005.65,6977.39 3758.05,8036.99 v 0 z"
   style="fill:#a88c56;fill-opacity:1;stroke:#000000;stroke-opacity:1" />
     </g>
    </g><path
     class="fil3"
     d="M 291.80483,264.70396 160.53601,107.90137 c -2.27162,-0.14667 -41.77944,-1.16962 -43.26518,-1.16962 l 132.88543,158.05106 c 22.40743,-0.27071 31.06046,-0.19926 41.64857,-0.0787 z"
     id="path120"
     style="stroke-width:0.0860871" /><polygon
     class="fil7"
     points="6574.92,4077.31 6794.76,4296.81 7509.58,4298.99 9239.66,6021.25 10967.55,4302.02 11713.4,4288.17 11933.23,4066.27 10729.13,4066.27 9303.34,5407.87 9190.81,5513.23 7743.86,4066.27 "
     id="polygon122"
     transform="matrix(0.07882165,0,0,0.0940208,-426.79328,-307.37354)" /><g
     clip-path="url(#id7)"
     id="g137"
     transform="matrix(0.07882165,0,0,0.0940208,-425.77551,-307.37354)"
     style="fill:#cf0000;fill-opacity:1">
     <g
   id="g126"
   style="fill:#cf0000;fill-opacity:1">
      <path
   id="path124"
   class="fil1"
   d="m -2254.68,14049.62 c -1444.95,-936.88 -3264.64,-2089.25 -3789.68,-2614.38 L 12163.75,-842.97 c 666.09,-412.82 1184.86,-273.75 2379.53,-269.76 1915.89,6.74 3834.5,0.56 5750.69,0.56 L 2580.45,10811.11 -2254.67,14049.62 Z"
   style="fill:#cf0000;fill-opacity:1" />
     </g>
     <g
   clip-path="url(#id8)"
   id="g131"
   style="fill:#cf0000;fill-opacity:1">
      <g
   id="g129"
   style="fill:#cf0000;fill-opacity:1">
       <path
   id="2"
   class="fil8"
   d="m -78291.55,31936.62 v -92189.01 c 4163.44,15395.68 12370.03,29854.43 23223.93,38843.95 v 0 C -29198.69,15.8 1641.54,-20021.23 37534.28,-135.6 v 0 C 55704.16,9930.53 63923.02,21831.15 67448.67,31936.62 v 0 z"
   style="fill:#cf0000;fill-opacity:1" />
      <path
   id="path8148"
   class="fil8"
   d="m -78291.55,31936.62 v -92189.01 c 4163.44,15395.68 12370.03,29854.43 23223.93,38843.95 v 0 C -29198.69,15.8 1641.54,-20021.23 37534.28,-135.6 v 0 C 55704.16,9930.53 63923.02,21831.15 67448.67,31936.62 v 0 z"
   style="fill:#cf0000;fill-opacity:1" /></g>
     </g>
     <g
   clip-path="url(#id9)"
   id="g135"
   style="fill:#cf0000;fill-opacity:1">
      <path
   class="fil3"
   d="m -2254.68,14049.62 c -1444.95,-936.88 -3264.64,-2089.25 -3789.68,-2614.38 L 12163.75,-842.97 c 666.09,-412.82 1184.86,-273.75 2379.53,-269.76 1915.89,6.74 3834.5,0.56 5750.69,0.56 L 2580.45,10811.11 -2254.67,14049.62 Z"
   id="path133"
   style="fill:#cf0000;fill-opacity:1" />
     </g>
    </g><polygon
     class="fil3"
     points="6574.92,4077.31 6794.76,4296.81 7509.58,4298.99 9239.66,6021.25 10967.55,4302.02 11713.4,4288.17 11933.23,4066.27 10729.13,4066.27 9303.34,5407.87 9190.81,5513.23 7743.86,4066.27 "
     id="polygon139"
     transform="matrix(0.07882165,0,0,0.0940208,-426.79328,-307.37354)" /><path
     class="fil1"
     d="M 311.46847,264.70396 442.73728,107.90137 c 2.27164,-0.14667 41.77939,-1.16962 43.26599,-1.16962 L 353.11784,264.78281 c -22.40743,-0.27071 -31.06048,-0.19926 -41.64857,-0.0787 z"
     id="path141"
     style="stroke-width:0.0860871" /><g
     clip-path="url(#id10)"
     id="g147"
     transform="matrix(0.07882165,0,0,0.0940208,-426.79328,-307.37354)"
     style="fill:#a88c56;fill-opacity:1;stroke:#000000;stroke-opacity:1">
     <g
   id="g145"
   style="fill:#a88c56;fill-opacity:1;stroke:#000000;stroke-opacity:1">
      <path
   id="path143"
   class="fil9"
   d="m 4489.52,8036.99 v -9666.48 c 292.4,1614.32 868.75,3130.39 1631.03,4072.99 v 0 c 1816.79,2246.44 3982.72,145.45 6503.49,2230.56 v 0 c 1276.08,1055.49 1853.3,2303.33 2100.91,3362.93 v 0 z"
   style="fill:#a88c56;fill-opacity:1;stroke:#000000;stroke-opacity:1" />
     </g>
    </g><path
     class="fil3"
     d="M 311.46847,264.70396 442.73728,107.90137 c 2.27164,-0.14667 41.77939,-1.16962 43.26599,-1.16962 L 353.11784,264.78281 c -22.40743,-0.27071 -31.06048,-0.19926 -41.64857,-0.0787 z"
     id="path149"
     style="stroke-width:0.0860871" /><text
     xml:space="preserve"
     style="font-size:234.06px;fill:#cf0000;fill-opacity:1;stroke-width:19.505"
     x="632.64532"
     y="245.04564"
     id="text454"><tspan
       sodipodi:role="line"
       id="tspan452"
       style="font-style:normal;font-variant:normal;font-weight:bold;font-stretch:normal;font-family:Cabin;-inkscape-font-specification:'Cabin Bold';fill:#cf0000;fill-opacity:1;stroke-width:19.505"
       x="632.64532"
       y="245.04564">X-CORP</tspan></text><text
     xml:space="preserve"
     style="font-size:229.443px;fill:#a88c56;fill-opacity:1;stroke-width:19.1203"
     x="612.2149"
     y="473.56042"
     id="text975"><tspan
       sodipodi:role="line"
       id="tspan973"
       style="font-style:normal;font-variant:normal;font-weight:bold;font-stretch:normal;font-family:Cabin;-inkscape-font-specification:'Cabin Bold';fill:#a88c56;fill-opacity:1;stroke-width:19.1203"
       x="612.2149"
       y="473.56042">PROPERTI</tspan></text><text
     xml:space="preserve"
     style="font-size:104.973px;fill:#a88c56;fill-opacity:1;stroke-width:8.74778"
     x="1442.1973"
     y="212.33472"
     id="text1186"
     transform="rotate(1.37119)"><tspan
       sodipodi:role="line"
       id="tspan1184"
       style="font-style:normal;font-variant:normal;font-weight:bold;font-stretch:normal;font-family:Cabin;-inkscape-font-specification:'Cabin Bold';fill:#a88c56;fill-opacity:1;stroke-width:8.74778"
       x="1442.1973"
       y="212.33472">.com</tspan></text><rect
     style="fill:#a88c56;stroke-width:8.13764"
     id="rect402"
     width="26.035007"
     height="159.46442"
     x="537.4436"
     y="192.12309" /></g></g>
</svg>
