<?xml version="1.0" encoding="UTF-8" standalone="no"?>
<!-- Created with Inkscape (http://www.inkscape.org/) -->

<svg
   version="1.1"
   id="svg2255"
   width="210"
   height="50"
   viewBox="0 0 210 50.000002"
   sodipodi:docname="partner-logo-3.svg"
   inkscape:version="1.2.2 (732a01da63, 2022-12-09)"
   xmlns:inkscape="http://www.inkscape.org/namespaces/inkscape"
   xmlns:sodipodi="http://sodipodi.sourceforge.net/DTD/sodipodi-0.dtd"
   xmlns="http://www.w3.org/2000/svg"
   xmlns:svg="http://www.w3.org/2000/svg">
  <defs
     id="defs2259" />
  <sodipodi:namedview
     id="namedview2257"
     pagecolor="#ffffff"
     bordercolor="#000000"
     borderopacity="0.25"
     inkscape:showpageshadow="2"
     inkscape:pageopacity="0.0"
     inkscape:pagecheckerboard="0"
     inkscape:deskcolor="#d1d1d1"
     showgrid="false"
     inkscape:zoom="1.5862247"
     inkscape:cx="268.5622"
     inkscape:cy="-2.5217108"
     inkscape:window-width="1366"
     inkscape:window-height="697"
     inkscape:window-x="-8"
     inkscape:window-y="-8"
     inkscape:window-maximized="1"
     inkscape:current-layer="g2263">
    <inkscape:page
       x="0"
       y="0"
       id="page2261"
       width="210"
       height="50.000004"
       inkscape:export-filename="Page 1.png"
       inkscape:export-xdpi="96"
       inkscape:export-ydpi="96" />
  </sodipodi:namedview>
  <g
     id="g2263"
     inkscape:groupmode="layer"
     inkscape:label="Page 1"
     transform="matrix(1.3333333,0,0,-1.3333333,0,1122.5197)">
    <path
       d="m 24.659225,840.30442 6.500338,-3.56136 1.18966,-0.65181 -6.154332,-1.59556 7.259798,0.98995 4.205158,-2.30386 v -1.73344 l -4.96422,-1.28699 4.96422,0.67695 v -4.77921 -2.45549 l -0.237753,0.47104 c -0.200169,0.39664 -0.402285,0.79245 -0.603403,1.18861 l -0.550603,1.08472 -0.550705,-1.08472 c -0.06093,-0.11996 -0.121913,-0.23992 -0.182939,-0.35988 l -0.131227,0.33429 c -0.200034,0.50944 -0.402192,1.01821 -0.603213,1.52724 l -0.574362,1.4542 -0.574408,-1.4542 c -0.03157,-0.0798 -0.06315,-0.15967 -0.09473,-0.23952 l -0.156783,0.36392 c -0.199758,0.46354 -0.402367,0.92602 -0.603538,1.38892 l -0.56634,1.30352 -0.566446,-1.30347 c -0.128746,-0.29625 -0.258068,-0.59236 -0.386897,-0.88866 -0.08999,0.20659 -0.180049,0.41313 -0.269841,0.61974 l -0.566349,1.30351 -0.566438,-1.30347 c -0.02028,-0.0466 -0.04053,-0.0933 -0.06085,-0.13991 -0.207631,0.44046 -0.414595,0.8811 -0.621988,1.32169 l -0.558661,1.18689 -0.283637,-0.6024 -0.083,0.17534 c -0.232924,0.4937 -0.46489,0.98762 -0.697365,1.48151 l -0.558699,1.18694 -0.558792,-1.1869 c -0.14739,-0.31302 -0.294544,-0.62614 -0.441915,-0.93923 l -0.11422,0.2493 -1.25905,2.67547 -0.558796,-1.18775 -0.700298,-1.48763 -0.111548,-0.25494 c -0.148238,0.31488 -0.296296,0.62986 -0.444534,0.94478 l -0.558796,1.1869 -0.558709,-1.18694 c -0.23246,-0.49389 -0.464523,-0.98803 -0.697448,-1.48174 l -0.08292,-0.17511 -0.283622,0.6024 -0.558661,-1.18689 c -0.207355,-0.44055 -0.414357,-0.88129 -0.621988,-1.32169 -0.02032,0.0466 -0.04059,0.0933 -0.06085,0.13991 l -0.566437,1.30347 -0.56635,-1.30351 c -0.08981,-0.20661 -0.17987,-0.41315 -0.269841,-0.61974 -0.128828,0.2963 -0.258164,0.59241 -0.386896,0.88866 l -0.566447,1.30347 -0.566354,-1.30352 c -0.201157,-0.4629 -0.40377,-0.92538 -0.603523,-1.38892 l -0.156798,-0.36392 c -0.03158,0.0799 -0.06315,0.15969 -0.09472,0.23952 l -0.574402,1.4542 -0.574363,-1.4542 c -0.201021,-0.50903 -0.403194,-1.0178 -0.603223,-1.52724 l -0.131234,-0.33429 c -0.06101,0.11996 -0.121995,0.23992 -0.182923,0.35988 l -0.550705,1.08472 -0.550604,-1.08472 c -0.2011,-0.39616 -0.403215,-0.79197 -0.603384,-1.18861 l -0.190719,-0.37776 v 2.36221 5.16008 l 6.256289,1.62203 -6.256289,-0.8531 v 1.19368 l 6.500338,3.56128 0.511432,0.28019 4.630425,-0.63141 -3.92538,1.01772 z m 13.000622,-17.16027 v -0.0699 l -0.03908,0.0342 z"
       style="fill:#abcd04;fill-opacity:1;fill-rule:evenodd;stroke:none;stroke-width:0.0483899"
       id="path2267" />
    <path
       d="m 26.194891,834.49569 7.259798,0.98995 1.396149,-0.7649 z m 6.500736,-4.33434 4.96422,0.67695 v -0.874 z m -21.037025,-0.38614 v 1.44396 l 6.256289,1.62203 c 0,0 -3.678794,-1.81273 -6.256289,-3.06599 z m 5.676588,6.51652 0.82375,0.45133 0.511432,0.28019 4.630425,-0.63141 z"
       style="fill:#90b423;fill-opacity:1;fill-rule:evenodd;stroke:none;stroke-width:0.0483899"
       id="path2269" />
    <path
       d="m 26.528593,831.59762 -0.07771,-0.16507 c -0.14739,-0.31302 -0.294544,-0.62614 -0.441915,-0.93923 l -0.11422,0.2493 -1.25905,2.67547 -0.558796,-1.18775 -0.700298,-1.48763 -0.111548,-0.25494 c -0.148238,0.31488 -0.296296,0.62986 -0.444534,0.94478 l -0.558796,1.1869 -0.558709,-1.18694 c -0.23246,-0.49389 -0.464523,-0.98803 -0.697448,-1.48174 l -0.08292,-0.17511 -0.283622,0.6024 -0.558661,-1.18689 -0.257434,-0.54722 c -0.434715,0.61104 -0.690397,1.35844 -0.690397,2.16549 0,2.06541 1.674356,3.73976 3.73978,3.73976 1.795007,0 3.294337,-1.26474 3.656269,-2.95158"
       style="fill:#ffffff;fill-opacity:1;fill-rule:evenodd;stroke:none;stroke-width:0.0483899"
       id="path2271" />
    <path
       d="m 38.481967,818.84321 h 0.04713 v -0.0588 -5.72888 l -6.934955,-4.39864 -6.934913,-4.39859 -6.934956,4.39859 -6.934918,4.39864 v 5.40472 0.383 h 0.351397 l 0.532831,0.58084 -0.569834,0.0698 0.707348,0.79628 -0.589471,-0.014 0.766345,0.5588 -0.43231,0.20948 0.687717,0.57277 -0.550164,-0.014 0.727029,0.55876 -0.41264,-0.014 0.393013,0.39121 -0.510895,-0.0419 0.687677,0.60064 -0.275038,0.25141 c 0,0 0.130996,0.13974 0.393003,0.41911 0,0 -0.09824,0.009 -0.294747,0.0279 0,0 0.200939,0.39578 0.602758,1.18736 0.401873,-0.79158 0.602768,-1.18736 0.602768,-1.18736 -0.196448,-0.0186 -0.294703,-0.028 -0.294703,-0.028 0.261948,-0.27933 0.392959,-0.41907 0.392959,-0.41907 l -0.275077,-0.25141 0.64868,-0.56662 0.38469,0.38002 -0.412645,-0.0181 0.393003,0.5028 -0.510885,-0.0538 0.687668,0.77199 -0.275038,0.32317 c 0,0 0.13101,0.17962 0.393012,0.53866 0,0 -0.09825,0.0119 -0.294757,0.0359 0,0 0.200934,0.50867 0.602769,1.52608 0.401877,-1.01741 0.602772,-1.52608 0.602772,-1.52608 -0.196467,-0.024 -0.294718,-0.036 -0.294718,-0.036 0.261963,-0.359 0.392974,-0.53862 0.392974,-0.53862 l -0.275091,-0.32317 0.383329,-0.43032 0.426538,0.41503 -0.550169,-0.0163 0.727033,0.65283 -0.412644,-0.0164 0.393013,0.45706 -0.510895,-0.0489 0.687677,0.70174 -0.275033,0.29376 c 0,0 0.130996,0.16331 0.393012,0.48963 0,0 -0.09825,0.0109 -0.294761,0.0327 0,0 0.200938,0.4624 0.602758,1.38721 0.401878,-0.92481 0.602773,-1.38721 0.602773,-1.38721 -0.196453,-0.0218 -0.294704,-0.0327 -0.294704,-0.0327 0.261949,-0.32628 0.39296,-0.48959 0.39296,-0.48959 l -0.275078,-0.29376 0.600548,-0.61286 0.33705,0.34398 -0.275039,0.29376 c 0,0 0.131011,0.16329 0.393018,0.48963 0,0 -0.09826,0.0109 -0.294762,0.0327 0,0 0.200939,0.46239 0.602773,1.38719 0.401873,-0.9248 0.602758,-1.38719 0.602758,-1.38719 -0.196453,-0.0218 -0.294709,-0.0327 -0.294709,-0.0327 l 0.328229,-0.40894 0.678546,0.63919 -0.318424,0.31394 c 0,0 0.151683,0.17452 0.455029,0.52324 0,0 -0.11377,0.0116 -0.34126,0.0349 0,0 0.23261,0.49415 0.697816,1.48246 l 0.383958,-0.81551 0.745524,0.70229 -0.318411,0.31394 c 0,0 0.151669,0.17452 0.455029,0.52324 0,0 -0.113769,0.0116 -0.341259,0.0349 0,0 0.232595,0.49415 0.697801,1.48246 0.465302,-0.98831 0.697854,-1.48246 0.697854,-1.48246 -0.227452,-0.0233 -0.341163,-0.035 -0.341163,-0.035 0.303249,-0.34867 0.454932,-0.52319 0.454932,-0.52319 l -0.318463,-0.31394 0.773628,-0.72875 0.431995,0.35814 -0.477646,-0.0176 4.8e-5,5e-5 h -9.7e-5 l 0.454986,0.48837 -0.591416,-0.0522 -4.8e-5,-5e-5 4.8e-5,5e-5 0.7961,0.7499 -0.318453,0.31394 h 4.3e-5 l 3.9e-5,1.5e-4 h 4.8e-5 l 2.88e-4,2.6e-4 h 3.9e-5 l 4.98e-4,5.2e-4 h 4.4e-5 l 7.34e-4,7.9e-4 h 4.8e-5 l 9.44e-4,10e-4 h 4.3e-5 l 0.0012,10e-4 h 4.3e-5 l 0.0014,0.002 h 4.8e-5 l 0.0016,0.002 h 4.8e-5 l 0.0019,0.002 h 3.8e-5 l 0.0021,0.002 h 4.4e-5 l 0.0023,0.003 h 3.9e-5 l 0.0025,0.003 h 4.4e-5 l 0.0027,0.003 h 4.8e-5 l 0.0029,0.003 h 4.4e-5 l 0.0032,0.004 h 4.9e-5 l 0.0034,0.004 h 4.4e-5 l 0.0036,0.004 h 4.3e-5 l 0.0039,0.004 h 4.4e-5 l 0.0084,0.01 h 3.9e-5 l 0.0045,0.005 h 3.9e-5 l 0.0048,0.005 h 4.4e-5 l 0.0049,0.006 h 4.9e-5 l 0.01063,0.0123 h 4.4e-5 l 0.0056,0.007 h 4.4e-5 l 0.0058,0.007 h 4.4e-5 l 0.0061,0.007 h 3.8e-5 l 0.0063,0.007 h 4.3e-5 l 0.0065,0.007 h 4.3e-5 l 0.0067,0.008 h 4.9e-5 l 0.007,0.008 h 3.9e-5 l 0.0071,0.008 h 4.3e-5 l 0.0074,0.009 h 4.4e-5 l 0.0076,0.009 h 4.9e-5 l 0.01596,0.0184 h 4.3e-5 l 0.0083,0.01 h 3.9e-5 l 0.0085,0.01 h 3.9e-5 l 0.0087,0.0101 h 3.9e-5 l 0.009,0.0104 h 4.4e-5 l 0.0092,0.0106 9.7e-5,4e-5 0.0094,0.0108 9.6e-5,5e-5 0.0096,0.0111 h 3.9e-5 l 0.0098,0.0113 9.7e-5,4e-5 0.01004,0.0116 4.3e-5,5e-5 0.03163,0.0364 h 4.3e-5 l 0.01095,0.0126 9.6e-5,4e-5 0.07052,0.0812 9.7e-5,4e-5 0.01249,0.0144 9.7e-5,4e-5 0.09396,0.10811 -0.01859,0.002 h -1.46e-4 l -0.0052,5.2e-4 h -1.45e-4 l -0.0091,0.001 h -1.45e-4 l -0.01451,0.002 h -1.45e-4 l -0.0082,7.9e-4 h -1.45e-4 l -0.0043,5.3e-4 h -9.7e-5 l -0.0092,0.001 h -9.7e-5 l -0.02055,0.002 h -9.7e-5 l -0.01715,0.002 h -9.6e-5 l -0.01225,0.001 h -9.7e-5 l -0.01289,10e-4 h -9.7e-5 l -0.01358,10e-4 h -9.6e-5 l -0.007,7.8e-4 h -9.6e-5 l -0.0071,7.9e-4 h -9.6e-5 l -0.02266,0.002 h -3.9e-5 l -0.0079,7.9e-4 h -4.3e-5 l -0.008,7.8e-4 h -9.7e-5 l -0.0082,7.9e-4 h -4.4e-5 l -0.0084,7.9e-4 h -3.9e-5 l -0.01728,0.002 h -3.9e-5 l -0.0089,7.9e-4 h -4.3e-5 l -0.0091,10e-4 h -3.9e-5 l -0.0092,0.001 h -4.8e-5 l -0.0094,10e-4 h -4.8e-5 l -0.0095,10e-4 h -3.9e-5 l -0.0097,10e-4 h -9.7e-5 l -0.0099,10e-4 h -4.3e-5 l -0.01,0.001 h -9.7e-5 l -0.01018,10e-4 h -3.8e-5 l -0.01036,10e-4 h -4.8e-5 l -0.01054,10e-4 h -3.9e-5 3.9e-5 l 1.45e-4,2.6e-4 h 3.9e-5 l 4.46e-4,10e-4 h 3.8e-5 l 8.13e-4,0.002 h 4.3e-5 l 0.0011,0.003 h 4.3e-5 l 0.0015,0.003 h 3.9e-5 l 0.0019,0.004 h 3.9e-5 l 0.0022,0.005 h 4.3e-5 l 0.0025,0.005 h 4.8e-5 l 0.0029,0.006 h 3.9e-5 l 0.0032,0.007 h 4.3e-5 l 0.0035,0.008 h 4.9e-5 l 0.0038,0.008 h 4.4e-5 l 0.0042,0.009 h 4.4e-5 l 0.0046,0.01 h 4.8e-5 l 0.0049,0.0105 h 4.4e-5 l 0.0053,0.0112 h 4.4e-5 l 0.0056,0.012 h 3.9e-5 l 0.0059,0.0127 h 3.9e-5 l 0.0129,0.0275 h 3.8e-5 l 0.007,0.0148 h 4.8e-5 l 0.0073,0.0155 h 3.9e-5 l 0.0076,0.0163 h 3.8e-5 l 0.008,0.017 h 4.4e-5 l 0.0083,0.0177 h 4.4e-5 l 0.0086,0.0185 h 3.9e-5 l 0.009,0.0192 h 4.8e-5 l 0.01904,0.0405 h 3.9e-5 l 0.02041,0.0434 h 4.4e-5 l 0.02176,0.0463 h 3.8e-5 l 0.02313,0.0492 h 4.4e-5 l 0.01207,0.0257 h 4.9e-5 l 0.01238,0.0264 h 4.8e-5 l 0.0127,0.0271 h 4.8e-5 l 0.01307,0.0279 h 4.4e-5 l 0.01343,0.0286 h 4.9e-5 l 0.01375,0.0293 h 4.9e-5 l 0.01406,0.03 h 3.9e-5 l 0.02927,0.0622 h 4.3e-5 l 0.01511,0.0322 h 4.4e-5 l 0.01547,0.0329 h 4.4e-5 l 0.01579,0.0336 h 4.9e-5 l 0.01614,0.0344 h 4.3e-5 l 0.01647,0.0351 h 4.4e-5 l 0.01683,0.0358 h 3.8e-5 l 0.01719,0.0366 h 4.8e-5 l 0.0175,0.0373 h 3.9e-5 l 0.01782,0.038 h 4.9e-5 l 0.01817,0.0387 h 4.8e-5 l 0.01854,0.0394 0.0189,0.0402 h 4.9e-5 l 0.01922,0.0409 0.01959,0.0416 0.0199,0.0424 h 4.9e-5 l 0.02026,0.0431 0.02059,0.0438 h 3.9e-5 l 0.02095,0.0445 0.0213,0.0452 0.02162,0.046 0.02163,-0.046 0.0213,-0.0452 0.02094,-0.0445 h 4.3e-5 l 0.02059,-0.0438 0.02026,-0.0431 h 3.9e-5 l 0.0199,-0.0424 0.01959,-0.0416 0.01923,-0.0409 h 4.4e-5 l 0.01891,-0.0402 0.01854,-0.0394 h 4.3e-5 l 0.01818,-0.0387 h 4.4e-5 l 0.01783,-0.038 h 3.9e-5 l 0.0175,-0.0373 h 4.4e-5 l 0.0172,-0.0366 h 3.9e-5 l 0.01683,-0.0358 h 4.4e-5 l 0.01646,-0.0351 h 4.9e-5 l 0.01614,-0.0344 h 3.9e-5 l 0.01579,-0.0336 h 4.8e-5 l 0.01546,-0.0329 h 4.8e-5 l 0.0151,-0.0322 h 4.9e-5 l 0.02926,-0.0622 h 4.8e-5 l 0.01406,-0.03 h 3.8e-5 l 0.01376,-0.0293 h 3.9e-5 l 0.01344,-0.0286 h 4.3e-5 l 0.01307,-0.0279 h 3.8e-5 l 0.01272,-0.0271 h 4.4e-5 l 0.0124,-0.0264 h 4.4e-5 l 0.01208,-0.0257 h 4.4e-5 l 0.02311,-0.0492 h 4.9e-5 l 0.01103,-0.0235 h 4.9e-5 l 0.01067,-0.0228 h 3.9e-5 l 0.02041,-0.0434 h 4.3e-5 l 0.01904,-0.0405 h 4.4e-5 l 0.009,-0.0192 h 4.9e-5 l 0.0086,-0.0185 h 4.4e-5 l 0.0083,-0.0177 h 4.4e-5 l 0.008,-0.017 h 4.9e-5 l 0.0076,-0.0163 h 3.9e-5 l 0.0073,-0.0155 h 4.4e-5 l 0.007,-0.0148 h 4.8e-5 l 0.01288,-0.0275 h 4.8e-5 l 0.0059,-0.0127 h 3.9e-5 l 0.0056,-0.012 h 4.4e-5 l 0.0052,-0.0112 h 4.9e-5 l 0.0049,-0.0105 h 3.9e-5 l 0.0046,-0.01 h 4.8e-5 l 0.0042,-0.009 h 4.9e-5 l 0.0038,-0.008 h 4.4e-5 l 0.0035,-0.008 h 4.8e-5 l 0.0032,-0.007 h 3.8e-5 l 0.0029,-0.006 h 3.8e-5 l 0.0025,-0.005 h 4.3e-5 l 0.0022,-0.005 h 4.8e-5 l 0.0019,-0.004 h 3.9e-5 l 0.0015,-0.003 h 4.4e-5 l 0.0011,-0.003 h 3.9e-5 l 8.12e-4,-0.002 h 4.8e-5 l 4.46e-4,-10e-4 h 3.9e-5 l 1.45e-4,-2.6e-4 -0.01055,-10e-4 h -4.3e-5 l -0.01036,-10e-4 h -4.4e-5 l -0.01018,-10e-4 h -9.7e-5 l -0.01,-0.001 h -4.3e-5 l -0.0099,-10e-4 h -9.7e-5 l -0.0097,-10e-4 h -4.8e-5 l -0.0095,-10e-4 h -4.4e-5 l -0.0094,-10e-4 h -3.9e-5 l -0.0092,-0.001 h -4.8e-5 l -0.009,-10e-4 h -4.4e-5 l -0.0089,-7.8e-4 h -3.8e-5 l -0.01728,-0.002 h -3.9e-5 l -0.0084,-7.9e-4 h -4.8e-5 l -0.0082,-7.8e-4 h -9.7e-5 l -0.008,-7.9e-4 h -4.4e-5 l -0.0079,-7.8e-4 h -4.4e-5 l -0.02266,-0.002 h -9.6e-5 l -0.0071,-7.9e-4 h -1.37e-4 l -0.007,-7.9e-4 h -9.7e-5 l -0.01358,-10e-4 h -9.7e-5 l -0.01289,-10e-4 h -9.7e-5 l -0.01226,-10e-4 h -9.7e-5 l -0.01715,-0.002 h -9.7e-5 l -0.02053,-0.002 h -1.46e-4 l -0.0092,-10e-4 h -9.7e-5 l -0.0043,-5.2e-4 h -1.45e-4 l -0.0082,-7.9e-4 h -1.45e-4 l -0.01453,-0.002 h -1.45e-4 l -0.0091,-10e-4 h -1.45e-4 l -0.0052,-5.3e-4 h -1.45e-4 l -0.01859,-0.002 0.09394,-0.10812 9.6e-5,-3e-5 0.01249,-0.0144 9.6e-5,-3e-5 0.07052,-0.0812 9.7e-5,-4e-5 0.01095,-0.0126 h 4.4e-5 l 0.03162,-0.0364 4.9e-5,-4e-5 0.01004,-0.0116 9.7e-5,-4e-5 0.0098,-0.0113 h 4.3e-5 l 0.0096,-0.0111 9.7e-5,-4e-5 0.0094,-0.0108 9.6e-5,-4e-5 0.0091,-0.0106 h 4.8e-5 l 0.009,-0.0104 h 3.9e-5 l 0.0087,-0.0101 h 4.8e-5 l 0.0085,-0.01 h 3.9e-5 l 0.0083,-0.01 h 4.8e-5 l 0.01596,-0.0184 h 4.3e-5 l 0.0076,-0.009 h 4.8e-5 l 0.0074,-0.009 h 4.8e-5 l 0.01415,-0.0163 h 3.9e-5 l 0.0067,-0.008 h 4.4e-5 l 0.0065,-0.008 h 4.3e-5 l 0.0063,-0.007 h 4.8e-5 l 0.0061,-0.007 h 4.4e-5 l 0.0058,-0.007 h 4.9e-5 l 0.0056,-0.007 h 4.4e-5 l 0.01063,-0.0123 h 4.4e-5 l 0.0049,-0.006 h 4.3e-5 l 0.0047,-0.005 h 4.8e-5 l 0.0045,-0.005 h 4.8e-5 l 0.0084,-0.01 h 4.3e-5 l 0.0038,-0.004 h 4.8e-5 l 0.0036,-0.004 h 4.9e-5 l 0.0034,-0.004 h 3.9e-5 l 0.0032,-0.004 h 4.3e-5 l 0.0029,-0.003 h 4.8e-5 l 0.0027,-0.003 h 4.8e-5 l 0.0025,-0.003 h 4.8e-5 l 0.0023,-0.003 h 4.4e-5 l 0.0021,-0.002 h 4.3e-5 l 0.0019,-0.002 h 3.9e-5 l 0.0016,-0.002 h 4.4e-5 l 0.0014,-0.002 h 3.9e-5 l 0.0012,-10e-4 h 4.3e-5 l 9.44e-4,-10e-4 h 4.3e-5 l 7.34e-4,-7.8e-4 h 4.9e-5 l 4.98e-4,-5.3e-4 h 4.3e-5 l 3.41e-4,-2.6e-4 h 4.9e-5 l 3.8e-5,-1.4e-4 h 4.4e-5 l -0.318463,-0.31394 0.796109,-0.74991 -0.591416,0.0522 0.454986,-0.48838 h -9.7e-5 l 4.4e-5,-4e-5 -0.477632,0.0176 0.431995,-0.35813 0.773613,0.72874 -0.318448,0.31395 c 0,0 0.151668,0.17451 0.454932,0.52318 0,0 -0.113726,0.0117 -0.341163,0.035 0,0 0.232552,0.49414 0.69784,1.48245 0.465205,-0.98831 0.697815,-1.48245 0.697815,-1.48245 -0.227495,-0.0233 -0.34126,-0.0349 -0.34126,-0.0349 0.303347,-0.34872 0.455029,-0.52323 0.455029,-0.52323 l -0.318424,-0.31395 0.745538,-0.70228 0.383958,0.8155 c 0.465206,-0.98831 0.697801,-1.48245 0.697801,-1.48245 -0.227476,-0.0233 -0.341245,-0.0349 -0.341245,-0.0349 0.303347,-0.34872 0.455029,-0.52323 0.455029,-0.52323 l -0.318424,-0.31395 0.678546,-0.63918 0.328228,0.40894 c 0,0 -0.09826,0.0109 -0.294718,0.0327 0,0 0.200895,0.46239 0.602768,1.38719 0.401834,-0.9248 0.602773,-1.38719 0.602773,-1.38719 -0.196506,-0.0218 -0.294762,-0.0327 -0.294762,-0.0327 0.262007,-0.32634 0.393003,-0.48964 0.393003,-0.48964 l -0.275023,-0.29376 0.337049,-0.34397 0.600547,0.61285 -0.275076,0.29377 c 0,0 0.130996,0.1633 0.392959,0.48958 0,0 -0.09825,0.0109 -0.294704,0.0327 0,0 0.200881,0.46241 0.602759,1.38721 0.401834,-0.9248 0.602767,-1.38721 0.602767,-1.38721 -0.196506,-0.0218 -0.294756,-0.0327 -0.294756,-0.0327 0.262001,-0.32632 0.393012,-0.48962 0.393012,-0.48962 l -0.275033,-0.29377 0.687678,-0.70174 -0.510901,0.0489 0.393003,-0.45705 -0.412629,0.0164 0.727018,-0.65284 -0.550153,0.0163 0.426522,-0.41503 0.38333,0.43033 -0.275077,0.32316 c 0,0 0.131011,0.17963 0.39296,0.53862 0,0 -0.09824,0.012 -0.294704,0.036 0,0 0.200895,0.50867 0.602772,1.52608 0.401819,-1.01741 0.602754,-1.52608 0.602754,-1.52608 -0.196492,-0.024 -0.294742,-0.0359 -0.294742,-0.0359 0.262002,-0.35903 0.392998,-0.53866 0.392998,-0.53866 l -0.275038,-0.32316 0.687683,-0.772 -0.510901,0.0538 0.393016,-0.5028 -0.412642,0.0181 0.384689,-0.38003 0.648679,0.56663 -0.275077,0.25141 c 0,0 0.130996,0.13973 0.392959,0.41907 0,0 -0.09826,0.009 -0.294708,0.0279 0,0 0.200884,0.39577 0.602758,1.18735 0.401835,-0.79158 0.602772,-1.18735 0.602772,-1.18735 -0.196504,-0.0186 -0.294761,-0.0279 -0.294761,-0.0279 0.262008,-0.27938 0.393017,-0.41911 0.393017,-0.41911 l -0.275038,-0.25141 0.687678,-0.60065 -0.510896,0.0419 0.393014,-0.3912 -0.41264,0.014 0.727013,-0.55875 -0.550152,0.014 0.687719,-0.57277 -0.432309,-0.20949 0.766331,-0.5588 -0.589466,0.014 0.707358,-0.79629 -0.569835,-0.0698 0.532826,-0.58084 h 0.351306 z m -12.556994,10.01974 3.9e-5,-5e-5 z m -0.591459,1.62201 h 4.3e-5 z m -4.130349,-2.75496 -0.160621,0.34123 0.52143,0.0461 z m -7.358039,-5.42874 -0.238988,0.23785 0.443,-0.0363 z"
       style="fill:#000000;fill-opacity:1;fill-rule:evenodd;stroke:none;stroke-width:0.0483899"
       id="path2273" />
    <path
       d="m 19.171585,809.43158 5.487655,-3.48065 5.48764,3.48065 c -3.678639,0.39043 -7.33694,0.38829 -10.975295,0"
       style="fill:#abcd04;fill-opacity:1;fill-rule:evenodd;stroke:none;stroke-width:0.0483899"
       id="path2275" />
    <path
       d="m 12.920106,814.07716 c 0,0 -0.239206,-0.031 -0.239206,-0.031 0,0 -0.122107,0.27464 -0.122107,0.27464 0,0 0,0.43611 0,0.8722 0,0.43572 0,0.87225 0,0.87225 0,0 0.122107,0.29529 0.122107,0.29529 0,0 0.239206,0.009 0.239206,0.009 0,0 0.122097,-0.28083 0.122097,-0.28083 0,0 0,-0.42785 0,-0.85487 0,-0.42746 0,-0.85488 0,-0.85488 0,0 -0.122097,-0.30149 -0.122097,-0.30149 z m -0.480923,-0.93873 c 0,0 0.72263,0.121 0.72263,0.121 0,0 0.241717,0.60131 0.241717,0.60131 0,0 0,0.70127 0,1.40294 0,0.70124 0,1.40251 0,1.40251 0,0 -0.241717,0.5629 -0.241717,0.5629 0,0 -0.72263,0 -0.72263,0 0,0 -0.239205,-0.5914 -0.239205,-0.5914 0,0 0,-0.73718 0,-1.47436 0,-0.7372 0,-1.47438 0,-1.47438 0,0 0.239205,-0.55052 0.239205,-0.55052 z m 1.445269,0.23871 c 0,0 0.600538,0.0867 0.600538,0.0867 0,0 0.241717,0.56704 0.241717,0.56704 0,0 0,0.59924 0,1.19888 0,0.59968 0,1.19932 0,1.19932 0,0 0.11961,0.004 0.11961,0.004 0,0 0,0.79624 0,0.79624 0,0 -0.600562,0 -0.600562,0 0,0 0,-0.81483 0,-0.81483 0,0 0.119625,0.004 0.119625,0.004 0,0 0,-0.47286 0,-0.94573 0,-0.47286 0,-0.94573 0,-0.94573 0,0 -0.119625,-0.28414 -0.119625,-0.28414 0,0 -0.122078,-0.0136 -0.122078,-0.0136 0,0 -0.11961,0.26059 -0.11961,0.26059 0,0 0,0.47906 0,0.95853 0,0.47949 0,0.95896 0,0.95896 0,0 0.11961,0.004 0.11961,0.004 0,0 0,0.81855 0,0.81855 0,0 -0.600537,0 -0.600537,0 0,0 0,-0.83839 0,-0.83839 0,0 0.119595,0.004 0.119595,0.004 0,0 0,-0.62485 0,-1.25011 0,-0.62486 0,-1.25011 0,-1.25011 0,0 0.241717,-0.51748 0.241717,-0.51748 z m 1.442792,0.20774 c 0,0 0.603015,0.0735 0.603015,0.0735 0,0 0,0.76444 0,0.76444 0,0 -0.11961,-0.0115 -0.11961,-0.0115 0,0 0,0.5125 0,1.02419 0,0.5121 0,1.02463 0,1.02463 0,0 0.11961,0.003 0.11961,0.003 0,0 0,-0.25524 0,-0.25524 0,0 0.361303,0.0124 0.361303,0.0124 0,0 0,0.25234 0,0.50384 0,0.25194 0,0.50469 0,0.50469 0,0 -1.323162,0 -1.323162,0 0,0 0,-0.26473 0,-0.52863 0,-0.2639 0,-0.52821 0,-0.52821 0,0 0.358844,0.0149 0.358844,0.0149 0,0 0,0.26061 0,0.26061 0,0 0.122093,0.003 0.122093,0.003 0,0 0,-0.5187 0,-1.037 0,-0.5183 0,-1.03701 0,-1.03701 0,0 -0.122093,-0.0116 -0.122093,-0.0116 0,0 0,-0.78013 0,-0.78013 z m 1.806572,0.94862 c 0,0 -0.23921,-0.0182 -0.23921,-0.0182 0,0 0,0.49311 0,0.9862 0,0.49312 0,0.98706 0,0.98706 0,0 0.23921,0.005 0.23921,0.005 0,0 0.122107,-0.24161 0.122107,-0.24161 0,0 0,-0.36632 0,-0.73223 0,-0.36591 0,-0.7318 0,-0.7318 0,0 -0.122107,-0.25441 -0.122107,-0.25441 z m -0.72263,-0.81605 c 0,0 0.964347,0.10655 0.964347,0.10655 0,0 0.23922,0.50673 0.23922,0.50673 0,0 0,0.60337 0,1.20676 0,0.60378 0,1.20715 0,1.20715 0,0 -0.23922,0.48445 -0.23922,0.48445 0,0 -0.964347,0 -0.964347,0 0,0 0,-0.75331 0,-0.75331 0,0 0.122093,0.003 0.122093,0.003 0,0 0,-0.50014 0,-0.99943 0,-0.4993 0,-0.99902 0,-0.99902 0,0 -0.122093,-0.0116 -0.122093,-0.0116 0,0 0,-0.75163 0,-0.75163 z m 2.048289,0.92013 c 0,0 -0.241688,-0.0186 -0.241688,-0.0186 0,0 -0.119625,0.2288 -0.119625,0.2288 0,0 0,0.35724 0,0.71405 0,0.35682 0,0.71406 0,0.71406 0,0 0.119625,0.24118 0.119625,0.24118 0,0 0.241688,0.005 0.241688,0.005 0,0 0.11961,-0.23335 0.11961,-0.23335 0,0 0,-0.35229 0,-0.70455 0,-0.35229 0,-0.70456 0,-0.70456 0,0 -0.11961,-0.24202 -0.11961,-0.24202 z m -0.483405,-0.75369 c 0,0 0.722625,0.0665 0.722625,0.0665 0,0 0.241717,0.48404 0.241717,0.48404 0,0 0,0.58189 0,1.16379 0,0.58191 0,1.1638 0,1.1638 0,0 -0.241717,0.4671 -0.241717,0.4671 0,0 -0.722625,0 -0.722625,0 0,0 -0.239239,-0.48278 -0.239239,-0.48278 0,0 0,-0.60131 0,-1.20263 0,-0.60131 0,-1.20305 0,-1.20305 0,0 0.239239,-0.45674 0.239239,-0.45674 z m 1.806572,0.83463 c 0,0 -0.241693,-0.0153 -0.241693,-0.0153 0,0 -0.11961,0.22342 -0.11961,0.22342 0,0 0,0.34526 0,0.69012 0,0.34524 0,0.69091 0,0.69091 0,0 0.11961,0.2321 0.11961,0.2321 0,0 0.241693,0.004 0.241693,0.004 0,0 0.11961,-0.2259 0.11961,-0.2259 0,0 0,-0.34114 0,-0.68269 0,-0.34111 0,-0.68225 0,-0.68225 0,0 -0.11961,-0.23458 -0.11961,-0.23458 z m -0.480913,-0.72148 c 0,0 0.72263,0.0553 0.72263,0.0553 0,0 0.239234,0.46461 0.239234,0.46461 0,0 0,0.56499 0,1.12953 0,0.56456 0,1.12953 0,1.12953 0,0 -0.239234,0.45306 -0.239234,0.45306 0,0 -0.72263,0 -0.72263,0 0,0 -0.241717,-0.46586 -0.241717,-0.46586 0,0 0,-0.58025 0,-1.1605 0,-0.58024 0,-1.1605 0,-1.1605 0,0 0.241717,-0.44519 0.241717,-0.44519 z m 1.926182,2.1207 c 0,0 -0.361303,-0.007 -0.361303,-0.007 0,0 0,0.44726 0,0.44726 0,0 0.361303,0.004 0.361303,0.004 0,0 0.11961,-0.22053 0.11961,-0.22053 0,0 -0.11961,-0.22383 -0.11961,-0.22383 z m -0.842225,-2.04553 c 0,0 0.600537,0.0334 0.600537,0.0334 0,0 0,0.66861 0,0.66861 0,0 -0.119615,-0.005 -0.119615,-0.005 0,0 0,0.67111 0,0.67111 0,0 0.119615,0.004 0.119615,0.004 0,0 0.181898,-0.66158 0.181898,-0.66158 0,0 -0.0623,-0.003 -0.0623,-0.003 0,0 0,-0.66699 0,-0.66699 0,0 0.603044,0.0298 0.603044,0.0298 0,0 0,0.66076 0,0.66076 0,0 -0.179416,-0.005 -0.179416,-0.005 0,0 -0.181926,0.65749 -0.181926,0.65749 0,0 0.119625,0.004 0.119625,0.004 0,0 0.241717,0.44646 0.241717,0.44646 0,0 0,0.22052 0,0.44065 0,0.22011 0,0.44067 0,0.44067 0,0 -0.241717,0.44231 -0.241717,0.44231 0,0 -1.08146,0 -1.08146,0 0,0 0,-0.6769 0,-0.6769 0,0 0.119595,10e-4 0.119595,10e-4 0,0 0,-0.45058 0,-0.90032 0,-0.44976 0,-0.89991 0,-0.89991 0,0 -0.119595,-0.005 -0.119595,-0.005 0,0 0,-0.67565 0,-0.67565 z m 2.888032,2.07111 c 0,0 -0.361303,-0.003 -0.361303,-0.003 0,0 0,0.43529 0,0.43529 0,0 0.361303,0.002 0.361303,0.002 0,0 0.11961,-0.2168 0.11961,-0.2168 0,0 -0.11961,-0.21725 -0.11961,-0.21725 z m -0.842226,-1.97778 c 0,0 0.600538,0.0206 0.600538,0.0206 0,0 0,0.6513 0,0.6513 0,0 -0.119615,-0.003 -0.119615,-0.003 0,0 0,0.65336 0,0.65336 0,0 0.603019,0.006 0.603019,0.006 0,0 0.239221,0.43488 0.239221,0.43488 0,0 0,0.21641 0,0.4328 0,0.21641 0,0.43323 0,0.43323 0,0 -0.239221,0.43447 -0.239221,0.43447 0,0 -1.083942,0 -1.083942,0 0,0 0,-0.65706 0,-0.65706 0,0 0.119596,7.8e-4 0.119596,7.8e-4 0,0 0,-0.43736 0,-0.87429 0,-0.43695 0,-0.87389 0,-0.87389 0,0 -0.119596,-0.003 -0.119596,-0.003 0,0 0,-0.65582 0,-0.65582 z m 2.2875,1.98316 c 0,0 -0.361303,-7.9e-4 -0.361303,-7.9e-4 0,0 0,0.432 0,0.432 0,0 0.361303,7.9e-4 0.361303,7.9e-4 0,0 0.11961,-0.21643 0.11961,-0.21643 0,0 -0.11961,-0.21557 -0.11961,-0.21557 z m -0.844737,-1.95178 c 0,0 0.603044,0.007 0.603044,0.007 0,0 0,0.64756 0,0.64756 0,0 -0.11961,-0.001 -0.11961,-0.001 0,0 0,0.6488 0,0.6488 0,0 0.11961,7.9e-4 0.11961,7.9e-4 0,0 0.1794,-0.64675 0.1794,-0.64675 0,0 -0.05981,-7.8e-4 -0.05981,-7.8e-4 0,0 0,-0.64716 0,-0.64716 0,0 0.603035,-0.005 0.603035,-0.005 0,0 0,0.64839 0,0.64839 0,0 -0.181912,0.002 -0.181912,0.002 0,0 -0.179415,0.65002 -0.179415,0.65002 0,0 0.119624,-7.8e-4 0.119624,-7.8e-4 0,0 0.241703,0.43073 0.241703,0.43073 0,0 0,0.21643 0,0.43241 0,0.216 0,0.43241 0,0.43241 0,0 -0.241703,0.43406 -0.241703,0.43406 0,0 -1.083971,0 -1.083971,0 0,0 0,-0.65047 0,-0.65047 0,0 0.122107,5.2e-4 0.122107,5.2e-4 0,0 0,-0.43323 0,-0.86603 0,-0.43281 0,-0.86564 0,-0.86564 0,0 -0.122107,-0.002 -0.122107,-0.002 0,0 0,-0.6488 0,-0.6488 z m 1.445269,0.002 c 0,0 0.603044,-0.007 0.603044,-0.007 0,0 0,0.65006 0,0.65006 0,0 -0.122107,10e-4 -0.122107,10e-4 0,0 0,0.43365 0,0.86727 0,0.43363 0,0.86769 0,0.86769 0,0 0.122107,-2.6e-4 0.122107,-2.6e-4 0,0 0,0.65129 0,0.65129 0,0 -0.603044,0 -0.603044,0 0,0 0,-0.65004 0,-0.65004 0,0 0.11961,0 0.11961,0 0,0 0,-0.43366 0,-0.86647 0,-0.43323 0,-0.86643 0,-0.86643 0,0 -0.11961,10e-4 -0.11961,10e-4 0,0 0,-0.64838 0,-0.64838 z m 1.445274,0.62607 c 0,0 -0.241693,0.007 -0.241693,0.007 0,0 -0.11961,0.22051 -0.11961,0.22051 0,0 0,0.32628 0,0.65293 0,0.32629 0,0.65254 0,0.65254 0,0 0.11961,0.21724 0.11961,0.21724 0,0 0.241693,-0.002 0.241693,-0.002 0,0 0.11961,-0.22013 0.11961,-0.22013 0,0 0,-0.32831 0,-0.65621 0,-0.32793 0,-0.65584 0,-0.65584 0,0 -0.11961,-0.216 -0.11961,-0.216 z m -0.480927,-0.63847 c 0,0 0.720161,-0.0239 0.720161,-0.0239 0,0 0.241703,0.43073 0.241703,0.43073 0,0 0,0.54887 0,1.09771 0,0.54846 0,1.09732 0,1.09732 0,0 -0.241703,0.44067 -0.241703,0.44067 0,0 -0.720161,0 -0.720161,0 0,0 -0.241703,-0.4353 -0.241703,-0.4353 0,0 0,-0.54225 0,-1.08451 0,-0.54265 0,-1.08493 0,-1.08493 0,0 0.241703,-0.43776 0.241703,-0.43776 z m 1.926196,1.92908 c 0,0 -0.361303,0.007 -0.361303,0.007 0,0 0,0.4423 0,0.4423 0,0 0.361303,-0.004 0.361303,-0.004 0,0 0.11961,-0.22468 0.11961,-0.22468 0,0 -0.11961,-0.22052 -0.11961,-0.22052 z m -0.844736,-1.96542 c 0,0 0.603048,-0.0244 0.603048,-0.0244 0,0 0,0.66409 0,0.66409 0,0 -0.119615,0.005 -0.119615,0.005 0,0 0,0.66366 0,0.66366 0,0 0.119615,-0.004 0.119615,-0.004 0,0 0.179401,-0.67316 0.179401,-0.67316 0,0 -0.05982,0.003 -0.05982,0.003 0,0 0,-0.66574 0,-0.66574 0,0 0.603044,-0.0335 0.603044,-0.0335 0,0 0,0.67276 0,0.67276 0,0 -0.181912,0.008 -0.181912,0.008 0,0 -0.179415,0.67729 -0.179415,0.67729 0,0 0.119625,-0.004 0.119625,-0.004 0,0 0.241702,0.44107 0.241702,0.44107 0,0 0,0.22424 0,0.44849 0,0.22383 0,0.44892 0,0.44892 0,0 -0.241702,0.45017 -0.241702,0.45017 0,0 -1.083971,0 -1.083971,0 0,0 0,-0.66037 0,-0.66037 0,0 0.122106,-7.9e-4 0.122106,-7.9e-4 0,0 0,-0.44068 0,-0.88092 0,-0.44022 0,-0.88091 0,-0.88091 0,0 -0.122106,0.003 -0.122106,0.003 0,0 0,-0.65913 0,-0.65913 z m 1.445273,-0.071 c 0,0 0.603044,-0.0351 0.603044,-0.0351 0,0 0,0.68183 0,0.68183 0,0 -0.122106,0.007 -0.122106,0.007 0,0 0,0.45386 0,0.90733 0,0.45387 0,0.90816 0,0.90816 0,0 0.122106,-0.002 0.122106,-0.002 0,0 0,0.6831 0,0.6831 0,0 -0.603044,0 -0.603044,0 0,0 0,-0.67565 0,-0.67565 0,0 0.11961,-10e-4 0.11961,-10e-4 0,0 0,-0.45141 0,-0.90238 0,-0.45058 0,-0.90156 0,-0.90156 0,0 -0.11961,0.005 -0.11961,0.005 0,0 0,-0.67399 0,-0.67399 z m 1.083972,-0.0727 c 0,0 0.600517,-0.0467 0.600517,-0.0467 0,0 0,0.69961 0,0.69961 0,0 -0.119609,0.007 -0.119609,0.007 0,0 0,0.46585 0,0.93129 0,0.46584 0,0.9317 0,0.9317 0,0 0.119609,-0.002 0.119609,-0.002 0,0 0,-0.23375 0,-0.23375 0,0 0.361318,-0.008 0.361318,-0.008 0,0 0,0.23583 0,0.47123 0,0.23539 0,0.47163 0,0.47163 0,0 -1.323167,0 -1.323167,0 0,0 0,-0.22881 0,-0.45719 0,-0.22796 0,-0.45636 0,-0.45636 0,0 0.361332,-0.008 0.361332,-0.008 0,0 0,0.23046 0,0.23046 0,0 0.11961,-0.002 0.11961,-0.002 0,0 0,-0.46213 0,-0.92385 0,-0.46131 0,-0.92305 0,-0.92305 0,0 -0.11961,0.007 -0.11961,0.007 0,0 0,-0.68967 0,-0.68967 z m 1.445269,-0.12226 c 0,0 0.600522,-0.0603 0.600522,-0.0603 0,0 0,0.72892 0,0.72892 0,0 -0.119609,0.009 -0.119609,0.009 0,0 0,0.72728 0,0.72728 0,0 0.07497,0.29938 0.14951,0.59967 0.07495,0.30182 0.151997,0.60545 0.151997,0.60545 0,0 0.179415,-0.004 0.179415,-0.004 0,0 0,0.73801 0,0.73801 0,0 -0.600533,0 -0.600533,0 0,0 0,-0.7252 0,-0.7252 0,0 0.05982,-10e-4 0.05982,-10e-4 0,0 -0.122107,-0.47946 -0.122107,-0.47946 0,0 -0.11961,0.48485 -0.11961,0.48485 0,0 0.05979,-10e-4 0.05979,-10e-4 0,0 0,0.72232 0,0.72232 0,0 -0.600518,0 -0.600518,0 0,0 0,-0.70953 0,-0.70953 0,0 0.1794,-0.004 0.1794,-0.004 0,0 0.07485,-0.29982 0.149515,-0.60049 0.07484,-0.30147 0.152022,-0.60502 0.152022,-0.60502 0,0 0,-0.71943 0,-0.71943 0,0 -0.11961,0.009 -0.11961,0.009 0,0 0,-0.71571 0,-0.71571 z m 1.081445,-0.10819 c 0,0 0.361327,-0.0438 0.361327,-0.0438 0,0 0,0.74791 0,0.74791 0,0 -0.361327,0.0343 -0.361327,0.0343 0,0 0,-0.73843 0,-0.73843 z m 0.722644,-0.088 c 0,0 0.72263,-0.0884 0.72263,-0.0884 0,0 0.241717,0.49063 0.241717,0.49063 0,0 0,0.78386 0,0.78386 0,0 -0.361327,0.0301 -0.361327,0.0301 0,0 0,-0.25771 0,-0.25771 0,0 -0.122107,-0.24696 -0.122107,-0.24696 0,0 -0.239196,0.0231 -0.239196,0.0231 0,0 -0.122107,0.26597 -0.122107,0.26597 0,0 0,0.38077 0,0.76156 0,0.38077 0,0.76195 0,0.76195 0,0 0.122107,0.2511 0.122107,0.2511 0,0 0.239196,-0.006 0.239196,-0.006 0,0 0.122107,-0.26184 0.122107,-0.26184 0,0 0,-0.25771 0,-0.25771 0,0 0.361327,-0.0165 0.361327,-0.0165 0,0 0,0.78345 0,0.78345 0,0 -0.241717,0.5245 -0.241717,0.5245 0,0 -0.72263,0 -0.72263,0 0,0 -0.23921,-0.50302 -0.23921,-0.50302 0,0 0,-0.62692 0,-1.25384 0,-0.62651 0,-1.25343 0,-1.25343 0,0 0.23921,-0.53068 0.23921,-0.53068 z m 1.806602,0.56786 c 0,0 -0.241724,0.0273 -0.241724,0.0273 0,0 -0.119609,0.28041 -0.119609,0.28041 0,0 0,0.39935 0,0.79913 0,0.39936 0,0.79957 0,0.79957 0,0 0.119609,0.26305 0.119609,0.26305 0,0 0.241724,-0.007 0.241724,-0.007 0,0 0.119581,-0.27545 0.119581,-0.27545 0,0 0,-0.4072 0,-0.81442 0,-0.4068 0,-0.814 0,-0.814 0,0 -0.119581,-0.2581 -0.119581,-0.2581 z m -0.480958,-0.74008 c 0,0 0.720163,-0.10408 0.720163,-0.10408 0,0 0.2417,0.515 0.2417,0.515 0,0 0,0.68762 0,1.37526 0,0.68763 0,1.37524 0,1.37524 0,0 -0.2417,0.55177 -0.2417,0.55177 0,0 -0.720163,0 -0.720163,0 0,0 -0.241687,-0.52699 -0.241687,-0.52699 0,0 0,-0.65664 0,-1.3133 0,-0.65665 0,-1.31329 0,-1.31329 0,0 0.241687,-0.55961 0.241687,-0.55961 z m 1.081487,-0.15612 c 0,0 0.603021,-0.10035 0.603021,-0.10035 0,0 0,0.84954 0,0.84954 0,0 -0.119609,0.0161 -0.119609,0.0161 0,0 0,0.35269 0,0.70537 0,0.35269 0,0.70538 0,0.70538 0,0 0.07499,-0.35926 0.14951,-0.72065 0.07493,-0.36338 0.149499,-0.72893 0.149499,-0.72893 0,0 0.07498,0.3481 0.149516,0.69877 0.07494,0.35263 0.152008,0.70788 0.152008,0.70788 0,0 0,-0.36138 0,-0.72316 0,-0.36176 0,-0.72314 0,-0.72314 0,0 -0.119625,0.0153 -0.119625,0.0153 0,0 0,-0.86232 0,-0.86232 0,0 0.603047,-0.10035 0.603047,-0.10035 0,0 0,0.88418 0,0.88418 0,0 -0.122092,0.0161 -0.122092,0.0161 0,0 0,0.58726 0,1.17414 0,0.58642 0,1.17411 0,1.17411 0,0 0.122092,-0.004 0.122092,-0.004 0,0 0,0.88545 0,0.88545 0,0 -0.483422,0 -0.483422,0 0,0 -0.07702,-0.36062 -0.152008,-0.71901 -0.0745,-0.35604 -0.149516,-0.70953 -0.149516,-0.70953 0,0 -0.07451,0.36019 -0.149499,0.71861 -0.07448,0.35605 -0.14951,0.70993 -0.14951,0.70993 0,0 -0.483412,0 -0.483412,0 0,0 0,-0.8297 0,-0.8297 0,0 0.122094,-0.005 0.122094,-0.005 0,0 0,-0.55588 0,-1.11135 0,-0.55546 0,-1.11135 0,-1.11135 0,0 -0.122094,0.0157 -0.122094,0.0157 0,0 0,-0.82806 0,-0.82806"
       style="fill:#ffffff;fill-opacity:1;fill-rule:nonzero;stroke:none;stroke-width:0.0483899"
       id="path2277" />
    <path
       d="m 19.186702,812.59978 c 0,-0.0825 0,-0.16466 0,-0.24685 0,-0.0823 0,-0.16444 0,-0.24667 -0.09586,-0.009 -0.191706,-0.0174 -0.287615,-0.027 0,0.0707 0,0.14137 0,0.21208 -0.07256,-0.007 -0.145073,-0.0143 -0.216356,-0.0216 0,-0.13028 0,-0.26056 0,-0.39061 0.119184,0.0126 0.239699,0.0254 0.360161,0.0376 0,-0.0944 0,-0.18881 0,-0.28318 -0.120462,-0.0128 -0.240977,-0.0261 -0.360161,-0.0396 0,-0.13073 0,-0.26147 0,-0.39215 0.07128,0.008 0.143791,0.017 0.216356,0.0257 0,0.0707 0,0.14135 0,0.21227 0.09591,0.0109 0.191759,0.0206 0.287615,0.0302 0,-0.0822 0,-0.16466 0,-0.24685 0,-0.0822 0,-0.16444 0,-0.24663 -0.335516,-0.0387 -0.671085,-0.0803 -1.005319,-0.12182 0,0.0957 0,0.19162 0,0.28752 0.07124,0.008 0.142489,0.0168 0.213733,0.0255 0,0.17877 0,0.35777 0,0.53654 0,0.17878 0,0.35776 0,0.53677 -0.07124,-0.007 -0.142488,-0.0141 -0.213733,-0.0213 0,0.0955 0,0.1914 0,0.28734 0.334234,0.0317 0.669803,0.0635 1.005319,0.0926 z m 0.895251,0.0711 c 0.09839,0.007 0.182986,-0.0206 0.253911,-0.0837 0.07026,-0.0625 0.104948,-0.14204 0.104948,-0.23708 0,-0.15616 0,-0.31209 0,-0.46806 0,-0.1557 0,-0.31167 0,-0.46738 0,-0.0855 -0.03116,-0.16134 -0.09459,-0.22834 -0.06351,-0.0671 -0.139914,-0.10486 -0.229305,-0.11292 0,-0.0637 0,-0.12743 0,-0.19115 -0.09585,-0.009 -0.19175,-0.0183 -0.2876,-0.0272 0,0.0639 0,0.12788 0,0.19202 -0.08812,-0.01 -0.164477,0.0134 -0.228042,0.0685 -0.06337,0.0551 -0.09454,0.12593 -0.09454,0.21247 0,0.15815 0,0.31625 0,0.47417 0,0.15809 0,0.31642 0,0.47457 0,0.0964 0.03514,0.18212 0.106211,0.25707 0.07012,0.074 0.154165,0.11508 0.252648,0.12201 0.07119,0.005 0.143848,0.01 0.216356,0.015 z m -0.216356,-1.14903 c 0.07125,0.006 0.143809,0.0122 0.216356,0.0183 0,-0.0639 0,-0.12789 0,-0.19162 0.01941,0.002 0.03646,0.01 0.05053,0.0244 0.01439,0.015 0.02072,0.0322 0.02072,0.0511 0,0.15072 0,0.30145 0,0.45213 0,0.15072 0,0.30145 0,0.45239 0,0.0191 -0.0065,0.0347 -0.02072,0.0474 -0.01421,0.0127 -0.03116,0.0177 -0.05053,0.0163 -0.07255,-0.005 -0.145107,-0.0108 -0.216356,-0.0159 -0.01941,-10e-4 -0.03637,-0.009 -0.05053,-0.0237 -0.01429,-0.0149 -0.02072,-0.0315 -0.02072,-0.0507 0,-0.15182 0,-0.30323 0,-0.45481 0,-0.15159 0,-0.30317 0,-0.45457 0,-0.0189 0.0063,-0.0352 0.02072,-0.0476 0.01407,-0.0121 0.03108,-0.0171 0.05053,-0.0154 0,0.0641 0,0.12811 0,0.19225 z m 1.540413,1.22905 c 0,-0.0913 0,-0.18247 0,-0.27358 -0.04791,-0.003 -0.09585,-0.006 -0.142489,-0.008 0,-0.16008 0,-0.3199 0,-0.47976 0,-0.16008 0,-0.31996 0,-0.47981 0,-0.0187 0.0063,-0.0348 0.02071,-0.0472 0.01407,-0.0122 0.03108,-0.0172 0.05053,-0.0159 0.0712,0.005 0.142488,0.01 0.215049,0.0137 0.02072,0.001 0.03782,0.008 0.05184,0.0224 0.01443,0.0143 0.02071,0.0309 0.02071,0.0496 0,0.15924 0,0.31842 0,0.47765 0,0.15918 0,0.31842 0,0.47782 -0.04794,-0.002 -0.09586,-0.004 -0.143796,-0.007 0,0.0911 0,0.18225 0,0.27336 0.21504,0.01 0.430147,0.019 0.646503,0.0287 0,-0.0907 0,-0.18117 0,-0.27165 -0.07255,-0.003 -0.143848,-0.007 -0.215093,-0.0102 0,-0.159 0,-0.31777 0,-0.4765 0,-0.15879 0,-0.31756 0,-0.47635 0,-0.094 -0.03483,-0.17592 -0.104948,-0.24598 -0.07107,-0.071 -0.155423,-0.10975 -0.255217,-0.1155 -0.07252,-0.004 -0.143805,-0.009 -0.21505,-0.0143 -0.09843,-0.007 -0.182884,0.0198 -0.253954,0.0822 -0.07012,0.0616 -0.106221,0.13966 -0.106221,0.23423 0,0.16054 0,0.32082 0,0.48137 0,0.16048 0,0.32076 0,0.48148 -0.07124,-0.004 -0.142494,-0.009 -0.213777,-0.0128 0,0.0918 0,0.18379 0,0.27575 0.215093,0.0122 0.430143,0.0244 0.645197,0.0363 z m 1.758085,0.0635 c 0,-0.0898 0,-0.17985 0,-0.26947 -0.07257,-10e-4 -0.145111,-0.003 -0.216356,-0.005 0,-0.16877 0,-0.33777 0,-0.50633 0,-0.16877 0,-0.33754 0,-0.50613 0.07125,0.003 0.143791,0.005 0.216356,0.007 0,-0.0898 0,-0.17962 0,-0.26947 -0.23966,-0.009 -0.479364,-0.0187 -0.719024,-0.0287 0,0.0903 0,0.18076 0,0.27101 0.07124,0.003 0.142493,0.006 0.215054,0.008 0,0.16896 0,0.33795 0,0.50696 0,0.16901 0,0.33823 0,0.50718 -0.07256,-0.002 -0.14381,-0.005 -0.215054,-0.007 0,0.0901 0,0.18053 0,0.27078 0.23966,0.008 0.479364,0.0153 0.719024,0.0207 z m 1.434198,-0.55242 c 0,-0.0918 -0.03632,-0.17139 -0.106264,-0.23747 -0.06993,-0.0661 -0.154204,-0.0994 -0.253897,-0.10007 -0.08423,-5.2e-4 -0.168416,-10e-4 -0.251332,-0.002 0,-0.12336 0,-0.24667 0,-0.36975 0.07124,5.2e-4 0.142489,10e-4 0.215054,0.002 0,-0.0894 0,-0.179 0,-0.26856 -0.23966,-0.002 -0.479364,-0.007 -0.717761,-0.0128 0,0.0896 0,0.17945 0,0.26925 0.07124,0.002 0.142546,0.003 0.21379,0.005 0,0.16788 0,0.33602 0,0.50393 0,0.16792 0,0.33624 0,0.50434 -0.07124,-0.002 -0.142546,-0.003 -0.21379,-0.004 0,0.0896 0,0.17922 0,0.26907 0.251331,0.005 0.502707,0.007 0.754039,0.009 0.09969,7.8e-4 0.184109,-0.0313 0.253897,-0.0961 0.07008,-0.0651 0.106264,-0.14422 0.106264,-0.23622 0,-0.0785 0,-0.1568 0,-0.23532 z m -0.611493,-0.0709 c 0.08292,7.9e-4 0.1671,0.002 0.251332,0.002 0.01939,10e-5 0.0374,0.006 0.05052,0.0194 0.01408,0.0138 0.02203,0.0294 0.02203,0.0474 0,0.0785 0,0.15678 0,0.23531 0,0.0183 -0.0079,0.0338 -0.02203,0.0474 -0.01302,0.0125 -0.03112,0.0188 -0.05052,0.0187 -0.08423,-5.2e-4 -0.168416,-10e-4 -0.251332,-0.002 0,-0.12287 0,-0.24577 0,-0.36845 z m 1.432886,0.63598 c 0.04795,-0.10681 0.09721,-0.21338 0.145121,-0.32014 0.0479,-0.10676 0.09716,-0.21383 0.146375,-0.3208 0.04795,0.10503 0.09585,0.20988 0.143805,0.31492 0.04795,0.10504 0.09717,0.21007 0.146389,0.31534 0.167138,-0.003 0.335549,-0.008 0.503965,-0.0128 0,-0.0899 0,-0.17968 0,-0.26925 -0.07251,0.003 -0.145067,0.005 -0.216356,0.007 0,-0.16809 0,-0.33646 0,-0.50439 0,-0.16786 0,-0.336 0,-0.50391 0.07129,-0.002 0.143849,-0.005 0.216356,-0.008 0,-0.0898 0,-0.17945 0,-0.26929 -0.23966,0.009 -0.47932,0.015 -0.71902,0.0209 0,0.0896 0,0.17922 0,0.2686 0.07124,-0.002 0.142489,-0.003 0.215055,-0.005 0,0.10835 0,0.21664 0,0.32494 0,0.10833 0,0.21663 0,0.32492 -0.0479,-0.10309 -0.09717,-0.20618 -0.14381,-0.30905 -0.04664,-0.10287 -0.09585,-0.20573 -0.142489,-0.3086 -0.04922,0.10658 -0.09853,0.21334 -0.147691,0.31968 -0.04922,0.10637 -0.09849,0.21275 -0.1477,0.31888 0,-0.10961 0,-0.21944 0,-0.32905 0,-0.10966 0,-0.21949 0,-0.32908 0.07124,-5.3e-4 0.143805,-0.002 0.216366,-0.004 0,-0.0894 0,-0.17901 0,-0.26839 -0.239714,0.004 -0.47936,0.006 -0.717757,0.008 0,0.0894 0,0.17877 0,0.26838 0.07124,-5.2e-4 0.142488,-10e-4 0.213791,-0.002 0,0.16747 0,0.33516 0,0.50262 0,0.16746 0,0.33515 0,0.50283 -0.0713,5.3e-4 -0.142547,7.9e-4 -0.213791,10e-4 0,0.0894 0,0.17877 0,0.26815 0.167138,-10e-4 0.334253,-0.002 0.501391,-0.003 z m 2.411015,-0.0742 c 0,-0.0794 0,-0.15877 0,-0.23794 0,-0.0792 0,-0.15854 0,-0.23794 -0.09585,0.005 -0.191707,0.009 -0.286299,0.0139 0,0.0677 0,0.13506 0,0.20292 -0.07255,0.003 -0.145107,0.007 -0.216351,0.01 0,-0.12396 0,-0.24771 0,-0.37167 0.119199,-0.006 0.238383,-0.0117 0.358859,-0.0179 0,-0.0907 0,-0.18117 0,-0.27187 -0.120476,0.006 -0.23966,0.0126 -0.358859,0.019 0,-0.12445 0,-0.24884 0,-0.37301 0.07124,-0.004 0.143805,-0.008 0.216351,-0.0122 0,0.0676 0,0.13525 0,0.20311 0.09459,-0.005 0.190448,-0.0105 0.286299,-0.0156 0,-0.0794 0,-0.15878 0,-0.23816 0,-0.0792 0,-0.15856 0,-0.23772 -0.335512,0.0198 -0.671066,0.0396 -1.005319,0.0544 0,0.0901 0,0.17985 0,0.26992 0.07124,-0.003 0.142503,-0.006 0.215054,-0.009 0,0.16877 0,0.33772 0,0.5065 0,0.16878 0,0.33801 0,0.50701 -0.07255,0.002 -0.143809,0.005 -0.215054,0.007 0,0.0898 0,0.17987 0,0.26988 0.334253,-0.0117 0.669807,-0.0263 1.005319,-0.0409 z m 0.822709,-0.0457 c 0.08423,-0.15467 0.169868,-0.30991 0.25395,-0.46566 0.08428,-0.15606 0.170995,-0.31276 0.25649,-0.46959 0,0.104 0,0.20771 0,0.31167 0,0.104 0,0.20795 0,0.31213 -0.07256,0.005 -0.145068,0.0105 -0.216365,0.0157 0,0.0918 0,0.18402 0,0.27598 0.239714,-0.0165 0.479374,-0.0328 0.719073,-0.0513 0,-0.0931 0,-0.18619 0,-0.27927 -0.07256,0.006 -0.143805,0.0124 -0.215093,0.0176 0,-0.1738 0,-0.34801 0,-0.52157 0,-0.1738 0,-0.34755 0,-0.52135 0.07129,-0.006 0.142532,-0.0137 0.215093,-0.0213 0,-0.0931 0,-0.18619 0,-0.27924 -0.239699,0.0248 -0.479359,0.047 -0.719073,0.0693 0,0.092 0,0.18424 0,0.27626 0.05705,-0.005 0.11404,-0.0102 0.17235,-0.0153 -0.07776,0.13028 -0.15552,0.26056 -0.233239,0.39022 -0.07771,0.12955 -0.155467,0.25878 -0.233186,0.38711 0,-0.1229 0,-0.24576 0,-0.36867 0,-0.12268 0,-0.24554 0,-0.36844 0.07124,-0.005 0.143805,-0.0115 0.216365,-0.018 0,-0.092 0,-0.18373 0,-0.27575 -0.23966,0.0204 -0.479359,0.0389 -0.717756,0.0572 0,0.0911 0,0.18226 0,0.27318 0.07124,-0.005 0.142532,-0.0105 0.213791,-0.0157 0,0.17118 0,0.34235 0,0.51329 0,0.17117 0,0.34253 0,0.51371 -0.07126,0.004 -0.142547,0.008 -0.213791,0.0126 0,0.0909 0,0.18207 0,0.27317 0.167138,-0.009 0.334248,-0.0187 0.501391,-0.028 z m 2.267263,-1.82454 c 0,0.0952 0,0.1907 0,0.28598 -0.07256,0.009 -0.143849,0.0176 -0.215093,0.0263 0,0.17769 0,0.35583 0,0.53352 0,0.1779 0,0.35605 0,0.53413 0.04664,-0.005 0.09458,-0.01 0.142532,-0.0141 0,-0.0713 0,-0.14268 0,-0.21379 0.09585,-0.01 0.191706,-0.0201 0.288916,-0.03 0,0.0837 0,0.16747 0,0.25097 0,0.0838 0,0.1675 0,0.25146 -0.383508,0.0357 -0.767017,0.0715 -1.150468,0.10305 0,-0.082 0,-0.16375 0,-0.24554 0,-0.0818 0,-0.16353 0,-0.24531 0.09585,-0.009 0.191745,-0.0172 0.2876,-0.0259 0,0.0704 0,0.14068 0,0.21116 0.04795,-0.004 0.09585,-0.009 0.143805,-0.0135 0,-0.17706 0,-0.35406 0,-0.53089 0,-0.1766 0,-0.35366 0,-0.53026 -0.07256,0.009 -0.145111,0.0165 -0.216356,0.0239 0,-0.094 0,-0.18791 0,-0.28187 0.239704,-0.0283 0.479365,-0.0589 0.719064,-0.0894"
       style="fill:#ffffff;fill-opacity:1;fill-rule:nonzero;stroke:none;stroke-width:0.0483899"
       id="path2279" />
    <g
       id="g2281"
       transform="matrix(0.04838984,0,0,0.04838984,10.256579,801.91189)">
      <path
         d="m 265.8129,450.6976 -44.8806,-64.5454 33.6282,34.0171 -31.5221,-44.4498 c 0.8564,-5.4218 1.3023,-11.3785 1.3405,-17.869 -38.0386,-1.6078 -77.377,-4.2591 -118.0162,-7.9563 255.0336,0 382.5505,0 382.5505,0 -29.3451,3.4506 -59.8247,5.9905 -91.4366,7.6207 -0.8918,6.4372 -0.76,13.2653 0.3974,20.482 -18.845,-0.5301 -37.3519,1.5471 -55.5228,6.2325 23.1948,-2.8709 41.5199,-3.6683 54.9748,-2.3933 -10.5168,13.1987 -21.7916,30.6547 -30.0721,52.1283 0,0 -70.765,-3.8336 -101.441,16.7332 z m 132.4404,-70.5169 0.0768,0.4056 -1.0012,1.2461 z m -149.645,-21.4421 c 5.9409,14.4139 18.3218,47.3859 15.1124,64.768 0,0 13.0025,-44.0944 14.3169,-64.0687 -9.7194,-0.1607 -19.5284,-0.3926 -29.4293,-0.6993 z m 73.3853,0.9275 c -0.1187,6.0687 0.3581,13.2996 1.4304,21.6941 -20.7493,25.2842 -31.1238,37.9258 -31.1238,37.9258 25.4205,-22.1255 38.131,-33.188 38.131,-33.188 -3.181,-6.9242 -4.3599,-15.7479 -3.5382,-26.4722 z"
         style="fill:#ffffff;fill-opacity:1;fill-rule:evenodd;stroke:none"
         id="path2283" />
      <path
         d="m 242.6556,469.7878 c 15.4386,-12.7267 23.1573,-19.0902 23.1573,-19.0902 L 384.7014,349.8942 H 369.085 L 236.4735,466.0764 c 0.8592,2.7196 2.9194,3.9572 6.1821,3.7114"
         style="fill:#ffffff;fill-opacity:1;fill-rule:evenodd;stroke:none"
         id="path2285" />
      <path
         d="m 182.4653,353.3326 c 4.9303,-3.3355 10.1698,-3.3001 15.7198,0.1066 64.1353,75.9158 96.2033,113.874 96.2033,113.874 0.3617,3.3962 -1.9734,4.8387 -7.0075,4.3282 C 217.4369,392.7688 182.4653,353.3326 182.4653,353.3326"
         style="fill:#ffffff;fill-opacity:1;fill-rule:evenodd;stroke:none"
         id="path2287" />
      <path
         d="m 421.4687,350.4892 c -6.4803,2.6889 -7.5379,-1.7195 -11.2113,1.6143 -39.3613,68.5072 -59.0423,102.761 -59.0423,102.761 0.029,2.8214 1.8173,3.7769 5.368,2.8698 43.2564,-71.4965 64.8856,-107.2451 64.8856,-107.2451"
         style="fill:#ffffff;fill-opacity:1;fill-rule:evenodd;stroke:none"
         id="path2289" />
      <path
         d="m 360.2503,409.8404 27.3742,47.6442 c -0.0289,2.8213 -1.8173,3.7774 -5.3677,2.8698 l -27.3949,-45.2781 z"
         style="fill:#ffffff;fill-opacity:1;fill-rule:evenodd;stroke:none"
         id="path2291" />
      <path
         d="m 153.3317,352.1707 h 18.0354 v 13.9127 c -5.7444,3.07 -11.7403,3.2514 -18.0354,0 z"
         style="fill:#ffffff;fill-opacity:1;fill-rule:evenodd;stroke:none"
         id="path2293" />
      <path
         d="m 417.5181,352.8884 h 18.0354 v 13.913 c -5.7444,3.07 -11.7402,3.2514 -18.0354,0 z"
         style="fill:#ffffff;fill-opacity:1;fill-rule:evenodd;stroke:none"
         id="path2295" />
      <path
         d="m 444.5195,350.8274 h 23.6282 v 18.2273 c -7.5257,4.0218 -15.3811,4.2593 -23.6282,0 z"
         style="fill:#ffffff;fill-opacity:1;fill-rule:evenodd;stroke:none"
         id="path2297" />
    </g>
    <path
       d="m 12.690612,818.14514 c 15.958187,0 23.937278,0 23.937278,0 -7.366607,1.34323 -15.345685,1.34323 -23.937278,0 z m 8.411999,0.16945 c 2.168198,0.28843 4.016715,0.30502 5.545538,0.0499 0,0 -1.848463,-0.0166 -5.545538,-0.0499"
       style="fill:#ffffff;fill-opacity:1;fill-rule:evenodd;stroke:none;stroke-width:0.0483899"
       id="path2299" />
    <path
       d="m 16.917804,818.92763 c 0.128925,-0.0401 0.228671,-0.0351 0.299286,0.015 0.516271,0.62755 0.906927,1.03644 1.171866,1.22679 -0.0289,0.11467 -0.0921,0.17284 -0.189484,0.17457 -0.663207,-0.64027 -1.090403,-1.11235 -1.281668,-1.41638"
       style="fill:#ffffff;fill-opacity:1;fill-rule:evenodd;stroke:none;stroke-width:0.0483899"
       id="path2301" />
    <path
       d="m 17.536182,818.92427 c 0.112739,-0.035 0.199952,-0.0307 0.261707,0.0131 0.451458,0.54877 0.793061,0.90632 1.024752,1.07277 -0.02528,0.10028 -0.08055,0.15115 -0.165697,0.15265 -0.579947,-0.55988 -0.953526,-0.9727 -1.120762,-1.23856"
       style="fill:#ffffff;fill-opacity:1;fill-rule:evenodd;stroke:none;stroke-width:0.0483899"
       id="path2303" />
    <path
       d="m 23.120225,808.8317 v -0.28386 h -0.162348 v 0.1215 h -0.122136 v -0.22279 h 0.203199 v -0.16235 h -0.203199 v -0.22364 h 0.122136 v 0.1215 h 0.162348 v -0.28385 h -0.568339 v 0.16235 h 0.121294 v 0.60878 h -0.121294 v 0.16236 z"
       style="fill:#000000;fill-opacity:1;fill-rule:nonzero;stroke:none;stroke-width:0.0483899"
       id="path2305" />
    <path
       d="m 23.485999,808.44655 c 0.05586,0 0.103796,-0.02 0.143602,-0.0598 0.03939,-0.04 0.05918,-0.0877 0.05918,-0.1436 v -0.14214 c 0,-0.0559 -0.01979,-0.10337 -0.05918,-0.14296 -0.03981,-0.0398 -0.08775,-0.0598 -0.143602,-0.0598 h -0.101914 c -0.05565,0 -0.10337,0.02 -0.142765,0.0598 -0.04001,0.0396 -0.0598,0.0871 -0.0598,0.14296 v 0.0811 h 0.162347 v -0.0811 c 0,-0.011 0.0037,-0.0206 0.01146,-0.0288 0.0083,-0.008 0.01773,-0.0117 0.02877,-0.0117 h 0.101914 c 0.01106,0 0.02063,0.004 0.02876,0.0117 0.0077,0.008 0.01168,0.0177 0.01168,0.0288 v 0.14214 c 0,0.0114 -0.004,0.0211 -0.01168,0.0288 -0.0081,0.008 -0.01771,0.0123 -0.02876,0.0123 h -0.101925 c -0.05565,0 -0.10337,0.0196 -0.142764,0.0592 -0.04001,0.0398 -0.05981,0.0877 -0.05981,0.14339 v 0.14235 c 0,0.0557 0.01979,0.10357 0.05981,0.14339 0.03939,0.0396 0.08711,0.0592 0.142764,0.0592 H 23.486 c 0.05586,0 0.103796,-0.0196 0.143602,-0.0592 0.03939,-0.0398 0.05919,-0.0877 0.05919,-0.14339 v -0.0813 h -0.162349 v 0.0813 c 0,0.011 -0.004,0.0204 -0.01168,0.0288 -0.0081,0.008 -0.01771,0.0115 -0.02876,0.0115 h -0.101917 c -0.01104,0 -0.02042,-0.004 -0.02877,-0.0115 -0.0077,-0.008 -0.01146,-0.0177 -0.01146,-0.0288 v -0.14235 c 0,-0.011 0.0037,-0.0204 0.01146,-0.0285 0.0083,-0.008 0.01772,-0.0117 0.02877,-0.0117 z"
       style="fill:#000000;fill-opacity:1;fill-rule:nonzero;stroke:none;stroke-width:0.0483899"
       id="path2307" />
    <path
       d="m 24.27757,807.89821 v 0.16235 h -0.121507 v 0.60878 h 0.08107 v -0.1215 h 0.162571 v 0.28386 H 23.75008 v -0.28386 h 0.162353 v 0.1215 h 0.08106 v -0.60878 h -0.122121 v -0.16235 z"
       style="fill:#000000;fill-opacity:1;fill-rule:nonzero;stroke:none;stroke-width:0.0483899"
       id="path2309" />
    <path
       d="m 25.015147,808.4057 c -0.05565,0 -0.10337,-0.0198 -0.142765,-0.0594 -0.04001,-0.0398 -0.05981,-0.0875 -0.05981,-0.14338 v -0.3047 h 0.446208 v 0.16235 h -0.283855 v 0.14235 c 0,0.011 0.0037,0.0206 0.01145,0.0288 0.0083,0.008 0.01772,0.0115 0.02876,0.0115 h 0.04085 c 0.05586,0 0.103796,0.02 0.143601,0.0598 0.03939,0.0396 0.05919,0.0873 0.05919,0.1436 v 0.18257 c 0,0.0557 -0.01979,0.10357 -0.05919,0.14339 -0.03981,0.0396 -0.08775,0.0592 -0.143601,0.0592 h -0.04085 c -0.05565,0 -0.10337,-0.0196 -0.142764,-0.0592 -0.04001,-0.0398 -0.05981,-0.0877 -0.05981,-0.14339 v -0.0813 h 0.162353 v 0.0813 c 0,0.011 0.0037,0.0204 0.01145,0.0288 0.0083,0.008 0.01772,0.0115 0.02876,0.0115 h 0.04085 c 0.01106,0 0.02064,-0.004 0.02876,-0.0115 0.0077,-0.008 0.01167,-0.0177 0.01167,-0.0288 v -0.18257 c 0,-0.0115 -0.004,-0.0211 -0.01167,-0.0288 -0.0081,-0.008 -0.01771,-0.0121 -0.02876,-0.0121 z"
       style="fill:#000000;fill-opacity:1;fill-rule:nonzero;stroke:none;stroke-width:0.0483899"
       id="path2311" />
    <path
       d="m 25.482424,808.10099 c 0,-0.011 0.0037,-0.0206 0.01145,-0.0288 0.0083,-0.008 0.01772,-0.0117 0.02877,-0.0117 h 0.04085 c 0.01106,0 0.02064,0.004 0.02876,0.0117 0.0077,0.008 0.01168,0.0177 0.01168,0.0288 v 0.52813 c 0,0.011 -0.004,0.0204 -0.01168,0.0288 -0.0081,0.008 -0.01771,0.0115 -0.02876,0.0115 h -0.04085 c -0.01104,0 -0.02043,-0.004 -0.02877,-0.0115 -0.0077,-0.008 -0.01145,-0.0177 -0.01145,-0.0288 z m 0.04022,-0.20278 c -0.05565,0 -0.10337,0.02 -0.142764,0.0598 -0.04001,0.0396 -0.05981,0.0871 -0.05981,0.14296 v 0.52813 c 0,0.0557 0.01979,0.10357 0.05981,0.14339 0.03939,0.0396 0.08711,0.0592 0.142764,0.0592 h 0.04085 c 0.05586,0 0.103796,-0.0196 0.143602,-0.0592 0.03939,-0.0398 0.05919,-0.0877 0.05919,-0.14339 v -0.52813 c 0,-0.0559 -0.0198,-0.10337 -0.05919,-0.14296 -0.03981,-0.0398 -0.08775,-0.0598 -0.143602,-0.0598 z"
       style="fill:#000000;fill-opacity:1;fill-rule:nonzero;stroke:none;stroke-width:0.0483899"
       id="path2313" />
    <path
       d="m 26.111424,808.8317 v -0.77114 h 0.122136 v -0.16235 h -0.405991 v 0.16235 h 0.121299 v 0.60878 h -0.121299 v 0.16236 z"
       style="fill:#000000;fill-opacity:1;fill-rule:nonzero;stroke:none;stroke-width:0.0483899"
       id="path2315" />
    <path
       d="m 26.294623,808.8317 h 0.162353 v -0.64964 h 0.06585 v 0.12214 h 0.162576 v -0.12214 h 0.08106 v -0.16235 h -0.08106 v -0.1215 h -0.162576 v 0.1215 H 26.29462 Z"
       style="fill:#000000;fill-opacity:1;fill-rule:nonzero;stroke:none;stroke-width:0.0483899"
       id="path2317" />
    <path
       d="m 24.454899,808.06778 h 0.169582 v -0.16957 h -0.169582 z"
       style="fill:#000000;fill-opacity:1;fill-rule:evenodd;stroke:none;stroke-width:0.0483899"
       id="path2319" />
    <path
       d="m 52.090739,820.35945 c 0,0 -0.870109,-0.1552 -0.870109,-0.1552 0,0 -0.444162,1.3749 -0.444162,1.3749 0,0 0,2.18325 0,4.3664 0,2.1813 0,4.36665 0,4.36665 0,0 0.444162,1.47828 0.444162,1.47828 0,0 0.870109,0.0451 0.870109,0.0451 0,0 0.444126,-1.40588 0.444126,-1.40588 0,0 0,-2.1419 0,-4.27964 0,-2.13995 0,-4.2797 0,-4.2797 0,0 -0.444126,-1.50931 -0.444126,-1.50931 z m -1.749351,-4.69946 c 0,0 2.628557,0.60574 2.628557,0.60574 0,0 0.879242,3.01028 0.879242,3.01028 0,0 0,3.51069 0,7.02338 0,3.51054 0,7.02123 0,7.02123 0,0 -0.879242,2.81798 -0.879242,2.81798 0,0 -2.628557,0 -2.628557,0 0,0 -0.870105,-2.96066 -0.870105,-2.96066 0,0 0,-3.69046 0,-7.38092 0,-3.69056 0,-7.38103 0,-7.38103 0,0 0.870105,-2.756 0.870105,-2.756 z m 5.257147,1.19502 c 0,0 2.184449,0.43404 2.184449,0.43404 0,0 0.879242,2.83871 0.879242,2.83871 0,0 0,2.99991 0,6.00182 0,3.00211 0,6.00402 0,6.00402 0,0 0.43508,0.02 0.43508,0.02 0,0 0,3.98613 0,3.98613 0,0 -2.184537,0 -2.184537,0 0,0 0,-4.0792 0,-4.0792 0,0 0.435135,0.02 0.435135,0.02 0,0 0,-2.36723 0,-4.73451 0,-2.36722 0,-4.7345 0,-4.7345 0,0 -0.435135,-1.42246 -0.435135,-1.42246 0,0 -0.444057,-0.0681 -0.444057,-0.0681 0,0 -0.435079,1.30456 -0.435079,1.30456 0,0 0,2.39827 0,4.79858 0,2.40042 0,4.80074 0,4.80074 0,0 0.435079,0.02 0.435079,0.02 0,0 0,4.09782 0,4.09782 0,0 -2.184445,0 -2.184445,0 0,0 0,-4.19714 0,-4.19714 0,0 0.435025,0.02 0.435025,0.02 0,0 0,-3.12812 0,-6.25829 0,-3.12817 0,-6.25829 0,-6.25829 0,0 0.879243,-2.5906 0.879243,-2.5906 z m 5.248136,1.03999 c 0,0 2.193459,0.36795 2.193459,0.36795 0,0 0,3.82694 0,3.82694 0,0 -0.43508,-0.0576 -0.43508,-0.0576 0,0 0,2.56568 0,5.12729 0,2.56367 0,5.1295 0,5.1295 0,0 0.43508,0.015 0.43508,0.015 0,0 0,-1.27778 0,-1.27778 0,0 1.314235,0.0621 1.314235,0.0621 0,0 0,1.26326 0,2.52232 0,1.26126 0,2.52657 0,2.52657 0,0 -4.812984,0 -4.812984,0 0,0 0,-1.32529 0,-2.64642 0,-1.32113 0,-2.64432 0,-2.64432 0,0 1.30529,0.0746 1.30529,0.0746 0,0 0,1.30467 0,1.30467 0,0 0.444112,0.015 0.444112,0.015 0,0 0,-2.59671 0,-5.19142 0,-2.59471 0,-5.19147 0,-5.19147 0,0 -0.444112,-0.0581 -0.444112,-0.0581 0,0 0,-3.90548 0,-3.90548 z m 6.571382,4.74897 c 0,0 -0.870123,-0.0911 -0.870123,-0.0911 0,0 0,2.4686 0,4.9371 0,2.46865 0,4.94141 0,4.94141 0,0 0.870123,0.025 0.870123,0.025 0,0 0.444162,-1.20954 0.444162,-1.20954 0,0 0,-1.83387 0,-3.66569 0,-1.83181 0,-3.66352 0,-3.66352 0,0 -0.444162,-1.27363 -0.444162,-1.27363 z m -2.628557,-4.0853 c 0,0 3.507799,0.53341 3.507799,0.53341 0,0 0.87016,2.53679 0.87016,2.53679 0,0 0,3.02058 0,6.04126 0,3.02264 0,6.04323 0,6.04323 0,0 -0.87016,2.42524 -0.87016,2.42524 0,0 -3.507799,0 -3.507799,0 0,0 0,-3.77121 0,-3.77121 0,0 0.444111,0.015 0.444111,0.015 0,0 0,-2.50379 0,-5.00334 0,-2.49959 0,-5.00128 0,-5.00128 0,0 -0.444111,-0.0581 -0.444111,-0.0581 0,0 0,-3.7628 0,-3.7628 z m 7.450624,4.60634 c 0,0 -0.879137,-0.0931 -0.879137,-0.0931 0,0 -0.435135,1.14542 -0.435135,1.14542 0,0 0,1.78841 0,3.57467 0,1.7863 0,3.57472 0,3.57472 0,0 0.435135,1.20739 0.435135,1.20739 0,0 0.879137,0.025 0.879137,0.025 0,0 0.435079,-1.1682 0.435079,-1.1682 0,0 0,-1.76363 0,-3.52711 0,-1.76363 0,-3.52716 0,-3.52716 0,0 -0.435079,-1.2116 -0.435079,-1.2116 z m -1.75838,-3.77311 c 0,0 2.628539,0.33291 2.628539,0.33291 0,0 0.879242,2.4232 0.879242,2.4232 0,0 0,2.91305 0,5.82615 0,2.91315 0,5.8262 0,5.8262 0,0 -0.879242,2.3384 -0.879242,2.3384 0,0 -2.628539,0 -2.628539,0 0,0 -0.870228,-2.41689 -0.870228,-2.41689 0,0 0,-3.01027 0,-6.0206 0,-3.01027 0,-6.02269 0,-6.02269 0,0 0.870228,-2.28653 0.870228,-2.28653 z m 6.571382,4.17832 c 0,0 -0.879155,-0.0766 -0.879155,-0.0766 0,0 -0.43508,1.11848 -0.43508,1.11848 0,0 0,1.72844 0,3.45488 0,1.72833 0,3.45882 0,3.45882 0,0 0.43508,1.16194 0.43508,1.16194 0,0 0.879155,0.02 0.879155,0.02 0,0 0.43508,-1.1309 0.43508,-1.1309 0,0 0,-1.70781 0,-3.41767 0,-1.70766 0,-3.41547 0,-3.41547 0,0 -0.43508,-1.17436 -0.43508,-1.17436 z m -1.749315,-3.61187 c 0,0 2.628557,0.27684 2.628557,0.27684 0,0 0.870211,2.32593 0.870211,2.32593 0,0 0,2.82845 0,5.65464 0,2.82629 0,5.65464 0,5.65464 0,0 -0.870211,2.2681 -0.870211,2.2681 0,0 -2.628557,0 -2.628557,0 0,0 -0.879242,-2.33218 -0.879242,-2.33218 0,0 0,-2.90484 0,-5.80968 0,-2.90479 0,-5.80968 0,-5.80968 0,0 0.879242,-2.22871 0.879242,-2.22871 z m 7.006462,10.61663 c 0,0 -1.314235,-0.0351 -1.314235,-0.0351 0,0 0,2.23907 0,2.23907 0,0 1.314235,0.02 1.314235,0.02 0,0 0.435079,-1.10402 0.435079,-1.10402 0,0 -0.435079,-1.12053 -0.435079,-1.12053 z m -3.063583,-10.24031 c 0,0 2.184446,0.1672 2.184446,0.1672 0,0 0,3.34719 0,3.34719 0,0 -0.435098,-0.025 -0.435098,-0.025 0,0 0,3.3597 0,3.3597 0,0 0.435098,0.02 0.435098,0.02 0,0 0.661651,-3.312 0.661651,-3.312 0,0 -0.226615,-0.015 -0.226615,-0.015 0,0 0,-3.33907 0,-3.33907 0,0 2.193564,0.14918 2.193564,0.14918 0,0 0,3.30789 0,3.30789 0,0 -0.652623,-0.025 -0.652623,-0.025 0,0 -0.661753,3.29152 -0.661753,3.29152 0,0 0.435134,0.02 0.435134,0.02 0,0 0.879242,2.23507 0.879242,2.23507 0,0 0,1.10396 0,2.20597 0,1.10192 0,2.20608 0,2.20608 0,0 -0.879242,2.21429 -0.879242,2.21429 0,0 -3.933796,0 -3.933796,0 0,0 0,-3.38869 0,-3.38869 0,0 0.435025,0.005 0.435025,0.005 0,0 0,-2.25569 0,-4.50718 0,-2.25158 0,-4.50512 0,-4.50512 0,0 -0.435025,-0.025 -0.435025,-0.025 0,0 0,-3.38243 0,-3.38243 z m 10.505178,10.36836 c 0,0 -1.314235,-0.015 -1.314235,-0.015 0,0 0,2.17914 0,2.17914 0,0 1.314235,0.01 1.314235,0.01 0,0 0.43508,-1.08534 0.43508,-1.08534 0,0 -0.43508,-1.08759 -0.43508,-1.08759 z m -3.063586,-9.90114 c 0,0 2.184449,0.10313 2.184449,0.10313 0,0 0,3.26053 0,3.26053 0,0 -0.435098,-0.015 -0.435098,-0.015 0,0 0,3.27085 0,3.27085 0,0 2.193474,0.03 2.193474,0.03 0,0 0.870163,2.1771 0.870163,2.1771 0,0 0,1.08339 0,2.16667 0,1.08339 0,2.16884 0,2.16884 0,0 -0.870163,2.17504 -0.870163,2.17504 0,0 -3.942825,0 -3.942825,0 0,0 0,-3.28937 0,-3.28937 0,0 0.435029,0.004 0.435029,0.004 0,0 0,-2.1895 0,-4.37686 0,-2.18745 0,-4.37486 0,-4.37486 0,0 -0.435029,-0.015 -0.435029,-0.015 0,0 0,-3.28315 0,-3.28315 z m 8.320753,9.92808 c 0,0 -1.31424,-0.004 -1.31424,-0.004 0,0 0,2.16268 0,2.16268 0,0 1.31424,0.004 1.31424,0.004 0,0 0.43508,-1.08349 0.43508,-1.08349 0,0 -0.43508,-1.07918 -0.43508,-1.07918 z m -3.072722,-9.77098 c 0,0 2.193562,0.035 2.193562,0.035 0,0 0,3.24181 0,3.24181 0,0 -0.43508,-0.005 -0.43508,-0.005 0,0 0,3.24802 0,3.24802 0,0 0.43508,0.004 0.43508,0.004 0,0 0.65257,-3.23775 0.65257,-3.23775 0,0 -0.21756,-0.004 -0.21756,-0.004 0,0 0,-3.23981 0,-3.23981 0,0 2.19353,-0.025 2.19353,-0.025 0,0 0,3.24596 0,3.24596 0,0 -0.6617,0.01 -0.6617,0.01 0,0 -0.65262,3.25413 -0.65262,3.25413 0,0 0.43513,-0.004 0.43513,-0.004 0,0 0.87919,2.15632 0.87919,2.15632 0,0 0,1.08349 0,2.16473 0,1.08133 0,2.16472 0,2.16472 0,0 -0.87919,2.17299 -0.87919,2.17299 0,0 -3.94293,0 -3.94293,0 0,0 0,-3.25638 0,-3.25638 0,0 0.444163,0.003 0.444163,0.003 0,0 0,-2.16884 0,-4.33551 0,-2.16673 0,-4.33356 0,-4.33356 0,0 -0.444163,-0.01 -0.444163,-0.01 0,0 0,-3.24801 0,-3.24801 z m 5.257152,0.01 c 0,0 2.193559,-0.035 2.193559,-0.035 0,0 0,3.25432 0,3.25432 0,0 -0.44416,0.005 -0.44416,0.005 0,0 0,2.17093 0,4.34171 0,2.17084 0,4.34382 0,4.34382 0,0 0.44416,-10e-4 0.44416,-10e-4 0,0 0,3.26048 0,3.26048 0,0 -2.193559,0 -2.193559,0 0,0 0,-3.25422 0,-3.25422 0,0 0.43507,0 0.43507,0 0,0 0,-2.17098 0,-4.33771 0,-2.16883 0,-4.33752 0,-4.33752 0,0 -0.43507,0.005 -0.43507,0.005 0,0 0,-3.24591 0,-3.24591 z m 5.257159,3.13422 c 0,0 -0.87916,0.035 -0.87916,0.035 0,0 -0.43507,1.10391 -0.43507,1.10391 0,0 0,1.63342 0,3.26869 0,1.63347 0,3.26674 0,3.26674 0,0 0.43507,1.08755 0.43507,1.08755 0,0 0.87916,-0.01 0.87916,-0.01 0,0 0.43508,-1.10202 0.43508,-1.10202 0,0 0,-1.64358 0,-3.28511 0,-1.64168 0,-3.28326 0,-3.28326 0,0 -0.43508,-1.08134 -0.43508,-1.08134 z m -1.74937,-3.1963 c 0,0 2.61958,-0.11965 2.61958,-0.11965 0,0 0.87919,2.15632 0.87919,2.15632 0,0 0,2.74775 0,5.49535 0,2.74569 0,5.49339 0,5.49339 0,0 -0.87919,2.20607 -0.87919,2.20607 0,0 -2.61958,0 -2.61958,0 0,0 -0.87919,-2.17919 -0.87919,-2.17919 0,0 0,-2.71461 0,-5.42926 0,-2.71661 0,-5.43137 0,-5.43137 0,0 0.87919,-2.19151 0.87919,-2.19151 z m 7.00652,9.65734 c 0,0 -1.31424,0.035 -1.31424,0.035 0,0 0,2.21423 0,2.21423 0,0 1.31424,-0.02 1.31424,-0.02 0,0 0.43508,-1.12479 0.43508,-1.12479 0,0 -0.43508,-1.10397 -0.43508,-1.10397 z m -3.07272,-9.83926 c 0,0 2.19358,-0.12215 2.19358,-0.12215 0,0 0,3.32456 0,3.32456 0,0 -0.4351,0.025 -0.4351,0.025 0,0 0,3.32241 0,3.32241 0,0 0.4351,-0.02 0.4351,-0.02 0,0 0.65257,-3.36997 0.65257,-3.36997 0,0 -0.2176,0.015 -0.2176,0.015 0,0 0,-3.33282 0,-3.33282 0,0 2.19357,-0.1677 2.19357,-0.1677 0,0 0,3.36796 0,3.36796 0,0 -0.6617,0.04 -0.6617,0.04 0,0 -0.65262,3.39064 -0.65262,3.39064 0,0 0.43513,-0.02 0.43513,-0.02 0,0 0.87919,2.20808 0.87919,2.20808 0,0 0,1.12258 0,2.24522 0,1.12054 0,2.24738 0,2.24738 0,0 -0.87919,2.25364 -0.87919,2.25364 0,0 -3.94293,0 -3.94293,0 0,0 0,-3.30594 0,-3.30594 0,0 0.44416,-0.004 0.44416,-0.004 0,0 0,-2.20612 0,-4.41005 0,-2.20382 0,-4.41 0,-4.41 0,0 -0.44416,0.015 -0.44416,0.015 0,0 0,-3.29973 0,-3.29973 z m 5.25716,-0.35544 c 0,0 2.19357,-0.17572 2.19357,-0.17572 0,0 0,3.41337 0,3.41337 0,0 -0.44416,0.035 -0.44416,0.035 0,0 0,2.27211 0,4.54227 0,2.27216 0,4.54642 0,4.54642 0,0 0.44416,-0.01 0.44416,-0.01 0,0 0,3.41973 0,3.41973 0,0 -2.19357,0 -2.19357,0 0,0 0,-3.38243 0,-3.38243 0,0 0.43508,-0.005 0.43508,-0.005 0,0 0,-2.25984 0,-4.51749 0,-2.25568 0,-4.51338 0,-4.51338 0,0 -0.43508,0.025 -0.43508,0.025 0,0 0,-3.37412 0,-3.37412 z m 3.94294,-0.36395 c 0,0 2.18437,-0.23379 2.18437,-0.23379 0,0 0,3.50238 0,3.50238 0,0 -0.43508,0.035 -0.43508,0.035 0,0 0,2.33214 0,4.66222 0,2.33208 0,4.66426 0,4.66426 0,0 0.43508,-0.01 0.43508,-0.01 0,0 0,-1.1702 0,-1.1702 0,0 1.31429,-0.04 1.31429,-0.04 0,0 0,1.1806 0,2.35906 0,1.17841 0,2.36107 0,2.36107 0,0 -4.813,0 -4.813,0 0,0 0,-1.14547 0,-2.28878 0,-1.14121 0,-2.28462 0,-2.28462 0,0 1.31434,-0.0401 1.31434,-0.0401 0,0 0,1.15372 0,1.15372 0,0 0.43508,-0.01 0.43508,-0.01 0,0 0,-2.31351 0,-4.62497 0,-2.3094 0,-4.62096 0,-4.62096 0,0 -0.43508,0.035 -0.43508,0.035 0,0 0,-3.45262 0,-3.45262 z m 5.25714,-0.61206 c 0,0 2.18439,-0.30187 2.18439,-0.30187 0,0 0,3.64911 0,3.64911 0,0 -0.43507,0.0451 -0.43507,0.0451 0,0 0,3.6409 0,3.6409 0,0 0.2727,1.49875 0.54384,3.00206 0.27263,1.51097 0.55288,3.031 0.55288,3.031 0,0 0.65262,-0.02 0.65262,-0.02 0,0 0,3.69462 0,3.69462 0,0 -2.18443,0 -2.18443,0 0,0 0,-3.63049 0,-3.63049 0,0 0.2176,-0.005 0.2176,-0.005 0,0 -0.44416,-2.40026 -0.44416,-2.40026 0,0 -0.43508,2.42725 -0.43508,2.42725 0,0 0.21748,-0.005 0.21748,-0.005 0,0 0,3.61607 0,3.61607 0,0 -2.18438,0 -2.18438,0 0,0 0,-3.55204 0,-3.55204 0,0 0.65257,-0.02 0.65257,-0.02 0,0 0.27227,-1.50096 0.54386,-3.00617 0.27223,-1.50922 0.55298,-3.02885 0.55298,-3.02885 0,0 0,-3.6016 0,-3.6016 0,0 -0.43508,0.0451 -0.43508,0.0451 0,0 0,-3.58298 0,-3.58298 z m 3.93374,-0.54162 c 0,0 1.31433,-0.21927 1.31433,-0.21927 0,0 0,3.74418 0,3.74418 0,0 -1.31433,0.17171 -1.31433,0.17171 0,0 0,-3.69672 0,-3.69672 z m 2.62861,-0.44054 c 0,0 2.62856,-0.44255 2.62856,-0.44255 0,0 0.87924,2.45619 0.87924,2.45619 0,0 0,3.92415 0,3.92415 0,0 -1.31432,0.15069 -1.31432,0.15069 0,0 0,-1.29015 0,-1.29015 0,0 -0.44416,-1.23633 -0.44416,-1.23633 0,0 -0.87008,0.11564 -0.87008,0.11564 0,0 -0.44416,1.3315 -0.44416,1.3315 0,0 0,1.90621 0,3.81251 0,1.90621 0,3.81447 0,3.81447 0,0 0.44416,1.25705 0.44416,1.25705 0,0 0.87008,-0.03 0.87008,-0.03 0,0 0.44416,-1.31082 0.44416,-1.31082 0,0 0,-1.29015 0,-1.29015 0,0 1.31432,-0.0826 1.31432,-0.0826 0,0 0,3.9221 0,3.9221 0,0 -0.87924,2.62575 -0.87924,2.62575 0,0 -2.62856,0 -2.62856,0 0,0 -0.87012,-2.51822 -0.87012,-2.51822 0,0 0,-3.13848 0,-6.27696 0,-3.13643 0,-6.27491 0,-6.27491 0,0 0.87012,-2.65668 0.87012,-2.65668 z m 6.57149,2.84281 c 0,0 -0.87927,0.13667 -0.87927,0.13667 0,0 -0.43507,1.40379 -0.43507,1.40379 0,0 0,1.99922 0,4.00059 0,1.99927 0,4.0028 0,4.0028 0,0 0.43507,1.31688 0.43507,1.31688 0,0 0.87927,-0.035 0.87927,-0.035 0,0 0.43498,-1.37896 0.43498,-1.37896 0,0 0,-2.03852 0,-4.07714 0,-2.03652 0,-4.07504 0,-4.07504 0,0 -0.43498,-1.29209 -0.43498,-1.29209 z m -1.74948,-3.70498 c 0,0 2.61959,-0.52104 2.61959,-0.52104 0,0 0.87918,2.57818 0.87918,2.57818 0,0 0,3.44236 0,6.88482 0,3.4424 0,6.88471 0,6.88471 0,0 -0.87918,2.76226 -0.87918,2.76226 0,0 -2.61959,0 -2.61959,0 0,0 -0.87913,-2.63821 -0.87913,-2.63821 0,0 0,-3.28726 0,-6.57463 0,-3.28731 0,-6.57457 0,-6.57457 0,0 0.87913,-2.80152 0.87913,-2.80152 z m 3.9339,-0.78156 c 0,0 2.19348,-0.50238 2.19348,-0.50238 0,0 0,4.25296 0,4.25296 0,0 -0.43508,0.0806 -0.43508,0.0806 0,0 0,1.76563 0,3.53122 0,1.76563 0,3.53126 0,3.53126 0,0 0.27278,-1.79852 0.54384,-3.60771 0.27256,-1.81915 0.5438,-3.64916 0.5438,-3.64916 0,0 0.27274,1.74266 0.54387,3.49818 0.27259,1.76533 0.55292,3.54378 0.55292,3.54378 0,0 0,-1.80914 0,-3.62028 0,-1.81104 0,-3.62017 0,-3.62017 0,0 -0.43513,0.0766 -0.43513,0.0766 0,0 0,-4.31694 0,-4.31694 0,0 2.19358,-0.50237 2.19358,-0.50237 0,0 0,4.42638 0,4.42638 0,0 -0.44411,0.0806 -0.44411,0.0806 0,0 0,2.93994 0,5.87797 0,2.93573 0,5.87782 0,5.87782 0,0 0.44411,-0.02 0.44411,-0.02 0,0 0,4.43273 0,4.43273 0,0 -1.75845,0 -1.75845,0 0,0 -0.28016,-1.80533 -0.55292,-3.5995 -0.271,-1.7824 -0.54387,-3.55204 -0.54387,-3.55204 0,0 -0.27102,1.80318 -0.5438,3.5975 -0.27092,1.78245 -0.54384,3.55404 -0.54384,3.55404 0,0 -1.7584,0 -1.7584,0 0,0 0,-4.15363 0,-4.15363 0,0 0.44411,-0.025 0.44411,-0.025 0,0 0,-2.78284 0,-5.56363 0,-2.78074 0,-5.56363 0,-5.56363 0,0 -0.44411,0.0786 -0.44411,0.0786 0,0 0,-4.14543 0,-4.14543"
       style="fill:#cccccc;fill-opacity:1;fill-rule:nonzero;stroke:none;stroke-width:0.206495"
       id="path2636" />
    <path
       d="m 71.005218,816.36728 c 0,-0.34506 0,-0.68869 0,-1.03246 0,-0.34423 0,-0.68779 0,-1.03172 -0.400943,-0.0376 -0.801827,-0.0728 -1.202974,-0.11293 0,0.29571 0,0.59129 0,0.88704 -0.303488,-0.0293 -0.60678,-0.0598 -0.904928,-0.0903 0,-0.54491 0,-1.08982 0,-1.63376 0.498498,0.0527 1.002562,0.10624 1.506405,0.15727 0,-0.39484 0,-0.78972 0,-1.18443 -0.503843,-0.0535 -1.007907,-0.10917 -1.506405,-0.16563 0,-0.54679 0,-1.09362 0,-1.6402 0.298135,0.0334 0.601419,0.0711 0.904928,0.10749 0,0.29571 0,0.59121 0,0.88784 0.401151,0.0456 0.802049,0.0862 1.202974,0.12632 0,-0.34381 0,-0.68871 0,-1.03248 0,-0.34381 0,-0.68779 0,-1.03155 -1.403324,-0.16187 -2.80687,-0.33586 -4.204832,-0.50953 0,0.40028 0,0.80147 0,1.20258 0.297968,0.0334 0.595972,0.0703 0.893957,0.10666 0,0.74772 0,1.4964 0,2.24412 0,0.74777 0,1.49636 0,2.24509 -0.297968,-0.0293 -0.595969,-0.059 -0.893957,-0.0891 0,0.39944 0,0.80055 0,1.20182 1.397962,0.13259 2.801508,0.2656 4.204832,0.38731 z m 3.744463,0.29739 c 0.411525,0.0293 0.765355,-0.0862 1.062005,-0.35009 0.293871,-0.2614 0.438954,-0.59408 0.438954,-0.9916 0,-0.65315 0,-1.30535 0,-1.9577 0,-0.65123 0,-1.30359 0,-1.95486 0,-0.35761 -0.130326,-0.67481 -0.395631,-0.95505 -0.265636,-0.28065 -0.585202,-0.43858 -0.959088,-0.4723 0,-0.26643 0,-0.53298 0,-0.7995 -0.4009,-0.0376 -0.80201,-0.0765 -1.202911,-0.11376 0,0.26726 0,0.53486 0,0.80314 -0.368569,-0.0418 -0.687939,0.0561 -0.953805,0.2865 -0.265051,0.23047 -0.395422,0.52671 -0.395422,0.88868 0,0.66147 0,1.32274 0,1.98325 0,0.66123 0,1.32346 0,1.98493 0,0.4032 0.146976,0.76174 0.444237,1.07522 0.293282,0.30951 0.644808,0.48133 1.056721,0.51031 0.297759,0.0209 0.601657,0.0418 0.904928,0.0627 z m -0.904927,-4.80592 c 0.298009,0.0251 0.601493,0.051 0.904927,0.0765 0,-0.26726 0,-0.5349 0,-0.80146 0.08118,0.008 0.152498,0.0418 0.211347,0.10205 0.06019,0.0627 0.08666,0.13468 0.08666,0.21373 0,0.6304 0,1.26085 0,1.89107 0,0.6304 0,1.26084 0,1.89217 0,0.0799 -0.02719,0.14513 -0.08666,0.19825 -0.05943,0.0531 -0.13033,0.074 -0.211347,0.0682 -0.303446,-0.0209 -0.606922,-0.0452 -0.904927,-0.0665 -0.08118,-0.004 -0.152121,-0.0376 -0.211346,-0.0991 -0.05977,-0.0623 -0.08666,-0.13175 -0.08666,-0.21206 0,-0.63499 0,-1.26827 0,-1.90227 0,-0.63404 0,-1.26804 0,-1.90128 0,-0.0791 0.02635,-0.14723 0.08666,-0.1991 0.05885,-0.0506 0.129994,-0.0715 0.211346,-0.0644 0,0.2681 0,0.53583 0,0.8041 z m 6.442911,5.14061 c 0,-0.38187 0,-0.7632 0,-1.14427 -0.200389,-0.0125 -0.400901,-0.0251 -0.595972,-0.0334 0,-0.66955 0,-1.33801 0,-2.00664 0,-0.66955 0,-1.33826 0,-2.00684 0,-0.0782 0.02636,-0.14555 0.08661,-0.19742 0.05886,-0.051 0.13,-0.0719 0.211352,-0.0665 0.297795,0.0209 0.595963,0.0418 0.899457,0.0573 0.08666,0.004 0.158185,0.0334 0.216825,0.0937 0.06033,0.0598 0.08662,0.12924 0.08662,0.20746 0,0.66603 0,1.33182 0,1.99781 0,0.66578 0,1.33182 0,1.99852 -0.200513,-0.008 -0.40094,-0.0167 -0.601437,-0.0292 0,0.38103 0,0.76228 0,1.14335 0.899419,0.0418 1.799125,0.0795 2.704049,0.12004 0,-0.37936 0,-0.75775 0,-1.1362 -0.303448,-0.0125 -0.601655,-0.0292 -0.899645,-0.0427 0,-0.66503 0,-1.32909 0,-1.99299 0,-0.66416 0,-1.32823 0,-1.99238 0,-0.39316 -0.145674,-0.7358 -0.438952,-1.02883 -0.297259,-0.29696 -0.650071,-0.45904 -1.067463,-0.48309 -0.303323,-0.0167 -0.601483,-0.0376 -0.899465,-0.0598 -0.411693,-0.0292 -0.764933,0.0828 -1.062183,0.34381 -0.293286,0.25765 -0.444279,0.58414 -0.444279,0.97969 0,0.67147 0,1.34185 0,2.01337 0,0.67122 0,1.3416 0,2.01383 -0.297974,-0.0167 -0.595994,-0.0376 -0.894147,-0.0536 0,0.38396 0,0.76872 0,1.15335 0.899644,0.051 1.79911,0.10205 2.698591,0.15183 z m 7.353341,0.26559 c 0,-0.37559 0,-0.75223 0,-1.12708 -0.303534,-0.004 -0.606942,-0.0125 -0.904932,-0.0209 0,-0.70589 0,-1.41275 0,-2.11777 0,-0.70589 0,-1.41179 0,-2.11693 0.298013,0.0125 0.601422,0.0209 0.904932,0.0293 0,-0.37559 0,-0.75128 0,-1.12708 -1.002401,-0.0376 -2.004988,-0.0782 -3.00738,-0.12004 0,0.37768 0,0.75604 0,1.13352 0.297966,0.0125 0.595986,0.0251 0.899481,0.0334 0,0.70669 0,1.4135 0,2.1204 0,0.7069 0,1.41468 0,2.12133 -0.303495,-0.008 -0.6015,-0.0209 -0.899481,-0.0293 0,0.37685 0,0.75508 0,1.13256 1.002392,0.0334 2.004979,0.064 3.00738,0.0866 z m 5.998647,-2.31054 c 0,-0.38396 -0.15191,-0.71685 -0.444455,-0.99324 -0.292485,-0.27647 -0.64497,-0.41574 -1.061942,-0.41855 -0.352299,-0.002 -0.704419,-0.004 -1.051221,-0.008 0,-0.51596 0,-1.03172 0,-1.54651 0.297967,0.002 0.595972,0.004 0.899481,0.008 0,-0.37392 0,-0.74868 0,-1.12327 -1.0024,-0.008 -2.004979,-0.0293 -3.002092,-0.0536 0,0.37476 0,0.75056 0,1.12616 0.297966,0.008 0.596204,0.0125 0.894194,0.0209 0,0.70217 0,1.40543 0,2.10773 0,0.70234 0,1.40635 0,2.10945 -0.297967,-0.008 -0.596213,-0.0125 -0.894194,-0.0167 0,0.37476 0,0.7496 0,1.1254 1.051212,0.0209 2.102611,0.0293 3.153832,0.0376 0.416956,0.003 0.770048,-0.13092 1.061942,-0.40196 0.293112,-0.27228 0.444455,-0.60321 0.444455,-0.988 0,-0.32833 0,-0.65583 0,-0.98425 z m -2.557618,-0.29654 c 0.346818,0.003 0.698914,0.008 1.051221,0.008 0.08109,4.2e-4 0.156428,0.0251 0.211304,0.0811 0.05886,0.0577 0.09214,0.12297 0.09214,0.19825 0,0.32834 0,0.65575 0,0.98421 0,0.0765 -0.03305,0.14137 -0.09214,0.19825 -0.05443,0.0523 -0.130163,0.0786 -0.211304,0.0782 -0.352299,-0.002 -0.704419,-0.004 -1.051221,-0.008 0,-0.51391 0,-1.02795 0,-1.54107 z m 5.993164,2.66003 c 0.200552,-0.44673 0.406585,-0.89247 0.606981,-1.33901 0.200341,-0.44653 0.406382,-0.89436 0.612229,-1.34177 0.200551,0.4393 0.400891,0.87784 0.601471,1.31718 0.20056,0.43933 0.40643,0.87864 0.61229,1.31893 0.69907,-0.0125 1.40345,-0.0334 2.10787,-0.0536 0,-0.37601 0,-0.75152 0,-1.12615 -0.30327,0.0125 -0.60675,0.0209 -0.90493,0.0293 0,-0.70305 0,-1.40728 0,-2.10966 0,-0.70209 0,-1.40534 0,-2.10765 0.29818,-0.008 0.60166,-0.0209 0.90493,-0.0334 0,-0.3756 0,-0.75056 0,-1.12633 -1.0024,0.0376 -2.0048,0.0627 -3.00736,0.0874 0,0.37476 0,0.7496 0,1.12344 0.29796,-0.008 0.59597,-0.0125 0.89949,-0.0209 0,0.45318 0,0.90611 0,1.35909 0,0.45309 0,0.90606 0,1.359 -0.20035,-0.43118 -0.40642,-0.86237 -0.6015,-1.29263 -0.19508,-0.43026 -0.4009,-0.86048 -0.595972,-1.29074 -0.20587,0.44577 -0.412113,0.89231 -0.617734,1.33708 -0.205862,0.4449 -0.411942,0.88985 -0.617765,1.33375 0,-0.45845 0,-0.91783 0,-1.37628 0,-0.45867 0,-0.91804 0,-1.3764 0.297966,-0.002 0.601476,-0.008 0.90497,-0.0167 0,-0.37392 0,-0.74873 0,-1.12256 -1.002626,0.0167 -2.004961,0.0251 -3.002082,0.0334 0,0.37393 0,0.74772 0,1.12252 0.297973,-0.002 0.595971,-0.004 0.894201,-0.008 0,0.70046 0,1.40183 0,2.10225 0,0.70042 0,1.40179 0,2.10313 -0.298215,0.002 -0.596212,0.003 -0.894201,0.004 0,0.37393 0,0.74772 0,1.12157 0.699069,-0.004 1.398045,-0.008 2.097112,-0.0125 z m 10.084271,-0.31034 c 0,-0.3321 0,-0.66407 0,-0.99521 0,-0.33126 0,-0.6631 0,-0.9952 -0.4009,0.0209 -0.80183,0.0376 -1.19747,0.0582 0,0.28316 0,0.5649 0,0.84873 -0.30344,0.0125 -0.60692,0.0293 -0.9049,0.0418 0,-0.51848 0,-1.03607 0,-1.55454 0.49855,-0.0251 0.99705,-0.0489 1.50095,-0.0749 0,-0.37936 0,-0.75776 0,-1.13712 -0.5039,0.0251 -1.0024,0.0527 -1.50095,0.0795 0,-0.52053 0,-1.04079 0,-1.56015 0.29796,-0.0167 0.60147,-0.0334 0.9049,-0.051 0,0.28274 0,0.56569 0,0.84952 0.39563,-0.0209 0.79657,-0.0439 1.19747,-0.0652 0,-0.3321 0,-0.66411 0,-0.99612 0,-0.33126 0,-0.66319 0,-0.99429 -1.4033,0.0828 -2.80678,0.16564 -4.20483,0.22753 0,0.37686 0,0.75224 0,1.12897 0.29797,-0.0125 0.59603,-0.0251 0.89948,-0.0376 0,0.70588 0,1.41253 0,2.11847 0,0.70594 0,1.41376 0,2.12062 -0.30345,0.008 -0.60149,0.0209 -0.89948,0.0292 0,0.3756 0,0.75232 0,1.1288 1.39805,-0.0489 2.80153,-0.11 4.20483,-0.17107 z m 3.44105,-0.19115 c 0.3523,-0.64692 0.71049,-1.29622 1.06217,-1.94766 0.35251,-0.65273 0.7152,-1.30815 1.07279,-1.9641 0,0.43499 0,0.86877 0,1.30359 0,0.43499 0,0.86977 0,1.30551 -0.30349,0.0209 -0.60676,0.0439 -0.90497,0.0657 0,0.38396 0,0.76967 0,1.15431 1.00263,-0.069 2.00503,-0.13719 3.00759,-0.21457 0,-0.3894 0,-0.77876 0,-1.16808 -0.30349,0.0251 -0.60148,0.0519 -0.89964,0.0736 0,-0.72692 0,-1.45558 0,-2.1815 0,-0.72694 0,-1.45366 0,-2.1806 0.29817,-0.0251 0.59615,-0.0573 0.89964,-0.0891 0,-0.3894 0,-0.77876 0,-1.16795 -1.00256,0.10373 -2.00496,0.19658 -3.00759,0.28985 0,0.3848 0,0.7706 0,1.15549 0.23862,-0.0209 0.47699,-0.0427 0.72087,-0.064 -0.32524,0.5449 -0.65047,1.08982 -0.97554,1.63213 -0.32502,0.54185 -0.65025,1.08237 -0.97532,1.61912 0,-0.51404 0,-1.02791 0,-1.542 0,-0.51312 0,-1.02698 0,-1.54103 0.29797,-0.0209 0.60148,-0.0481 0.90497,-0.0753 0,-0.3848 0,-0.76846 0,-1.15335 -1.0024,0.0853 -2.00496,0.1627 -3.00208,0.23924 0,0.38104 0,0.76232 0,1.1426 0.29797,-0.0209 0.59615,-0.0439 0.8942,-0.0657 0,0.71598 0,1.43192 0,2.14689 0,0.71593 0,1.43266 0,2.14863 -0.29805,0.0167 -0.59622,0.0334 -0.8942,0.0527 0,0.38019 0,0.76152 0,1.14256 0.69907,-0.0376 1.39802,-0.0782 2.09711,-0.11712 z m 9.48303,-7.63129 c 0,0.39818 0,0.79762 0,1.19613 -0.30366,0.0376 -0.60167,0.0736 -0.89963,0.11001 0,0.74321 0,1.48829 0,2.23149 0,0.74409 0,1.48921 0,2.23404 0.1949,-0.0209 0.39566,-0.0418 0.59614,-0.0589 0,-0.29822 0,-0.59677 0,-0.8942 0.40069,-0.0418 0.8018,-0.0841 1.20839,-0.12547 0,0.35008 0,0.70046 0,1.0497 0,0.3505 0,0.70059 0,1.05175 -1.60402,0.14932 -3.20808,0.29905 -4.81191,0.43102 0,-0.34297 0,-0.6849 0,-1.02699 0,-0.34214 0,-0.68398 0,-1.02603 0.4009,-0.0376 0.80198,-0.0719 1.20293,-0.10833 0,0.29445 0,0.58841 0,0.88319 0.20076,-0.0167 0.40069,-0.0376 0.60145,-0.0564 0,-0.74057 0,-1.48089 0,-2.22049 0,-0.73864 0,-1.47921 0,-2.21786 -0.30366,0.0376 -0.60694,0.069 -0.9049,0.1 0,-0.39317 0,-0.78595 0,-1.17895 1.00256,-0.11837 2.00496,-0.24635 3.00753,-0.37392"
       style="fill:#cccccc;fill-opacity:1;fill-rule:nonzero;stroke:none;stroke-width:0.202395"
       id="path2704" />
  </g>
</svg>
