<?xml version="1.0" encoding="UTF-8" standalone="no"?>
<!-- Created with Inkscape (http://www.inkscape.org/) -->

<svg
   version="1.1"
   id="svg1045"
   width="210"
   height="50"
   viewBox="0 0 210 50"
   sodipodi:docname="logo ketiket.svg"
   inkscape:version="1.2.2 (732a01da63, 2022-12-09)"
   inkscape:export-filename="logo ketiket.svg"
   inkscape:export-xdpi="96"
   inkscape:export-ydpi="96"
   xmlns:inkscape="http://www.inkscape.org/namespaces/inkscape"
   xmlns:sodipodi="http://sodipodi.sourceforge.net/DTD/sodipodi-0.dtd"
   xmlns="http://www.w3.org/2000/svg"
   xmlns:svg="http://www.w3.org/2000/svg">
  <defs
     id="defs1049" />
  <sodipodi:namedview
     id="namedview1047"
     pagecolor="#ffffff"
     bordercolor="#000000"
     borderopacity="0.25"
     inkscape:showpageshadow="2"
     inkscape:pageopacity="0.0"
     inkscape:pagecheckerboard="0"
     inkscape:deskcolor="#d1d1d1"
     showgrid="false"
     inkscape:zoom="3.6928571"
     inkscape:cx="55.783366"
     inkscape:cy="46.847196"
     inkscape:window-width="1366"
     inkscape:window-height="697"
     inkscape:window-x="-8"
     inkscape:window-y="-8"
     inkscape:window-maximized="1"
     inkscape:current-layer="g1051" />
  <g
     inkscape:groupmode="layer"
     inkscape:label="Image"
     id="g1051">
    <g
       id="g2263"
       transform="matrix(1.0575446,0,0,1.0575446,9.2581285,2.5673504)">
      <path
         style="opacity:1;fill:#1ec0ed;fill-opacity:1;stroke:none;stroke-width:0.691299;stroke-opacity:1"
         d="m 10.460765,10.817315 5.241568,4.118371 c 0,0 4.342439,-2.365486 6.739158,-2.620782 3.14189,-0.33467 9.359936,1.497588 9.359936,1.497588 C 26.871871,9.6316912 23.404457,6.8150583 18.323114,5.2013538 13.202944,3.5753166 2.2240206,4.4525601 2.2240206,4.4525601 l 3.3695752,2.9951751 c 0,0 2.7638248,-0.6299803 4.1183755,-0.3743939 0.8226657,0.1552235 2.0037837,0.3219299 2.2463877,1.1231864 0.291568,0.9629933 -1.497594,2.6207873 -1.497594,2.6207873 z"
         id="path1328"
         sodipodi:nodetypes="ccacaccaac" />
      <path
         style="opacity:1;fill:#1ec0ed;fill-opacity:1;stroke:none;stroke-width:0.691299;stroke-opacity:1"
         d="m 24.833361,14.484846 c 0,0 -0.08401,5.441927 -1.74727,7.31964 -2.813515,3.176261 -11.934459,4.428252 -11.934459,4.428252 l 3.848952,5.055251 c 0,0 1.826841,-0.649546 2.69758,-0.390177 0.862488,0.256915 2.022817,0.88567 2.025004,1.785608 0.0028,1.150591 -2.577891,2.295478 -2.577891,2.295478 l 3.999732,3.942231 c 0,0 6.475359,-5.464802 8.500271,-9.08366 1.777529,-3.176741 3.100786,-6.896447 2.892367,-10.53071 -0.07399,-1.290138 -1.44741,-3.596445 -1.44741,-3.596445 z"
         id="path1330"
         sodipodi:nodetypes="caccaaccaacc" />
      <circle
         style="opacity:1;fill:#1ec0ed;fill-opacity:1;stroke:none;stroke-width:1.34092;stroke-opacity:1"
         id="path9741"
         cx="31.694778"
         cy="6.3390474"
         r="3.6311176" />
    </g>
    <text
       xml:space="preserve"
       style="font-size:29.1789px;opacity:1;fill:#1ec0ed;stroke-width:2.43158"
       x="54.893414"
       y="32.577267"
       id="text2303"><tspan
         sodipodi:role="line"
         id="tspan2301"
         x="54.893414"
         y="32.577267"
         style="font-style:normal;font-variant:normal;font-weight:normal;font-stretch:normal;font-family:Calibri;-inkscape-font-specification:Calibri;stroke-width:2.43158">Ketiket.com</tspan></text>
  </g>
</svg>
