<svg xmlns="http://www.w3.org/2000/svg" enable-background="new 0 0 28 28" viewBox="0 0 28 28"><path fill="#FF7C66" d="M10.498,21.139c-4.876,0.657-3.962-5.631-4.204-9.378C6.053,8.014,9.786,5.43,14.691,5.114s8.475-0.384,9.322,7.809C24.399,16.657,23.874,19.338,10.498,21.139z"/><path d="M14.3 19c-.314 0-.735-.009-1.209-.076-.461-.065-.864-.146-1.229-.245-.421-.113-.795-.238-1.141-.384-.359-.15-.684-.32-.992-.52-.229-.147-.298-.452-.153-.685l.975-1.565c.07-.113.183-.193.313-.223.129-.031.266-.007.379.065 1.052.67 2.076 1.01 3.042 1.01.376 0 .69-.063.884-.178.113-.066.159-.147.159-.278 0-.055 0-.138-.195-.224-.301-.146-.804-.295-1.556-.463-.54-.12-1.047-.263-1.551-.437-.477-.165-.848-.349-1.138-.562-.324-.238-.555-.508-.707-.823-.155-.315-.231-.667-.231-1.072 0-.514.113-1.004.326-1.418.222-.426.528-.786.912-1.07.367-.275.807-.492 1.306-.644 1.044-.312 2.452-.271 3.624.104.683.219 1.317.503 1.884.846.118.071.201.188.23.322.029.134.001.274-.076.388l-.944 1.378c-.149.221-.445.284-.671.146-.503-.305-.931-.505-1.305-.613-.385-.125-.772-.184-1.2-.184-.338 0-.598.054-.792.165-.109.06-.171.131-.171.313 0 .102.02.147.129.202.157.077.519.212 1.328.411.655.157 1.223.317 1.685.477.486.166.902.365 1.236.592.364.249.633.544.801.876.167.33.251.723.251 1.168 0 .497-.108.959-.321 1.374-.217.414-.518.765-.896 1.045 0 0 0 0 0 0-.371.275-.822.486-1.342.627-.081.021-.165.023-.243.005C15.257 18.95 14.789 19 14.3 19zM10.697 17.182c.131.067.268.131.411.191.304.127.636.238 1.015.341.326.088.689.16 1.11.22 1.16.164 1.796.075 2.475-.117.072-.021.146-.024.218-.012.293-.102.548-.231.761-.389l0 0c.256-.19.46-.427.604-.703.14-.272.209-.572.209-.913 0-.287-.048-.528-.144-.717-.093-.184-.247-.348-.472-.502-.258-.175-.593-.334-.996-.471-.433-.149-.97-.301-1.597-.451-.731-.18-1.233-.339-1.536-.486-.444-.222-.686-.611-.686-1.099 0-.525.243-.946.684-1.187.692-.395 1.847-.366 2.773-.064.336.097.708.255 1.119.479l.373-.544c-.375-.19-.78-.355-1.207-.491-.983-.315-2.187-.354-3.031-.1-.385.116-.721.28-.997.487-.263.194-.472.439-.622.729-.14.271-.214.603-.214.958 0 .252.042.454.13.636.082.17.209.313.401.455.207.152.493.291.872.422.466.161.938.294 1.442.405.84.188 1.398.357 1.756.531.495.217.777.621.777 1.132 0 .487-.231.893-.651 1.14-.355.21-.824.316-1.392.316-1.021 0-2.078-.305-3.146-.906L10.697 17.182zM16.984 17.817h.01H16.984zM20.006 22.033h-.482c-.276 0-.5-.224-.5-.5s.224-.5.5-.5h.482c.511 0 .659-.036.659-.842v-3.789c0-1.231.22-1.967.786-2.424-.579-.459-.803-1.201-.803-2.444V7.762c0-.701-.075-.729-.666-.729H19.5c-.276 0-.5-.224-.5-.5s.224-.5.5-.5h.482c1.183 0 1.666.501 1.666 1.729v3.772c0 1.633.438 1.763.994 1.927C22.854 13.523 23 13.719 23 13.94s-.146.492-.359.555c-.566.167-.976.287-.976 1.907v3.789C21.665 21.049 21.476 22.033 20.006 22.033zM23.768 20h-.263c-.276 0-.5-.224-.5-.5s.224-.5.5-.5h.263c.17 0 .217-.031.218-.031.001-.001.061-.074.061-.445v-2.78c0-.83.083-1.4.448-1.777-.365-.38-.448-.955-.448-1.792V9.415c0-.293-.037-.38-.046-.396-.006 0-.056-.017-.203-.019-.013.001-.025.002-.038.002H23.5c-.276 0-.5-.224-.5-.5s.224-.5.5-.5h.228C23.742 8.001 23.755 8 23.768 8c1.133 0 1.278.756 1.278 1.415v2.759c0 1.134.134 1.168.578 1.281C25.845 13.512 26 13.711 26 13.939s-.155.482-.376.539c-.455.116-.577.147-.577 1.265v2.78C25.046 18.889 25.046 20 23.768 20zM8.477 22.033H7.994c-1.47 0-1.659-.984-1.659-1.842v-3.789c0-1.62-.41-1.74-.976-1.907C5.146 14.433 5 14.237 5 14.016s.146-.492.358-.555c.555-.164.994-.294.994-1.927V7.762c0-1.228.483-1.729 1.666-1.729H8.5c.276 0 .5.224.5.5s-.224.5-.5.5H8.018c-.591 0-.666.027-.666.729v3.772c0 1.243-.224 1.985-.803 2.444.566.457.786 1.192.786 2.424v3.789c0 .806.147.842.659.842h.482c.276 0 .5.224.5.5S8.753 22.033 8.477 22.033zM4.495 20H4.232c-1.278 0-1.278-1.111-1.278-1.477v-2.78c0-1.117-.122-1.148-.577-1.265C2.155 14.422 2 14.223 2 13.994s.155-.482.376-.539c.444-.113.578-.147.578-1.281V9.415C2.954 8.756 3.099 8 4.232 8c.015 0 .029.001.044.002H4.5c.276 0 .5.224.5.5s-.224.5-.5.5H4.24C4.226 9.002 4.212 9.001 4.199 9 4.041 9.003 3.993 9.026 3.987 9.029 3.983 9.021 3.954 9.085 3.954 9.415v2.759c0 .837-.083 1.412-.448 1.792.365.377.448.947.448 1.777v2.78c0 .37.06.443.062.447l0 0c0 0 .05.029.216.029h.263c.276 0 .5.224.5.5S4.771 20 4.495 20z"/></svg>